<?xml version="1.0" encoding="UTF-8"?>
<svg version="1.1" viewBox="0 0 2000 1818" width="1280" height="1280" xmlns="http://www.w3.org/2000/svg">
<path transform="translate(0)" d="m0 0h2e3v1818h-2e3z" fill="#FDFDFC"/>
<path transform="translate(1492,355)" d="m0 0h13l13 3 11 5v2l5 2 16 16 7 9 14 4 8 6 6 9 3 10 3 32v12l5 2 7 8 3 8 1 13-3 10-3 6-8 7-6 2-4 16-2 15-5 16-9 15-11 12-10 7-9 5 1 8 12 44v5l30 5 19 5 17 7 15 10 12 11 10 10 10 13 9 13 12 19 13 23 15 29 2 6v6l12 22 12 26 11 27 5 15-1 10-5 8-7 7-13 8-14 6-28 8-21 4-15 2 25 134 6 33-1 5-15 11-21 10 1 23v58l-1 56-2 47-3 47-9 74-7 53-10 77-8 64-5 39 18 8 23 6 16 4 7 4 2 4v6l-6 7-12 5-16 3h-56l-19-2-10-4-4-5-1-8 1-12 3-5 6 1-3-29-3-46-2-47-2-81-1-103-4-44-8-51-7-35-5-26-2-12-3-12-1-5-2 6-8 37-10 49-7 44-3 24-2 26-1 86-2 98-3 62-3 42-2 16h6l3 5 1 16-3 7-6 4-13 3-12 1h-58l-15-3-10-4-7-8v-7l5-5 6-3 26-6 21-7 8-4-18-140-4-31v8l-16 10-11 7-15 10-13 8-16 11-54 36-17 11-16 10-7 4-13 8-12 7-11 6-32 16-13 6-1 65h-29l-1-1v-465h-17v427h-30v-427h-92l-1 13-5 12-6 8-9 8-7 4-9 33-10 28-6 15-8 19-8 16-6 14-10 19-8 15-6 12-12 22-16 28-9 15-10 17-8 13-30 48-7 32-2 7-24 10-12-9v-2l-6-3v-2l-3-1 3-21 1-5v-10l-4-20-11-63-8-54-6-49-4-52v-74l-10-6-5-4-7-11-3-9v-13h-82l1 134 11-13 4-2 7 9 3 5v7l-6 12-15 22-4 6v21l19-9 2-1h6l-2 13-6 18-5 6-14 11-1 188h-29l-5 12-8 12 1 9-6 6h-28l-2-1-77-1-3-5 1-4 1-2-4-7-7-12-6-17-3-17v-23l2-13 5-16 6-13-1-4-2-2 3-9 4-2h3l-3-6-10-13-30-45-9-13-1-1v-5l17-1 7-1 2-4-3-6-7-8v-2h-2v-2l-4-2-14-14-8-7-15-15-11-14-4-14-3-20v-14h6l9 6 16 12 11 7 5-1v-8l-5-15-7-17-8-16-10-21-6-17v-10l11-14 5-5 4 2 8 13 11 20 4 6v2l2-1 1-7-1-22-1-4-1-12v20l-1 2-5-1-5-5-9-8-7-8-8-11-6-10-6-14-4-17-1-7v-16l3-22 6-22 7-19 12-28 11-25 11-28 6-19 4-17 2-16v-27l-4-26-8-30-5-13v-2l-7 2h-5v-4l10-2-10-27-9-26-5-16-5-19-1-7-9-2v-4h7l-2-18-1-27-1-5 2-13 3-1 4-13 8-16 8-11 6-7 8-7 12-10 15-10 17-10 21-12 23-14 13-9 9-7 10-9 3-1v-2l3-3h2v-2l5-5 3-4h2l2-4 12-17 12-21 7-16 5-12 6-16 16-48 13-34 8-17 10-17 10-13 12-12h2v-2l11-7 13-5 8-2h24l17 4 12 4 14 8 9 7 12 12 13 17 7 11 11 16 12 16 11 12 8 7 13 8 13 6 16 4 8 1h18l18-3 16-5 11-4h2v-24l4-16 8-16 4-6h2l2-4 4-5 13-10 15-7 15-4h25l16 4 14 7 11 8 5 5-5-6-4-3v-3l14-6 20-6 20-5 21-3 11-1h48l29 4 19 4 21 6 19 7 18 8 12 7 16 10 9 7 10 8 6 5v2l4 2 3 3v2h2l7 8 15 20v16l2 7 3 7 3 5 1-1-3-3-4-9-1-6v-8l2-9 4-7 3-3 3-31 5-25 5-13 6-11 9-11 9-8 14-8 13-5z" fill="#E3E6FB"/>
<path transform="translate(1510,1214)" d="m0 0 2 2 5 25 5 23 7 38 6 35 3 20 4 44 1 103 2 81 2 47 3 46 2 18v11h-6l-2 4-1 16 3 7 7 4 10 2 13 1h56l16-3 12-5 5-6v-6l-2-4-9-4-29-7-17-6-9-5 12-93 7-56 7-53 3-25 2-4 1-6 7 4v2l4 2 8 6 4 4 10 8 5 5 3 2v2l4 2 4 3v2h2v2h2v2l4 2 14 13 5 5 3 2v2h2l6 7 2 1v2h2l4 4v2h2l6 7 13 13v2h2v2h2l7 8 2 4h2l7 8 12 14v2h2l3 4v2h2l22 28 13 18 14 21 14 25 5 14v20l-5 16-7 9-6 5-15 8-21 6-10 2-29 3-33 2-26 1-152 3-72 2-94 4-194 12-94 5-90 4h-392l-64-4-56-5-43-5-47-7-36-7-30-7-14-4-19-6-21-8-15-7-16-10-10-9-6-8-3-9v-26l3-27 3-17 7-28 8-24 5-12 11-25 8-16 10-18 4-6 1-3h2l2-5 11-17 18-24 1-2h2l2-4 8-10h2l3-6h2l2-4 9-9 5 3 7 9 9 10 13 13 8 7 10 10 2 1v2h2l10 13 1 5-3 3-7 1h-17l2 6 10 14 7 11 20 30 12 16 2 3v3l-7 4-2 7 3 4-2 6-6 14-4 15-1 9v23l4 20 6 16 8 13 2 5-2 2 1 5 2 2 77 1h27 1l4-2 2-2-1-9 9-14 3-7 1-5 1 2h29v-188l13-11 5-5 4-10 4-14 2-8-8 2-16 8-3 1-1-1v-21l20-30 5-10v-7l-6-9-3-4-4 2-11 13h-1v-135h82l1 13 4 11 5 7v2l4 2 12 8v74l4 52 8 63 7 46 10 57 4 20v10l-4 23v3l2 1v2l6 3v2l4 2 8 6 22-9h2l5-26 3-13 15-24 13-21 14-23 10-17 16-27 16-30 6-10 8-16 8-15 8-17 7-15 11-26 5-12 10-28 7-26 3-8 11-7 7-7 7-14 3-16h92v427h30v-427h17l1 465 29 1v-65l46-23 16-9 19-11 5-4 8-4 11-7 44-29 27-18 13-9 12-8 7-4 18-12 20-12v-17h1l13 102 10 78-12 6-18 6-29 7-6 4-1 2v7l6 7 10 4 15 3h58l18-2 11-4 3-4 1-8-1-12-2-4-6-1v-11l1-5 3-42 3-62 2-98 1-86 3-34 5-36 6-34 10-49 6-27z" fill="#EAEFFD"/>
<path transform="translate(824,578)" d="m0 0h20l14 4 11 6 13 10 14 14 10 13 10 15 10 17 12 23 14 32 12 30 6 18 2 9h2l4 14v3h2l4 13v6h2l2 9 1 1 2 10 5 18 1 3-1 2h2l2 7 3 16 2 7-1 2h2l2 11 3 13 2 7 7 30 1 9-1 2h2l2 9 3 19 3 10v11h2l1 10 1 1 1 9 2 7 4 23-1 5h2l3 17 11 28v9l-6 12h-2l-2 4-10 10-10 7-11 7-15 9h-2l-1-2-1-90-5-5h-299l-4 6-1 84-4-1-15-10-13-11-13-13-8-13-1-10 3-10 6-15 10-23 2-4 1-18 3-23 3-1v-5l-2-3 1-8 1-4-1-4 2-20 1-1 2-19 2-8 7-45 1-4 2-6 1-12h2l1-9 2-15 9-40 8-30 12-39 12-32 9-20 8-16 7-13 10-16 9-12 10-11 12-12 11-8 16-8z" fill="#FDC66F"/>
<path transform="translate(385,1246)" d="m0 0h101v2h151v-2h52l1 1h303l2-1h294v35h-138v466h-29l-1-1v-465h-17v427h-30v-427h-92l-1 13-5 12-6 8-9 8-7 4-9 33-10 28-6 15-8 19-8 16-6 14-10 19-8 15-6 12-12 22-16 28-9 15-10 17-8 13-30 48-7 32-2 7-24 10-12-9v-2l-6-3v-2l-3-1 3-21 1-5v-10l-4-20-11-63-8-54-6-49-4-52v-74l-10-6-5-4-7-11-3-9v-13h-82v137l-8 9-2-2 1-11 6-27v-3l-2-1h-24v-102h-17v155l-5-1-8-6-12-10-5-2v-137h-86l-16-5-6-1h-15l-1 6-22 1-1-1z" fill="#323551"/>
<path transform="translate(1376,1147)" d="m0 0 13 1 28 6 13 3 16 2 25 4 28 3 37 2h38l26-2 11-1 9-2 20-5h4l1 22v58l-1 56-2 47-3 47-9 74-7 53-10 77-8 64-5 39 18 8 23 6 16 4 7 4 2 4v6l-6 7-12 5-16 3h-56l-19-2-10-4-4-5-1-8 1-12 3-5 6 1-3-29-3-46-2-47-2-81-1-103-4-44-8-51-7-35-5-26-2-12-3-12-1-5-2 6-8 37-10 49-7 44-3 24-2 26-1 86-2 98-3 62-3 42-2 16h6l3 5 1 16-3 7-6 4-13 3-12 1h-58l-15-3-10-4-7-8v-7l5-5 6-3 26-6 21-7 8-4-18-140-8-62-6-47-1-13-3-19-2-15-2-24-2-34-2-47-1-55v-59z" fill="#F18161"/>
<path transform="translate(982,1281)" d="m0 0h92v427l-14 2-12 1h-18l-15-1-23-5-16-5-16-7-15-8-10-7-5-3v-2l-4-2-6-4v-2l-5-2-13-12-14-14-6-7v-2h-2l-6-8v-2h-2v-2h-2l-7-9h-2v74l30 1 6 4 4 5 1 3v7l-3 7 5 1 7 6 3 7v9l-4 8-6 5-5 2h-9l-10-5-5-10v-9l4-8-30 1 3 7v10l-5 8-5 4-5 2h-9l-5-2v9l-3 8-7 6-2 1h-10l-5-4v-2l-5-2-7-10-8-14-8-16-4-14-2-12h-2l-2 5-6 9h-2l-2 4-10 10h-2l-1 3-13 10-14 9-9 3h-7l-5-3-4-5-2-6v-8l6-12 9-10 10-9 14-10 20-12 7 1v2l6 3v2l4 2 8 6 22-9h2l5-26 3-13 15-24 13-21 14-23 10-17 16-27 16-30 6-10 8-16 8-15 8-17 7-15 11-26 5-12 10-28 7-26 3-8 11-7 7-7 7-14z" fill="#E2E5FB"/>
<path transform="translate(411,1273)" d="m0 0h13l16 4 6 2 86 1v137l5 1 13 11 8 6 4 1v-155h17v102l3-1h21l3 2-2 13-5 23v5h2l11-13 7-9 3-3 4 2 7 10 1 2v7l-6 12-15 22-4 6v21l19-9 2-1h6l-2 13-6 18-5 6-14 11-1 188h-29l-5 12-8 12 1 9-6 6h-28l-2-1-77-1-3-5 1-4 1-2-4-7-7-12-6-17-3-17v-23l2-13 5-16 6-13-1-4-2-2 3-9 4-2h3l-3-6-10-13-30-45-9-13-1-1v-5l17-1 7-1 2-4-3-6-7-8v-2h-2v-2l-4-2-14-14-8-7-15-15-11-14-4-14-3-20v-14h6l9 6 16 12 11 7 5-1v-8l-5-15-7-17-8-16-10-21-6-17v-10l11-14 5-5 4 2 8 13 11 20 4 6v2l2-1 1-7-1-22-1-4-2-20-20-1v-1h20l1-6z" fill="#FDE0A2"/>
<path transform="translate(1551,664)" d="m0 0 34 6 20 6 16 8 11 8 10 9 11 11 10 13 9 13 12 19 13 23 15 29 2 6-4 10-7 11-2 3h-2l-2 4-10 10-17 13-17 10-8 4-5-8-7-17 8 52v6l-24 14-9 5-28 17-4-2-7-8-3-3-6-43-2-16-3-6-3-2h-9l-76 10-7 3-2 4 1 16 4 31v6l-16 15-4-2-17-12-11-8-15-10-16-10-1-5 11-67v-3l-8 20-8 16-10-2-18-8-14-8-13-12-8-9-5-11-2-10 19-38 13-23 12-19 11-15 11-13 4-5h2v-2l8-7 12-9 16-8 21-6 9-2 5 1 7 9 3 3v2h2v2h2v2l4 2 12 9 13 5 4 1h13l12-4 11-8 10-11 7-11z" fill="#4F6CE2"/>
<path transform="translate(824,578)" d="m0 0h20l14 4 11 6 13 10 14 14 10 13 10 15 10 17 12 23 14 32 12 30 6 18 2 9h2l4 14v3h2l4 13v6h2l2 9 1 1 2 10 5 18 1 3-1 2h2l2 7 3 16 2 7-1 2h2l2 11 3 13 2 7 7 30 1 9-1 2h2l2 9 3 19 3 10v11h2l1 10 1 1 1 9 2 7 4 23v12l-3-4-12-26-12-24-12-21-15-22-9-11-9-10-12-12-13-10-16-9-15-6-17-4-12-3-7-24-8-30v-3l13-7 11-10h2l2-4 6-8 7-14 4-15 2-27 9-3 6-4 4-5 4-10v-15l-4-10-4-6 1 6 4 6 1 3v13l-3 7-4 4h-7l-5-5-2-6v-13l4-8 1-8h-2l-1 4h-4l-8-10-6-10-10-25-6-19-3-11-8 18-7 11-9 10-7 7-15 9-19 7-16 3-10 1h-30l-2 6v5l4 5 2 6v11l-2 6 1 7 11 23 10 15 11 12 10 9 16 8 7 2 5-1 9-3 9 2 3 3-1 6-5 3-10 1-6-3-1-3-9-1-14-6-11-8-10-9-11-14-9-15-9-19v-3h-8l-5-5-2-5v-15l3-6v-3l-4 9-1 4v10l3 10 4 6 2 4 10 4 1 26 4 16 5 12 10 13 7 7 10 7 3 2-2 10-12 46-3 6-21 7-16 8-14 10-4 2v2l-8 7-10 11-13 17-11 17-11 19-14 27-4 8h-1v-19l2-18 3-1v-5l-2-3 1-8 1-4-1-4 2-20 1-1 2-19 2-8 7-45 1-4 2-6 1-12h2l1-9 2-15 9-40 8-30 12-39 12-32 9-20 8-16 7-13 10-16 9-12 10-11 12-12 11-8 16-8z" fill="#F08262"/>
<path transform="translate(692,1061)" d="m0 0h299l6 6 1 92 19-11 2 1-5 2-2 4-9 4-2 2h-3v82l-5 5h-303l-3-4v-91l-5-1-2-1 1-2 6 3v-84l4-6z" fill="#FDFDFC"/>
<path transform="translate(1646,964)" d="m0 0h4l25 134 6 33-1 5-15 11-25 12-20 5-9 2-19 2-18 1h-38l-37-2-43-5-14-3-12-1-13-3-28-6-8-1-9-3-18-4-2-2 24-168 1-3 13 2 36 6 19 3 14 9 12 5 5 39 3 9 4 2 14-1 69-9 7-2 3-4v-12l-5-41 5-4 32-2z" fill="#506DE3"/>
<path transform="translate(1492,355)" d="m0 0h13l13 3 11 5v2l5 2 16 16 7 9 14 4 8 6 6 9 3 10 3 32v12l5 2 7 8 3 8 1 13-3 10-3 6-8 7-6 2-4 16-2 15-5 16-9 15-11 12-10 7-9 5 1 8 12 44 2 9-8 12-11 12-10 7-12 4h-13l-10-3-10-5-10-8-3-2v-2h-2v-2h-2l-9-11-1-1 1-11 13-50 1-5-5-2-10-8-10-11-8-14-5-15-2-16-5-17-9-9-4-9-1-6v-8l2-9 4-7 3-3 3-31 5-25 5-13 6-11 9-11 9-8 14-8 13-5z" fill="#F1B496"/>
<path transform="translate(1712,818)" d="m0 0 2 3 12 22 12 26 11 27 5 15-1 10-5 8-7 7-13 8-14 6-28 8-21 4-28 4-32 3-29 2-4 3 5 41v12l-4 5-7 2-76 10h-7l-5-3-3-9-4-30v-9l-5-1-14-7-7-5-60-10-6-2-11-2-24-6-25-9-16-8-10-6-10-9-5-8-1-3v-8l7-20 10-24 7-15 8-16 3-3 3 1 7 9 9 9 10 7 17 9 17 6h3l8-17 8-21h1l-1 11-10 62v5l5 2 11 7 16 11 10 7 18 13h4l8-8 6-5-1-14-4-31v-8l3-5 7-3 76-10h9l5 4 2 5 7 54 1 7 4 2 1 3 4 2 2 3 5-2 22-13 9-6 11-6 15-8-1-13-7-43v-5l2 3 7 17 4 7 12-6 16-10 17-14 8-8 1-2h2l2-4 7-11z" fill="#F2B496"/>
<path transform="translate(864,1280)" d="m0 0h92v32l-3 17-6 23-10 30-6 16-7 15-8 19-6 12-8 17-10 19-9 17-12 22-16 28-9 15-10 17-8 13-30 48-7 32-2 7-24 10-12-9v-2l-6-3v-2l-3-1 3-21 14-70 10-43 6-26 8-31 8-29 11-36 12-35 12-31v-21l10 1 2-6 10-19 9-15 5-7z" fill="#1E2E6D"/>
<path transform="translate(880,632)" d="m0 0 2 2 7 24 8 22 8 16 10 13 3-1 1-3h2v8l-4 8v13l4 9 2 1h7l4-4 2-6v-13l-4-8-2-3v-5l5 5 4 8 1 4v15l-5 12-8 7-4 2-6 1-2 27-4 15-8 16-8 10-8 7-10 7-6 3h-2l8 29 7 26v2h2l7 27 3 21v16l-3 12-4 6-5 4-3 1h-12l-13-4-9-5-11-6-6 1-14 8-14 5h-16l-6-3-4-5-3-9-1-10 1-16 5-24 6-20 8-30 7-26v-3l-9-6-10-9-9-11-6-12-4-13-1-6v-26l-7-2-5-5-4-5-3-7-1-5v-10l4-12 3-3v5l-3 6v15l4 8 10 2 7 16 8 15 10 14 11 12 14 10 14 6 9 2 4 4 9 1 8-3 1-6-4-3-7-1-9 3-5 1-12-4-12-7-10-9-8-8-10-14-13-25-2-5 1-7 1-4v-11l-3-8-3-3 1-9 2-3h30l21-3 17-5 16-8 9-7 10-10 9-14 7-16z" fill="#F2B395"/>
<path transform="translate(688,98)" d="m0 0h11l8 2 6 3 8 6 7 3 6 1h10l16-3 21-7 10-2 22-1 19 2 12 3 9 4 8 6 4 9 4 7 8 5 16 5 16 6 4 4-2 6-15 12-2 7 3 6 13 8 10 7 1 7-7 6-16 8-24 9-40 13-18 6-24 6-8 1h-24l-16-5-11-6-8-6v-2l-5-2-6-5-12-7-14-5-13-2-31-2-12-2-12-5-4-4v-5l8-11h2l2-5 1-2v-9l-3-6-7-10-1-8 5-5 9-4 17-5 12-6 8-9 7-10 7-5z" fill="#FEFEFD"/>
<path transform="translate(1741,321)" d="m0 0h19l18 3 14 4 18 8 11 5 15 5 17 3 12 1 44 2 16 3 8 4-2 4-13 11-1 6 3 5 10 9 1 4-6 4-34 7-14 5-11 9-7 5-11 3h-12l-13-2-15-6-16-3-19 1-22 4-15 3-13 1h-35l-24-3-16-5-6-5-3-5v-2l-4-2-13-4-26-5-10-3-2-3 7-5 14-7 1-5-4-4-20-8-6-3-2-3 8-5 24-7 48-10 40-8 17-3z" fill="#FEFEFD"/>
<path transform="translate(208,916)" d="m0 0h16l18 2 18 5 18 8 16 7 21 5 19 2 42 2 16 3 9 4-1 4-11 8-4 4v6l6 7 7 6v5l-6 3-24 5-16 4-11 6-11 9-6 3-10 2h-10l-13-2-14-6-9-2-9-1h-9l-22 3-25 5-12 1h-33l-14-1-19-4-12-5-4-5-5-6-9-4-36-7-7-3 2-4 19-10 1-4-4-5-18-7-8-4-2-3 6-4 11-4 24-6 34-7 56-11 23-3z" fill="#FEFEFD"/>
<path transform="translate(690,1280)" d="m0 0 175 1-2 5-9 14-8 14-8 16-10-1 1 21-16 42-13 40-7 24-7 25-11 43-8 36-9 40-8 43h-1l-9-49-10-60-8-59-3-25-4-52v-74l-10-6-5-4-7-11-3-9z" fill="#15224F"/>
<path transform="translate(427,1369)" d="m0 0h2l2 11 7 50 8 46 9 43 8 32 9 30 6 16v2h51l2-6 10-21 11-28 14-41 14-49 2-6h3l-2 10-10 36-15 46-13 33-12 26h20l2-4 5-5h2v9l10 2 5 5-1 5-4 3-1 3h2l5 11 1-59 12-12v-2l-12-3v-12l9-7 19-13h1v188h-29l-5 12-8 12 1 9-6 6h-28l-2-1-77-1-3-5 1-4 1-2-4-7-7-12-6-17-3-17v-23l2-13 5-16 6-13-1-4-2-2 3-9 5-2h23l-12-38-9-35-9-41-8-45-7-47-2-15z" fill="#F08060"/>
<path transform="translate(202,410)" d="m0 0 30 2 241 21 10 1 3 2-1 7-4 2v2l-10 8-4 2v2l-11 9-4 4h-2v2l-11 9-9 8h-2v2l-11 9-4 2v2l-11 9-10 9-8 7-6 5h-2l-1 3-11 9-10 9h-2l-1 3-11 9-8 7h-5l-10-12v-2h-2l-6-8v-2h-2l-7-9-20-25-7 1-45 16-5-1-1-1v-8l8-58v-11l-11-13-8-10-11-14-1-1v-6z" fill="#E3E6FC"/>
<path transform="translate(1739,533)" d="m0 0 18 1 15 4 16 8 8 6 10 9 7 10 8 16 3 11 1 7v22l-4 16-6 13-7 10-11 12-5 4-12 7-12 6-14 9-19 12-20 12h-3l2-36-14-7-9-7-8-7-10-14-7-14-4-19v-18l2-12 6-15 7-12 8-10 11-9 14-8 15-5z" fill="#FDC670"/>
<path transform="translate(1020,386)" d="m0 0h25l16 4 14 7 11 8 5 6 5 5 6 9 6 12 4 13 1 10v11l-2 14-4 12-7 13-8 10-8 8-14 9-11 5-13 3-6 1h-16l-18-4-16-8-8-6-4-4-5-4-9-12-8-17-3-13v-24l4-16 8-16 4-6h2l2-4 4-5 13-10 15-7z" fill="#F18262"/>
<path transform="translate(562,1281)" d="m0 0h17v102l3-1h21l3 2-2 13-5 23v5h2l11-13 7-9 3-3 4 2 7 10 1 2v7l-6 12-15 22-4 6v21l19-9 2-1h6l-2 13-6 18-5 6-14 11-18 12-11 8-1 12 12 2v4l-11 11-1 63-2-4-4-9v-2h-2l1-4 4-4-1-5-5-3-8-2v-9l-8 7-1 2 2 1h-23l4-10 9-19 14-37 14-43 12-43h-3l-4 17-9 31-14 43-11 28-9 20-5 10v3h-21l-3-19-1-31-1-10 8 1 8 2 9 1-1-7-8-12-6-8-10-15-4-8 1-9 3-15 4-1 24 8-1-13-11-13-4-7 1-6 6-11 6-8 2-2 6 1 13 11 8 6 4 1z" fill="#54D8C8"/>
<path transform="translate(966,760)" d="m0 0h4l2 9h2l4 14v3h2l4 13v6h2l2 9 1 1 2 10 5 18 1 3-1 2h2l2 7 3 16 2 7-1 2h2l2 11 3 13 2 7 7 30 1 9-1 2h2l2 9 3 19 3 10v11h2l1 10 1 1 1 9 2 7 4 23v12l-3-4-12-26-12-24-12-21-15-22-9-11-9-10-12-12-13-10-16-9-15-6-17-4-12-3-7-24-8-30v-3l13-7 11-10h2l2-4 6-8 7-14 4-15 1-10 21-7 27-8z" fill="#EB6F4C"/>
<path transform="translate(860,1536)" d="m0 0h1v145l30 1 6 4 4 5 1 3v7l-3 7 5 1 7 6 3 7v9l-4 8-6 5-5 2h-9l-10-5-5-10v-9l4-8-30 1 3 7v10l-5 8-5 4-5 2h-9l-5-2v9l-3 8-7 6-2 1h-10l-5-4v-2l-5-2-7-10-8-14-8-16-4-14-2-12h-2l-2 5-6 9h-2l-2 4-10 10h-2l-1 3-13 10-14 9-9 3h-7l-5-3-4-5-2-6v-8l6-12 9-10 10-9 14-10 20-12 7 1v2l6 3v2l4 2 8 6 22-9h2l5-26 3-13 15-24 13-21 14-23 10-17z" fill="#B2BFFB"/>
<path transform="translate(1312,831)" d="m0 0 3 1 7 9 9 9 10 7 17 9 17 6h3l8-17 8-21h1l-1 11-10 62v5l5 2 11 7 16 11 10 7 18 13h4l8-8 7-5 2 6v4l19-5 6-1h10l2 1-1 3-15 5-10 2v2h38l3 2v3l-8 3-20 4-5 2v2l17 3 18 3 1 4-4 2-6 1-28 1 3 3 13 7v3h-10l-15-4-12-5-13-8-3-2-60-10-6-2-11-2-24-6-25-9-16-8-10-6-10-9-5-8-1-3v-8l7-20 10-24 7-15 8-16z" fill="#F1B496"/>
<path transform="translate(831,593)" d="m0 0h12l14 3 12 5 10 6 11 9 10 11 9 14 8 16 5 13 6 23 3 17 5 8 1 3v13l-3 7-4 4h-7l-5-5-2-6v-13l4-8 1-8h-2l-1 4h-4l-8-10-6-10-10-25-6-19-3-11-8 18-7 11-9 10-7 7-15 9-19 7-16 3-10 1h-30l-2 6v5l4 5 2 6v11l-2 6 1 7 11 23 10 15 11 12 10 9 16 8 7 2 5-1 9-3 9 2 3 3-1 6-5 3-10 1-6-3-1-3-9-1-14-6-11-8-10-9-11-14-9-15-9-19v-3h-8l-5-5-2-5v-15l4-9 5-24 9-27 9-19 9-14 9-11 11-10 14-8 12-4z" fill="#F08060"/>
<path transform="translate(770,819)" d="m0 0h5l11 12 11 8 3 2-2 10-12 46-3 6-21 7-16 8-14 10-4 2v2l-8 7-10 11-13 17-11 17-11 19-14 27-4 8h-1v-19l2-18 3-1v-5l-2-3 1-8 1-4-1-4 2-20 1-1 2-19 2-8 7-45 1-4 2-6 1-12h2l1-9 1-6 29-9 43-13z" fill="#EB6F4C"/>
<path transform="translate(1492,355)" d="m0 0h13l13 3 11 5v2l5 2 16 16 7 9 14 4 8 6 6 9 3 10 2 23v20l-7-1-1 4-4-2-6-7v-2h-2l-6-11-4-8-8-19-4-11v-2l-5 2v2l-10 8-9 8h-2v2l-7 5-5 5-14 12-8 6h-2v2l-7 4-1 5-10 7-4 3h-6l-1-3-11 3h-11l-7-4v-2h-2l-2-5-7 2 1-21 4-24 4-15 8-16 9-12 10-9 14-8 13-5z" fill="#1E2E6D"/>
<path transform="translate(1075,1281)" d="m0 0h27l1 1v426h-28z" fill="#0F1635"/>
<path transform="translate(672,401)" d="m0 0 18 1 13 5 11 7 8 8 7 11 5 14v22l-5 15-7 11-8 8-10 7-11 4-9 2h-12l-13-3-8-3-11-7-7-7-7-11-4-10-2-8v-19l4-12 4-8 9-11 3-1v-2l15-9 10-3z" fill="#FDC671"/>
<path transform="translate(1510,1214)" d="m0 0 2 2 5 25 5 23 7 38 6 35 3 20 1 11 1 32 1 5v30l-3 1v2l-8 5h-2v2l-6 4-11 8-8 6-21 14-3 1v-72l1-8 1-21 1-4 1-21 7-44 12-59 6-27z" fill="#E3E6FC"/>
<path transform="translate(608,1281)" d="m0 0h82l1 13 4 11 5 7v2l4 2 12 8v86l-3-1v-2l-4-2-15-10-6-3v-2l-5-2-22-11-19-7-16-4-16-3-1 53h-1z" fill="#E2E5FB"/>
<path transform="translate(1909,998)" d="m0 0 4 1 1 4-9 16-13 24-6 10-7 14-6 10-6 11-9 17-4 6-5-1-35-21-4 1-11 9-12 10-4-1-4-15-6-27-3-3-25-15 1-5 9-3 25-7 38-10 50-14z" fill="#E3E6FC"/>
<path transform="translate(605,1084)" d="m0 0 5 1 11 5-8 18-6 13v103h-2l-1 4-11 3-10 1h-29l-16-2-7-3-1-3v-100l4-4 9-2 9-1h38l8-17z" fill="#4F6CE2"/>
<path transform="translate(1151,549)" d="m0 0 9 1 46 11 54 13 58 14 2 2v3l-16 10-9 6-3 1v5h-2l-1 5-1 3v16l-2 3h-2l-1 8-1 5-7-6-8-7-7-9-2-1v2l-7 3-14 9-12 8-9 5-4-1-18-30-29-49-11-19-4-7z" fill="#FDFDFD"/>
<path transform="translate(475,439)" d="m0 0h5l-3 2-36 12-49 16-72 24-43 14-3 2 5 7-9 4-42 15-5-1-1-1v-8l9-64 1-4 106-8z" fill="#B2BFFB"/>
<path transform="translate(557,719)" d="m0 0h17l10 3 11 6v2l4 2 6 7 6 12 2 9v11l-4 13-8 16-8 14-11 16-8 11-7 9-3 1-15-20-7-10-1-4-5-5-10-18-6-13-2-7v-17l3-9 5-10 10-10 10-6z" fill="#F18363"/>
<path transform="translate(983,431)" d="m0 0h103l3 4v65l-1 4h-105l-4-1v-69h2v-2z" fill="#FDFDFB"/>
<path transform="translate(1543,868)" d="m0 0h9l5 4 2 5 7 54v10l-9-3-16-6-14-1 1 4 19 10-3 2-35 1-4 1 1 3 18 4 12 3 2 4-3 2-30 4h-3l1 4 7 2v1h-9l-17-3v-4l9-3 20-4 4-1-1-3-2-1-38-1v-2l23-7 3-3h-12l-18 4-7 1-3-16-5-39v-8l3-5 7-3z" fill="#FCFCFC"/>
<path transform="translate(1142,1020)" d="m0 0h12l10 4 1 2v11l-1 9v10l1 3 6-1 12-8 5 1 6 14v5l-11 12-6 7v1l10-1 12-1-1 4-4 7 1 4 3 4-2 5-2 2-6-1-2 10-7 9v3h13l1 1-1 12-4-1 1 7v14l-3 8h-22l-10-13-10-16-6-8v-3l11-1v-4l-7-8-20-20-4-8-2-13v-6l6 2 12 9 5 2-2-10-8-18-7-16v-8l7-8h2l10 18 2 2v-12l-1-8z" fill="#4E6BDF"/>
<path transform="translate(1104,1281)" d="m0 0h17v413l-7 3-10 2z" fill="#E3E6FC"/>
<path transform="translate(449,1281)" d="m0 0h83v136l-4 3-1-3h-13l-13 3-7 1h-12l-1-4 7-9 24-24 5-8-1-6-5-14-8-16-2-2-7 1-12 7-9 6-9 5-6 1-4-6-1-8 1-25 1-3 1-24-2-7z" fill="#E3E6FC"/>
<path transform="translate(740,1672)" d="m0 0 7 1v2l6 3v2l4 2 8 6 23-9 7 10 14 21 5 8 5 11 3 8 1 7v9l-3 8-7 6-2 1h-10l-5-4v-2l-5-2-7-10-8-14-8-16-4-14-2-12h-2l-2 5-6 9h-2l-2 4-10 10h-2l-1 3-13 10-14 9-9 3h-7l-5-3-4-5-2-6v-8l6-12 9-10 10-9 14-10 15-9z" fill="#F18565"/>
<path transform="translate(1570,974)" d="m0 0 2 2 5 39v12l-4 5-7 2-76 10h-7l-5-3-3-9-4-30v-9l12 4 15 2-1-3-15-8v-3l28-1 9-2v-3l-7-2v-1h28v3l-15 8-1 2h9l15-4 18-8z" fill="#FCFCFC"/>
<path transform="translate(860,1536)" d="m0 0h1v145l30 1 6 4 4 5 1 3v7l-3 7 5 1 7 6 3 7v9l-4 8-6 5-5 2h-9l-10-5-5-10v-9l4-8-30 1 3 7v10l-5 8-5 4-5 2h-9l-6-2-2-9-5-13-8-14-13-19-4-5v-2l68-1v-73l1-9v-55l-3 1 2-5z" fill="#AFB8E7"/>
<path transform="translate(831,593)" d="m0 0h12l14 3 12 5 10 6 11 9 10 11 9 14 8 16 5 13 6 23 3 17 5 8 1 3v13l-3 7-4 4h-7l-5-5-2-6v-13l4-8v-8l-5-23-6-18-9-19-9-13-9-10-12-9-15-7-13-3h-10l-12 3-12 6-10 8-9 10-9 14-10 21-7 21-5 20v5l4 5 2 6v11l-2 6 1 7 11 23 10 15 11 12 10 9 16 8 7 2 5-1 9-3 9 2 3 3-1 6-5 3-10 1-6-3-1-3-9-1-14-6-11-8-10-9-11-14-9-15-9-19v-3h-8l-5-5-2-5v-15l4-9 5-24 9-27 9-19 9-14 9-11 11-10 14-8 12-4z" fill="#0F1635"/>
<path transform="translate(607,1520)" d="m0 0h1v188h-29l2-9 3-15 1-16-2-20-4-15v-64l12-12v-2l-12-3v-12l9-7z" fill="#0F1635"/>
<path transform="translate(1203,1169)" d="m0 0 1 3-2 4h16l4 3 1 9 4 12v19l-4 13-2 4-3 3v5l-2 3h-52l-1-5-7-14-2-7v-23l6-16-2-1 4-5h27l11-1z" fill="#F18161"/>
<path transform="translate(1647,1168)" d="m0 0 4 2 11 17 11 21 5 15 3 17 1 16-2 17-2 8 8-4h5l-1 4-10 5-1 2h-4l-1 5-1 3 3 1 4 13-1 3-4-1-3-11h-2l-2 5-7 12-8 11-8 10h-2v-28l1-3 2-139z" fill="#E3E6FC"/>
<path transform="translate(1221,1072)" d="m0 0h15v9l-2 10 3-1 4-6 3-4h2l4 6v6l-9 14-6 9v5l9-3 1-1h5l1 4-3 10-9 8-11 7h-2v2l-4 3v2l8 3-6 8-6 7-4 4v2h-12v-3l-2 3h-11v-27h7l4 1-3-7-5-7h-13l-1-4 7-9 3-10h6l3-4-2-4-2-3 1-4 2-4 3-2 2-4 7 4 6 5h2l2-10 1-13z" fill="#F8DCA0"/>
<path transform="translate(1422,1694)" d="m0 0h6l5 8 4 6 4 3h15l13-5h5l3 5 1 16-3 7-6 4-13 3-12 1h-58l-15-3-10-4-7-8v-7l5-5 6-3 26-6 21-7z" fill="#101736"/>
<path transform="translate(1592,1694)" d="m0 0h6l15 7 15 5 29 7 7 4 2 4v6l-6 7-12 5-16 3h-56l-19-2-10-4-4-5-1-8 1-12 3-5 6 1 12 4h15l6-5 6-11z" fill="#101636"/>
<path transform="translate(204,912)" d="m0 0h24l20 3 16 5 14 6 10 5 18 6 18 3 15 1 29 1 18 2 16 5 3 3v6l-5 5-10 8-1 3 5 6 7 6 2 3-1 7-3 3-13 4-22 4-13 4-9 6-10 8-10 4-5 1h-17l-13-3-11-5-9-2h-26l-26 5-11 2-12 1h-37l-19-2-19-5-8-5-5-8-8-4-23-5-18-4-6-3-1-7 6-5 14-7h2l-4-4-23-9-5-5v-5l6-5 14-5 32-8 76-15 27-4zm4 4-28 3-38 7-50 10-25 6-16 5-8 4v3l6 4 19 7 5 4 1 4-4 4-17 9-1 3 11 4 32 6 10 5 8 10 12 5 19 4 14 1h33l17-2 32-6 10-1h9l14 2 22 8 9 1h10l13-3 8-6 9-7 11-5 18-4 19-4 6-3v-5l-12-11-1-2v-6l9-8 6-4 1-4-9-4-16-3-42-2-19-2-21-5-16-7-18-8-18-5-18-2z" fill="#E5E9FC"/>
<path transform="translate(1736,317)" d="m0 0h24l20 3 19 6 15 7 11 5 13 4 18 3 13 1 29 1 14 1 17 4 7 4 1 1v6l-4 5-10 7-2 4 4 5 8 7 2 3v6l-6 5-22 5-19 4-12 6-10 9-11 5-7 1h-16l-16-4-8-4-8-2h-25l-23 4-16 3-10 1h-40l-22-3-15-4-9-6-7-9-12-4-27-5-10-3-4-4v-5l6-5 14-7v-3l-18-7-10-5-2-3 1-7 10-5 19-6 37-8 61-12 28-4zm5 4-30 3-32 6-60 12-24 6-15 5-6 4 5 5 21 8 4 2 2 5-1 3-19 10-2 3 4 3 18 4 24 5 6 3 3 1 2 5 4 5 9 4 16 4 18 2h35l18-2 25-5 18-2 16 1 14 4 9 4 13 2h12l11-3 8-6 10-8 14-5 34-7 6-4-2-5-11-10-1-7 5-6 9-7 2-4-8-4-16-3-44-2-19-2-17-4-18-7-14-7-14-5-15-3-8-1z" fill="#E6EAFC"/>
<path transform="translate(688,94)" d="m0 0h13l10 3 12 8 8 3 5 1h8l15-3 21-7 10-2 10-1h18l16 2 12 3 12 6 7 6 6 14 9 6 27 8 8 5 2 3v6l-3 5h-2v2l-12 9-2 4 5 6 14 8 6 5 2 3v9l-5 5-10 6-15 7-31 11-44 14-14 4-20 4h-26l-15-4-15-8-14-11-14-9-12-5-17-3-31-2-15-3-12-6-3-4v-8l4-7 8-9 1-2v-7l-9-14-2-3v-11l7-6 13-5 16-5 10-6 14-18 7-5zm0 4-10 5-6 7-7 10-7 6-15 6-16 5-7 4-2 3 1 8 7 10 3 6v9l-3 5v2h-2l-8 11v5l6 5 10 4 12 2 31 2 16 3 15 6 11 7 6 5h2v2l11 8 11 5 13 4h24l17-3 31-9 36-12 20-7 17-7 12-7 4-4-1-7-10-7-10-6-5-5-1-4 3-7 13-10 3-5-1-4-10-5-22-7-10-5-4-5-4-10-4-5-9-5-12-4-11-2-20-1-15 1-16 4-18 6-13 2h-10l-9-2-10-6-5-4-5-2-6-1z" fill="#E6EAFC"/>
<path transform="translate(427,1369)" d="m0 0h2l2 11 7 50 8 46 9 43 8 32 9 30 6 16v2h51l2-6 10-21 11-28 14-41 14-49 2-6h3l-2 10-10 36-15 46-13 33-12 26h20l2-4 5-5h2v9l10 2 5 5-1 5-6 5-6 1h-108l-10-3-3-4 3-9 5-2h23l-12-38-9-35-9-41-8-45-7-47-2-15z" fill="#EA6F4C"/>
<path transform="translate(1907 1e3)" d="m0 0 2 1-11 9-14 11-11 9-9 7-10 8-16 13-13 10-16 13v2l3 3-14 12-11 9-4-1-4-15-6-27 1-3 20-9 14-7 16-7 35-16 29-13 11-5z" fill="#B2BFFB"/>
<path transform="translate(579,1281)" d="m0 0h29v137l-8 9-2-2 1-11 6-27v-3l-2-1h-24z" fill="#0F1635"/>
<path transform="translate(821,1133)" d="m0 0h12l7 2-2 7 1 10 5 6v2l10 3 3 1-1 9-4 8-7 7-8 4-3 1h-14l-7-3-6-4-7-8-3-8v-14l4-9 7-8 9-5z" fill="#AFB8E7"/>
<path transform="translate(784,901)" d="m0 0 2 2 7 21 8 16 7 11 8 9 11 8 7 3-1 2-11 6-14 6-6 2h-16l-6-3-4-5-3-9-1-10 1-16 5-24 5-16z" fill="#FEE2A3"/>
<path transform="translate(885,902)" d="m0 0 2 4 6 22 3 21v16l-3 12-4 6-5 4-3 1h-12l-13-4-9-5-10-6-1-2 13-7 12-12 9-14 7-15 7-20z" fill="#FEE2A3"/>
<path transform="translate(496,1235)" d="m0 0h150v8h-9v2h51v1h-51v2h-151v-2h-100v-1h100v-2h10z" fill="#AEB7E6"/>
<path transform="translate(562,1281)" d="m0 0h17v102l-8 3-2 5-1 32-2 9-4 4z" fill="#DEE2FA"/>
<path transform="translate(506,1343)" d="m0 0h2l4 8 20 2v64l-4 3-1-3h-13l-13 3-7 1h-12l-1-4 7-9 24-24 5-8-1-6-5-14-5-11z" fill="#ECF1FD"/>
<path transform="translate(559,741)" d="m0 0h12l10 5 6 8 1 3v14l-4 8-9 7-3 1h-14l-8-5-6-7-2-6v-10l3-7 4-6z" fill="#FEFDFC"/>
<path transform="translate(459,1731)" d="m0 0h101l5 3 2 3-1 5-5 5h-28l-2-1-77-1-3-5 1-4 3-4z" fill="#EB6F4C"/>
<path transform="translate(677,1281)" d="m0 0h13l1 13 4 11 5 7v2l4 2 12 8-1 55h-1v-31l-9-2-12-6-9-8-6-9-4-9-1-4v-19l3-9z" fill="#B1BEFB"/>
<path transform="translate(745,1673)" d="m0 0h2v2l6 3v2l4 2 6 5-1 2-2-1-2 5-7 8h-2v2l-8 7-11 9-10 6-5 2h-8l-5-5v-8l8-12h2l2-4 4-4h2l1-3h2v-2l8-6 10-7z" fill="#F2B395"/>
<path transform="translate(782,1681)" d="m0 0h3l10 16 8 18 4 12v12l-2 4-2 1h-8l-8-6-9-14-8-17-6-18 11-5z" fill="#F2B395"/>
<path transform="translate(982,1281)" d="m0 0h10l3 7 1 5v15l-4 13-6 9-10 10-12 6-8 2h-8l2-10 3-12 12-8 7-7 7-14z" fill="#B1BEFA"/>
<path transform="translate(684,424)" d="m0 0 10 2 6 6v6l-6 9-7 2-2-2-7 1-3 3h-2l-2 4-3 8v11l7 3 1 7-4 8-4 2h-7l-5-3-5-8v-8l3-12 8-16 7-10 8-9z" fill="#FEFEFD"/>
<path transform="translate(204,912)" d="m0 0h24l20 3 16 5 14 6 10 5 18 6 18 3 36 2 7 1v3h-33l-19-2-21-5-16-7-18-8-18-5-18-2h-16l-28 3-38 7-50 10-4 1h-10l1-3 16-4 71-14 27-4z" fill="#E4E8FC"/>
<path transform="translate(851,1125)" d="m0 0h11l5 2v2l4 1 4 8 1 3v8l-3 8-3 3h-3l-1 2-6 2-9-1-7-3-6-8-1-10 4-9 5-6z" fill="#E3E6FB"/>
<path transform="translate(360,942)" d="m0 0 18 1 16 3 9 4 2 2v6l-5 5-10 8-1 3 5 6 7 6 2 3-1 7-3 3-13 4-22 4-13 4-9 6-10 8-10 4-5 1h-17l-13-3-11-5-9-2-19-1v-1h8v-3h-6v-1h9l14 2 22 8 9 1h10l13-3 8-6 9-7 11-5 18-4 19-4 6-2-2-6-11-10-1-2v-6l7-7 7-5h2v-4l-11-4-13-2-16-1v-1l7-1v-1l-7-1z" fill="#E6EAFC"/>
<path transform="translate(482,1225)" d="m0 0h50v2l12 3 10 1h29l15-2 8-2v-2h26v10h-142l-8-1z" fill="#FBFBFC"/>
<path transform="translate(1431,563)" d="m0 0 2 3 7 13 9 11 9 8 8 5-1 9-13 50h-1l1-10 2-10-6-13-7-21-4-19-3-15-3-7z" fill="#FDFDFD"/>
<path transform="translate(1632,852)" d="m0 0 2 3 7 17 4 7 12-6h3l12 21-2 4-22 11-7 4-9-56z" fill="#FBFBFC"/>
<path transform="translate(1394,834)" d="m0 0h1l-1 11-10 62-1 3-5-2-16-9-4-3 2-6 6-10 4-7v-1h8l8-17z" fill="#E0E4FB"/>
<path transform="translate(1637,334)" d="m0 0h5l6 2-4 2-38 8-24 7-7 4 4 4 21 8 5 3 2 5-2 4-19 10v3l14 4 27 5 9 4 5 5 4 6 2 2h-2l-1 3-6-5-4-6-9-4-21-4-17-4-5-3-2-2v-5l6-5 14-7v-3l-18-7-10-5-2-3 1-7 10-5 19-6z" fill="#E7EBFD"/>
<path transform="translate(985,440)" d="m0 0 6 1 42 28 4-1 17-11 10-7 12-8 5-2 2 1-2 4-10 7-11 7-10 7h-2l3 3 11 7 18 12 3 3v3l-5-1-30-20-5-2-6 4h-5l-6-4-5 1-11 8-21 14h-4v-4l10-7 23-15h2v-2l-5-2-22-15-8-5z" fill="#F29572"/>
<path transform="translate(981,1280)" d="m0 0h1v8l-3 12-6 11-9 9-8 5-3-1 2-12v-31z" fill="#15224F"/>
<path transform="translate(1542,542)" d="m0 0h1v7l-3 12-6 9-5 4-9 2-11-4-10-6-6-5v-1l20-4 13-5z" fill="#FEFEFD"/>
<path transform="translate(875,780)" d="m0 0 2 4-5 17-5 8-6 3-12 1-5-1-4-4-3-1v-2l-5-2-4-5 9-2 17-5 16-8z" fill="#EB6F4C"/>
<path transform="translate(1599,1686)" d="m0 0h1v8l-2 1h-6l-7 12-6 5h-15l-12-4-1-17 1 4 14-3z" fill="#F1B395"/>
<path transform="translate(1420,1686)" d="m0 0 44 8 4 1 1 12-13 5h-15l-7-6-6-11h-7l-1-1z" fill="#F1B396"/>
<path transform="translate(894,1711)" d="m0 0 7 1 7 6 2 6-1 9-6 7-5 2h-8l-7-4-4-8v-7l3-6 3-3z" fill="#EAEFFD"/>
<path transform="translate(605,1084)" d="m0 0 5 1 11 5-16 36-16 3h-4l1-5 2-6 3-3 8-18 5-10z" fill="#101838"/>
<path transform="translate(562,1356)" d="m0 0 14 1 2 1v25l-7 3-2 5-1 32-2 9-4 4z" fill="#E8EDFD"/>
<path transform="translate(1784,419)" d="m0 0 16 1v4l-25 1-23 4-16 3-10 1h-40l-22-3-15-4-4-2v-4l9 2 16 4 18 2h35l18-2 25-5z" fill="#E4E8FC"/>
<path transform="translate(1930,389)" d="m0 0 5 5v6l-6 5-22 5-19 4-12 6-10 9-11 5-7 1h-16l-16-4-8-4-8-2v-4l8 1 15 6 13 2h12l11-3 8-6 10-8 14-5 34-7 5-3-2-5v-3z" fill="#E4E7FC"/>
<path transform="translate(821,1716)" d="m0 0 5 1h14l4-1 4 6v8l-4 8-8 4h-7l-7-3-5-13 1-6z" fill="#EAEFFD"/>
<path transform="translate(427,1369)" d="m0 0h2l2 11 7 50 8 46 9 43 8 32 9 30 5 14v3h-3l-10-30-9-33-10-45-8-44-7-45-3-23z" fill="#131A38"/>
<path transform="translate(805,1628)" d="m0 0h1v54h-17l-1-3 4-16 5-23 7-11z" fill="#E6EBFC"/>
<path transform="translate(880,224)" d="m0 0h5l-1 4-36 12-37 12-25 5h-26l-5-1 1-3 28-1 17-3 31-9 36-12z" fill="#E6EAFC"/>
<path transform="translate(1203,1169)" d="m0 0 1 3-2 4h16l4 3-1 4-3 2h-55l-5-4 4-5h27l11-1z" fill="#E76D4C"/>
<path transform="translate(582,1448)" d="m0 0h3l-2 10-10 36-15 46-13 33-12 25-4-1 12-25 11-28 14-41 14-49z" fill="#151C3C"/>
<path transform="translate(577,1571)" d="m0 0h2v61l-2-4-4-9v-2h-2l1-4 4-4-1-5-5-3-8-2v-11l13-14z" fill="#EBEFFD"/>
<path transform="translate(1744,604)" d="m0 0 8 1 5 5 1 2v8l-4 6-4 2h-7l-5-3-3-4-1-7 3-6z" fill="#FEFEFD"/>
<path transform="translate(1702,604)" d="m0 0 8 1 5 3 2 5v7l-2 4-6 4h-8l-6-5-2-4 1-8 5-5z" fill="#FEFEFD"/>
<path transform="translate(1785,604)" d="m0 0 7 1 5 3 2 4v8l-4 6-3 2h-9l-6-5-1-2v-10l5-5z" fill="#FEFEFD"/>
<path transform="translate(500,1485)" d="m0 0h1v9l5 10 8 11-1 2-2-2-8 1h-16l-3-2v-6l9-12 4-5h2z" fill="#ECF0FD"/>
<path transform="translate(795,1643)" d="m0 0h1l-1 10-5 24-3 3-22 9-3-3 5-1 22-33 4-7h2z" fill="#16224D"/>
<path transform="translate(240,1015)" d="m0 0h16v3l-32 5-20 4-12 1h-37l-4-2v-2l40-1 17-2z" fill="#E3E7FC"/>
<path transform="translate(1514,955)" d="m0 0 10 1 12 3 2 4-3 2-30 4h-3l1 4 7 2v1h-9l-17-3v-4l9-3 20-4 4-1-1-3-2-1z" fill="#FEFEFD"/>
<path transform="translate(1430,1158)" d="m0 0 5 1-6 17-8 14-11 12-8 7-10 6-6 2-1-5 11-6 10-8 10-11 7-12z" fill="#EB6F4C"/>
<path transform="translate(1166,1239)" d="m0 0 50 1 2 4-2 3h-52l-1-5z" fill="#E3785F"/>
<path transform="translate(820,1713)" d="m0 0 28 1 4 8v10l-5 8-5 4-5 2h-9l-6-2v-5l7 2h7l6-3h2l2-5 1-3v-8l-3-5-4 1h-14l-5-1-4 8-3-4-3-7z" fill="#AFB8E8"/>
<path transform="translate(760,1694)" d="m0 0h2l4 14v5l-6 3-3 5-1 7 3 8 5 4 3 1h7l5-1 1 4-4 2h-10l-8-4-5-6-2-7 1-9 4-7 3-4-3-5 1-5z" fill="#AFB8E7"/>
<path transform="translate(1589,1168)" d="m0 0h5l8 16 8 10 8 8 13 8 4 2-1 4-2 1-13-7-12-11-8-9-8-14-2-5z" fill="#EB6F4C"/>
<path transform="translate(693,216)" d="m0 0 13 5 11 7 8 6v2l5 2 6 5 11 5 13 4-4 2-4 1-11-4-11-6-14-11-14-9-9-4-1-3z" fill="#E9EEFD"/>
<path transform="translate(1710,320)" d="m0 0h9l1 2-9 3-32 6-25 5h-11v-3l55-11z" fill="#E5E9FC"/>
<path transform="translate(800,96)" d="m0 0h18l16 2 12 3 5 2 1 3-1 1-7-1-18-4-20-1-15 1-8 1-2-1v-2l9-3z" fill="#E5E8FC"/>
<path transform="translate(1374,1200)" d="m0 0h1l2 94 2 47 3 45 2 19 2 15v8h-1l-2-10-3-31-1-2-1-27-1-8-1-33-1-10-1-57-1-18v-25z" fill="#F0F4FD"/>
<path transform="translate(453,1334)" d="m0 0h1v5l11 3 14 4 1 2-13 8-5 2-5-1-3-5-1-8z" fill="#FDFDFD"/>
<path transform="translate(951,1038)" d="m0 0h1l1 8v14l10-1 27 1v1h-254v-1l213-1 3-1-1-10z" fill="#FEE2A3"/>
<path transform="translate(272,508)" d="m0 0 5 5 2 3-9 4-36 13-3-1 19-11 10-6z" fill="#AEB7E6"/>
<path transform="translate(301,937)" d="m0 0 10 1 13 2 36 2 7 1v3h-33l-19-2-14-3z" fill="#E4E7FC"/>
<path transform="translate(98 1e3)" d="m0 0 6 2 6 7 5 5 13 5 16 3 14 1v1h-7v2l2 1h-9l-17-3-12-4-6-4-5-8-8-4 2-1z" fill="#E4E8FC"/>
<path transform="translate(516,1520)" d="m0 0 5 5 8 12 1 5-1 2h-9l-11-3 3-1 1-9 2-8z" fill="#E9EEFC"/>
<path transform="translate(245,915)" d="m0 0 11 2 18 7 14 7 14 5-1 4-10-2-26-12-15-5-4-1z" fill="#E5E9FC"/>
<path transform="translate(1922,352)" d="m0 0h7l7 4 1 1v6l-4 5-10 7-2 4 4 5 5 4-1 3-5-1-7-7-1-7 6-7 9-7 2-3-6-2-5-3z" fill="#E5E8FC"/>
<path transform="translate(636,210)" d="m0 0 26 1 20 2 9 2 2 1v4l-12-2-25-2-14-1-6-2z" fill="#E4E7FC"/>
<path transform="translate(612,1072)" d="m0 0h10l3 4v7l-4 6-3 1-10-5v-7l3-5z" fill="#F1B496"/>
<path transform="translate(250,1014)" d="m0 0h9l14 2 22 8 9 1v3l13 1v1h-17l-13-3-11-5-9-2-19-1v-1h8v-3h-6z" fill="#E9EEFD"/>
<path transform="translate(1800,421)" d="m0 0 8 1 15 6 13 2h16l3 2v2l-7 1h-16l-16-4-8-4-8-2z" fill="#EAEFFD"/>
<path transform="translate(808,247)" d="m0 0 3 1-1 2 4 1-22 5-6 1h-26l-5-1 1-3 28-1 17-3z" fill="#E4E7FC"/>
<path transform="translate(1736,317)" d="m0 0h24l13 2-2 1v3l-11-1h-19l-26 2 4-3-1-2z" fill="#E9EEFD"/>
<path transform="translate(627,178)" d="m0 0 2 1-3 5h-2l-2 4-5 7v5l5 4 10 4 4 1 1 5-13-3-10-6-2-3v-8l4-7 7-8z" fill="#EAEFFD"/>
<path transform="translate(1773,319)" d="m0 0 14 3 12 4 15 7 4 2 1 3-1 2-7-2-14-7-14-5-12-3v-3z" fill="#E5E8FC"/>
<path transform="translate(1645,420)" d="m0 0 9 2 16 4 26 3 2 2-1 1h-21l-21-4-10-4z" fill="#E4E8FC"/>
<path transform="translate(1588,479)" d="m0 0 5 2 4 5v6l-2 4-6 4h-3l-1 7-3 1-1-6 2-9 6-4 3-1-5-5z" fill="#EB6F4C"/>
<path transform="translate(1533,459)" d="m0 0 6 1 11 8 2 2v5l-1 1h-6l-13-9-2-5z" fill="#222F66"/>
<path transform="translate(1424,479)" d="m0 0h2v5l-4 4 6 3 3 3 2 12-1 2-3-1-1-7-5-1-5-5-1-2v-6l5-6z" fill="#EB6F4C"/>
<path transform="translate(525,1457)" d="m0 0 5 4 2 3v13l-6-1-12-4 6-7 4-5z" fill="#EAEEFD"/>
<path transform="translate(1610,400)" d="m0 0 20 4 6 3 5 5 4 6 2 2h-2l-1 3-6-5-4-6-9-4-16-4z" fill="#E7EBFD"/>
<path transform="translate(57,992)" d="m0 0 11 1 27 5 3 1v4l-10-1-30-6-2-1z" fill="#E4E8FC"/>
<path transform="translate(1645,1165)" d="m0 0h2l1 3-1 1-2 139-2 3 1-73z" fill="#F0F4FD"/>
<path transform="translate(151,1024)" d="m0 0h47l-1 3-5 1h-37l-4-2z" fill="#E3E6FC"/>
<path transform="translate(111,928)" d="m0 0h9v3l-32 7h-10l1-3 16-4z" fill="#E4E7FC"/>
<path transform="translate(917,207)" d="m0 0 1 2 4-1v2l-14 8-13 6-8 3-3-1 1-2-2-1 22-9z" fill="#E9EEFD"/>
<path transform="translate(851,104)" d="m0 0 6 2 8 7 6 14 6 4-1 5-7-4-4-5-4-10-5-5-7-4z" fill="#EAEEFD"/>
<path transform="translate(982,1281)" d="m0 0h10l3 7 1 5v15l-4 13-6 9-10 10-2-1 4-5h2l2-4 4-2 1-4 6-13 1-14-1-4-2-1-1-6-8-2z" fill="#AFB8E7"/>
<path transform="translate(1093,518)" d="m0 0v3l-5 5-10 8-5 3h-2v2l-18 6-7 2-5 1h-21l-3-2-13-3-8-3-1-3 9 3 15 4 5 1h16l15-3 13-5 12-7 12-11z" fill="#F1F5FD"/>
<path transform="translate(875,132)" d="m0 0 5 1 27 8 6 4 1 4-9-3-25-8-4-2z" fill="#E5E8FC"/>
<path transform="translate(577,1571)" d="m0 0h2v61l-2-4-4-9v-2h-2l1-4 4-4-1-5-5-3-8-2v-1l9 1 7 4z" fill="#C0BCD6"/>
<path transform="translate(760,1694)" d="m0 0h2l4 14v5l-6 3-4 1-1 7-2 1v-8l6-8-3-5 1-5z" fill="#AFB8E7"/>
<path transform="translate(440,876)" d="m0 0 3 1-1 7-5 9h-2l1 4-4 1-12-9v-3l6 1 6 4 5-9 2-5z" fill="#AFB8E7"/>
<path transform="translate(1888,347)" d="m0 0h10l14 1 14 3-4 1v2l2 1-8-1-31-3 3-1z" fill="#E9EEFD"/>
<path transform="translate(1012,472)" d="m0 0 2 1-1 5-24 16h-4v-4l10-7z" fill="#F39975"/>
<path transform="translate(677,1281)" d="m0 0h13v10h-1v-7l-7-1-3 1-3 12h-2l3 10 1 11 4 8 2 5-5-5-5-11-1-4v-19l3-9z" fill="#ADB7E6"/>
<path transform="translate(1280,897)" d="m0 0 1 3-3 9v8l4 8 6 7 11 8 16 8v1h-7l-17-11-2-4-4-2-5-5h-2l-3 1-1-5 2-2-1-9 2-10z" fill="#F0F4FD"/>
<path transform="translate(1152,953)" d="m0 0 4 2 9 8v3l4 1v3l-3 1h-14l-1-3 2-2h7l-9-9z" fill="#AFB8E7"/>
<path transform="translate(150,920)" d="m0 0 3 1 4 3-35 7h-2v-3l-4-1z" fill="#E8ECFD"/>
<path transform="translate(589 1e3)" d="m0 0 4 1-2 5-6 9h-4l1-6-9-2-5-3 3-3 10 3h5z" fill="#AFB8E7"/>
<path transform="translate(607,1463)" d="m0 0h1v20l-7 3-3-1 1-8 7-13z" fill="#111837"/>
<path transform="translate(1637,334)" d="m0 0h5l6 2-4 2-29 6h-4v-4z" fill="#EBF0FE"/>
<path transform="translate(820,1713)" d="m0 0 28 1-1 2-4 1-3 1h-14l-5-1-4 8-3-4-3-7z" fill="#BAC4F5"/>
<path transform="translate(1854,346)" d="m0 0h15l19 1v3l-3 1h-20l-9-1-4-3z" fill="#E4E7FC"/>
<path transform="translate(1268,1149)" d="m0 0 7 1h10v4l-5 1h-7l1 11h-4l-3-12z" fill="#AFB8E7"/>
<path transform="translate(1703,1340)" d="m0 0 9 3 7 3-1 3h-3v2l-11 6h-4v-4l8-4h2v-2l-6-2-2-4z" fill="#AFB8E7"/>
<path transform="translate(1374,1200)" d="m0 0h1l1 39v68h-1l-1-57-1-18v-25z" fill="#EDF2FD"/>
<path transform="translate(1355,1429)" d="m0 0h4l4 7v2l8-2 2 3-5 3h-2v2l-9 1-2-4 4-1-4-7z" fill="#AFB8E7"/>
<path transform="translate(342,801)" d="m0 0 4 1-2 4-3 2 10 4v4l-7-1-10-2-3-1 1-4 9-6z" fill="#AFB8E7"/>
<path transform="translate(951,1032)" d="m0 0 2 3 9 23v2h-9l-2-22z" fill="#EF7C5B"/>
<path transform="translate(360,942)" d="m0 0 18 1 16 3v5l-18-3-16-1v-1l7-1v-1l-7-1z" fill="#E8EDFD"/>
<path transform="translate(334,942)" d="m0 0h26l7 1v3h-33l-1-3z" fill="#E3E6FC"/>
<path transform="translate(681,96)" d="m0 0h3v2h2v2l-8 4-7 9-5 7-2-4 2-5 8-10z" fill="#E9EEFD"/>
<path transform="translate(1226,773)" d="m0 0h6v4l-2 1-9 1-10 6-4-1 2-4 4-2 2-4z" fill="#AFB8E7"/>
<path transform="translate(77,935)" d="m0 0 2 1-1 2h5l-4 2-23 6-4 1-1-4 7-3z" fill="#EAEEFD"/>
<path transform="translate(1609,340)" d="m0 0h2v5l-23 6-4 1-2-2-1-2 19-6z" fill="#E9EEFD"/>
<path transform="translate(910,187)" d="m0 0 5 1 8 6 2 3v9l-4 3h-3l1-4 1-1v-7l-4-2-6-4z" fill="#E4E8FC"/>
<path transform="translate(780,99)" d="m0 0 3 1-1 1 1 2-20 7-6 1-2-4z" fill="#EBF0FE"/>
<path transform="translate(1663,329)" d="m0 0h8l1 3-13 3-5 1h-11v-3z" fill="#E4E7FC"/>
<path transform="translate(1193,1137)" d="m0 0 3 3 4 6v4l-11-1 1 3v23l-3 1 1-8v-21h3z" fill="#E8ECF9"/>
<path transform="translate(688,94)" d="m0 0h13l10 3-1 4-11-2h-13l-2-1v-3z" fill="#E4E7FC"/>
<path transform="translate(526,736)" d="m0 0 2 1-5 8-3 8-1 4v17l5 14 5 10-1 2-6-10-1-6h-2l-2-6v-23l3-9v-6h3z" fill="#F1F4FD"/>
<path transform="translate(625,133)" d="m0 0h5v4l-7 3-4 4-1 8-3-1-1-2v-8l7-6z" fill="#E4E8FC"/>
<path transform="translate(860,1536)" d="m0 0h1v71l-2 1v-64l-3 1 2-5z" fill="#AFB8E7"/>
<path transform="translate(1806,1084)" d="m0 0 6 3-5 5-10 9-6 5-2-1 9-11z" fill="#AFB8E7"/>
<path transform="translate(1186,1120)" d="m0 0 1 4 1 5 4 6-1 1h-12l-1-4 7-9z" fill="#DDE2FA"/>
<path transform="translate(835,722)" d="m0 0 2 2-5 23-4 16 9 4 6 2-2 2-14-5-2-4 7-26z" fill="#EB6F4C"/>
<path transform="translate(387,969)" d="m0 0 2 3 2 5 10 9-1 4-5-3-10-9-1-6z" fill="#E4E7FC"/>
<path transform="translate(1502,484)" d="m0 0 2 1-4 19-5 18 1 5 13 4 1 2-9-1-9-5 1-7 6-23z" fill="#EB6F4C"/>
<path transform="translate(1696,429)" d="m0 0h23v2l7 1v1h-40l-3-2h14z" fill="#EAEEFD"/>
<path transform="translate(828,1329)" d="m0 0 9 1-1 5-6 14h-1l-1-7z" fill="#A7B5F5"/>
<path transform="translate(362,1440)" d="m0 0 5 5 11 13 16 16 8 7 6 7-4-2-9-8v-2l-4-2-9-9-6-5-8-10-1-3h-2l-3-5z" fill="#FDFDFD"/>
<path transform="translate(913,145)" d="m0 0 4 4v6l-3 5h-2v2l-8 5v-5l6-5 2-6v-2l-5-2 3-1 3 1z" fill="#EAEFFD"/>
<path transform="translate(398,1403)" d="m0 0h2l2 7-1 6-4 1v-2l-6-2v-4z" fill="#EBF0FE"/>
<path transform="translate(49,943)" d="m0 0 3 1-1 4-8 4 4 5-7 1-2-3v-5l6-5z" fill="#E6EAFC"/>
<path transform="translate(658,988)" d="m0 0 2 4 2 2-1 6-2 2-1 5-2-3-5 4-3-1 1-4 5-4 3-4z" fill="#B6B8DE"/>
<path transform="translate(282,929)" d="m0 0 20 7-1 4-10-2-11-5z" fill="#EBF0FE"/>
<path transform="translate(1872,419)" d="m0 0 1 2-3 5-10 6-5 1-3-2v-2l8-3 6-4z" fill="#E7EBFD"/>
<path transform="translate(808,247)" d="m0 0 3 1-1 2 4 1-16 4h-8l-1-3z" fill="#E7EBFD"/>
<path transform="translate(614,1072)" d="m0 0h8l2 2v8l-13-5 2-4z" fill="#F18464"/>
<path transform="translate(362 1e3)" d="m0 0h6v4l-14 4-6 1 2-5z" fill="#E6E9FC"/>
<path transform="translate(98 1e3)" d="m0 0 6 2 6 7 5 6-5 2-4-5-2-4-8-4 2-1z" fill="#EBF0FE"/>
<path transform="translate(711,98)" d="m0 0 5 2 8 6 3 1 1 4-3 1-10-6-5-4z" fill="#EAEFFD"/>
<path transform="translate(1370,872)" d="m0 0h2l-1 5-1 3h-2l-2 5-3 6h-2l-1 5 5-2 1 3-1 2 5 1 3 2v2l-5-2-9-5-1-3 9-16 3-5z" fill="#F4F6FD"/>
<path transform="translate(1105,431)" d="m0 0h2l2 5v3h2l1 9h2v9l1 14-1 2-1 10-2 2 1-14v-11l-2-13z" fill="#EEF2FD"/>
<path transform="translate(1800,421)" d="m0 0 8 1 12 5-2 4-6-2-8-3-4-1z" fill="#EBF0FE"/>
<path transform="translate(647,973)" d="m0 0 6 1 7 4 2 4-2 6-1-4-4-2-8-5z" fill="#AFB8E7"/>
<path transform="translate(1236,895)" d="m0 0h3l1 2v10l-1 5-4 1-1-4 1-13z" fill="#AFB8E7"/>
<path transform="translate(442,903)" d="m0 0 4 1 8 9 1 4-3 1-5-5-6-7z" fill="#AFB8E7"/>
<path transform="translate(790,97)" d="m0 0h10l1 2h5v2l-15 1-8 1-2-1v-2z" fill="#EBF0FE"/>
<path transform="translate(1372,1450)" d="m0 0 4 1 11 8-1 3-5-1-10-7z" fill="#AFB8E7"/>
<path transform="translate(1302,1447)" d="m0 0h16l1 4-7 1h-10l-1-4z" fill="#AFB8E7"/>
<path transform="translate(1328,1125)" d="m0 0h4l-1 6-5 6-4 3-3-1 1-4 7-8z" fill="#AFB8E7"/>
<path transform="translate(1125,960)" d="m0 0 7 1 10 4-1 4-12-3-4-2z" fill="#AFB8E7"/>
<path transform="translate(1215,702)" d="m0 0 6 3 7 8-1 3-4-1-9-9z" fill="#AFB8E7"/>
<path transform="translate(1884,410)" d="m0 0 3 1 1 3-12 6-4 3v-3l-4 1 5-5 7-4z" fill="#EAEEFD"/>
<path transform="translate(1311,1080)" d="m0 0 5 1 9 6 1 4h-4l-10-6-2-1z" fill="#AFB8E7"/>
<path transform="translate(133,1021)" d="m0 0 11 1 14 1v1h-7v2l2 1h-9l-12-2 2-2z" fill="#EBF0FE"/>
<path transform="translate(544,993)" d="m0 0 5 1 11 6v3l-3 1-12-6-2-3z" fill="#AFB8E7"/>
<path transform="translate(1215,944)" d="m0 0h3l-1 5-8 7-4 1-2-3 10-9z" fill="#AFB8E7"/>
<path transform="translate(426,899)" d="m0 0 3 1-1 4-10 8h-4v-4l8-6z" fill="#AFB8E7"/>
<path transform="translate(1080,844)" d="m0 0h4l-1 8-3 9h-4l1-9z" fill="#AFB8E7"/>
<path transform="translate(413,834)" d="m0 0 4 1 10 6 1 4-3 1-13-8z" fill="#AFB8E7"/>
<path transform="translate(1274,745)" d="m0 0 4 1-3 5-7 8h-4l1-5z" fill="#AFB8E7"/>
<path transform="translate(1193,695)" d="m0 0 12 1 1 4-4 1-14-1 1-4z" fill="#AFB8E7"/>
<path transform="translate(1276,1095)" d="m0 0 4 1-3 9-3 7-4-1 2-9z" fill="#AFB8E7"/>
<path transform="translate(1281,986)" d="m0 0 13 1 4 1v4l-15-1-3-2z" fill="#AFB8E7"/>
<path transform="translate(609,984)" d="m0 0 4 1-2 4-10 8h-3l1-5z" fill="#AFB8E7"/>
<path transform="translate(1230,921)" d="m0 0 4 1-1 5-6 10h-4l1-5z" fill="#AFB8E7"/>
<path transform="translate(1158,904)" d="m0 0 3 1-1 4-8 11-3-1 1-5 7-9z" fill="#AFB8E7"/>
<path transform="translate(1217,877)" d="m0 0 9 1 6 4 1 5-5-1-11-6z" fill="#AFB8E7"/>
<path transform="translate(1188,768)" d="m0 0 7 1 10 4v3h-7l-10-4z" fill="#AFB8E7"/>
<path transform="translate(1254,763)" d="m0 0 3 1-1 4-11 6-4-1 1-4z" fill="#AFB8E7"/>
<path transform="translate(1176,701)" d="m0 0h3l1 3-8 7-3 4h-3l-1-3 7-8z" fill="#AFB8E7"/>
<path transform="translate(1818,336)" d="m0 0 20 6-3 2 1 2-10-2-8-4z" fill="#E8EDFD"/>
<path transform="translate(1342,1443)" d="m0 0 4 1-1 4-15 2-2-1 2-4z" fill="#AFB8E7"/>
<path transform="translate(1345,1403)" d="m0 0 4 1 4 12v4h-4l-4-11z" fill="#AFB8E7"/>
<path transform="translate(1352,1350)" d="m0 0 3 1-1 5-6 11-3-1 1-7z" fill="#AFB8E7"/>
<path transform="translate(1371,1335)" d="m0 0h5l1 2-1 2-9 4-3 2-4-1 1-4z" fill="#AFB8E7"/>
<path transform="translate(1268,1121)" d="m0 0 4 2-1 15-4 1-1-1 1-16z" fill="#AFB8E7"/>
<path transform="translate(1329,1099)" d="m0 0 5 1 2 8v7l-4 1-1-4z" fill="#AFB8E7"/>
<path transform="translate(320,1024)" d="m0 0h5v4l-3 1h-18v-3z" fill="#E4E7FC"/>
<path transform="translate(1199,979)" d="m0 0 9 1 8 2v4h-7l-10-3z" fill="#AFB8E7"/>
<path transform="translate(521,979)" d="m0 0 6 2 8 5 1 4-4 1-12-8z" fill="#AFB8E7"/>
<path transform="translate(1175,969)" d="m0 0 14 6 1 4-7-1-10-5v-3z" fill="#AFB8E7"/>
<path transform="translate(1191,959)" d="m0 0 5 1-1 3-13 5h-3l-1-3 5-3z" fill="#AFB8E7"/>
<path transform="translate(1145,928)" d="m0 0h3l1 16-1 2-4-2-1-5v-7z" fill="#AFB8E7"/>
<path transform="translate(1076,898)" d="m0 0h4l4 14v3h-4l-4-11z" fill="#AFB8E7"/>
<path transform="translate(1178,887)" d="m0 0h4v4l-9 6h-2v2l-4-1 1-4z" fill="#AFB8E7"/>
<path transform="translate(1202,877)" d="m0 0h5v4l-13 4-4-1v-3z" fill="#AFB8E7"/>
<path transform="translate(1632,852)" d="m0 0 2 3 6 14v3h-2l-1 10h-1l-4-25z" fill="#D0D7F7"/>
<path transform="translate(387,824)" d="m0 0 7 1 9 4v4l-9-2-7-3z" fill="#AFB8E7"/>
<path transform="translate(1195,785)" d="m0 0 4 1v3l-16 4-2-1v-3l10-3z" fill="#AFB8E7"/>
<path transform="translate(1354,1207)" d="m0 0h5l-1 4-10 4h-6v-4z" fill="#AFB8E7"/>
<path transform="translate(1276,1175)" d="m0 0 4 1 7 11v3l-3 1-7-9-2-6z" fill="#AFB8E7"/>
<path transform="translate(1297,1079)" d="m0 0 4 1-2 4-9 4-5 1v-4l8-5z" fill="#AFB8E7"/>
<path transform="translate(596,1011)" d="m0 0 16 1 1 4-4 1-11-1-3-1z" fill="#AFB8E7"/>
<path transform="translate(460,924)" d="m0 0 4 1 9 10-1 3-4-1-9-10z" fill="#AFB8E7"/>
<path transform="translate(1095,820)" d="m0 0 3 1-1 4-8 11h-3l1-6 7-9z" fill="#AFB8E7"/>
<path transform="translate(1115,803)" d="m0 0 4 1-2 4-10 6h-4l1-4 9-6z" fill="#AFB8E7"/>
<path transform="translate(1162,791)" d="m0 0h9v4l-16 2-1-4 1-1z" fill="#AFB8E7"/>
<path transform="translate(1169,749)" d="m0 0 4 2 7 9v4l-4-1-7-8-1-5z" fill="#AFB8E7"/>
<path transform="translate(1230,724)" d="m0 0h4l3 8 1 8-4 1-4-13z" fill="#AFB8E7"/>
<path transform="translate(1748,317)" d="m0 0h12l13 2-2 1v3l-23-2 4-2 6 1v-2l-10 1z" fill="#EBF0FE"/>
<path transform="translate(1240,1150)" d="m0 0h10l7 1v4h-12l-5-1z" fill="#AFB8E7"/>
<path transform="translate(635,1010)" d="m0 0h5v4l-8 2h-9l-1-3 7-2z" fill="#AFB8E8"/>
<path transform="translate(1335,998)" d="m0 0 9 3 6 3v3l-3 1-13-6v-3z" fill="#AFB8E7"/>
<path transform="translate(631,973)" d="m0 0h6l-1 4-11 4h-5l1-4z" fill="#AFB8E7"/>
<path transform="translate(1087,923)" d="m0 0 3 1 7 11-1 4-4-2-7-11z" fill="#AFB8E7"/>
<path transform="translate(1139,795)" d="m0 0h5v4l-11 3h-5v-4z" fill="#AFB8E7"/>
<path transform="translate(1234,751)" d="m0 0h3l-1 9-5 8-3-1 1-5z" fill="#AFB8E7"/>
<path transform="translate(1293,695)" d="m0 0h4l-1 14-1 3h-4l1-15z" fill="#AFB8E7"/>
<path transform="translate(1290,667)" d="m0 0 3 1 3 10v7h-4l-3-13z" fill="#AFB8E7"/>
<path transform="translate(1315,1211)" d="m0 0h7l10 2v4h-8l-8-2z" fill="#AFB8E7"/>
<path transform="translate(575,1026)" d="m0 0h3l-1 7-5 10h-3l1-7z" fill="#AFB8E7"/>
<path transform="translate(478,944)" d="m0 0 5 1 9 9-1 4-4-2-9-9z" fill="#AFB8E7"/>
<path transform="translate(1543,880)" d="m0 0 6 1 1 7-2 2h-5l-2-2v-6z" fill="#DA6E5C"/>
<path transform="translate(1074,871)" d="m0 0h4v17h-4l-1-11z" fill="#AFB8E7"/>
<path transform="translate(434,851)" d="m0 0h4l5 9 1 5-1 2-4-1-4-10z" fill="#AFB8E7"/>
<path transform="translate(1288,721)" d="m0 0h3l-1 7-5 9h-4l1-5z" fill="#AFB8E7"/>
<path transform="translate(806,699)" d="m0 0h3l-1 4-13 9-3-1 2-4 10-7z" fill="#F18060"/>
<path transform="translate(1292,1197)" d="m0 0 4 1 10 7 1 3-5 1-10-8z" fill="#AFB8E7"/>
<path transform="translate(1308,991)" d="m0 0 10 1 7 3-1 3-8-1-8-2-1-3z" fill="#AFB8E7"/>
<path transform="translate(500,962)" d="m0 0 5 3 8 7v3l-5-1-9-7-1-3z" fill="#AFB8E7"/>
<path transform="translate(1103,945)" d="m0 0 4 1 10 8v3l-6-1-8-7z" fill="#AFB8E7"/>
<path transform="translate(361,816)" d="m0 0 8 1 8 3v4l-9-2-7-2z" fill="#AFB8E7"/>
<path transform="translate(867,699)" d="m0 0 5 1 11 8-1 4-4-2-11-8z" fill="#F18060"/>
<path transform="translate(995,537)" d="m0 0 9 3 15 4 5 1 17 1v1l-21 1-3-2-13-3-8-3z" fill="#ECF1FD"/>
<path transform="translate(1900,406)" d="m0 0h5l-1 4-12 3-6-1 1-3z" fill="#E4E7FC"/>
<path transform="translate(897,178)" d="m0 0 4 1 9 6 2 2h-2v3l-5-2-9-6z" fill="#E7EBFD"/>
<path transform="translate(506,1581)" d="m0 0h1l2 17h-8l1-6z" fill="#ECF0FC"/>
<path transform="translate(673,1300)" d="m0 0h2l2 9 2 11 3 5 2 5-5-5-5-11-1-4z" fill="#AFB8E7"/>
<path transform="translate(1499,1265)" d="m0 0 2 1-2 13h-2v10l-2 7-3 13-2 2 2-13z" fill="#F0F4FD"/>
<path transform="translate(1309,1142)" d="m0 0 2 1-1 4-10 4h-5v-4z" fill="#AFB8E7"/>
<path transform="translate(1226,984)" d="m0 0 17 1v4h-13l-4-1z" fill="#AFB8E7"/>
<path transform="translate(1283,929)" d="m0 0 4 2 12 9 16 8v1h-7l-17-11-2-4-6-3z" fill="#F4F6FD"/>
<path transform="translate(402,915)" d="m0 0 5 1-1 3-11 4h-5v-4z" fill="#AFB8E7"/>
<path transform="translate(1162,723)" d="m0 0 3 1 1 17-4-1-1-3v-13z" fill="#AFB8E7"/>
<path transform="translate(1342,1376)" d="m0 0h4v18l-4-1z" fill="#AFB8E7"/>
<path transform="translate(1719,1296)" d="m0 0 4 1 4 13-1 3h-3l-4-13z" fill="#AFB8E7"/>
<path transform="translate(1686,1277)" d="m0 0h5l-1 4-10 5-5 1 2-5 6-4z" fill="#AFB8E7"/>
<path transform="translate(1766,1129)" d="m0 0h3l-1 5-3 1-2 4-3 4h-3l-1-3 7-9z" fill="#AFB8E7"/>
<path transform="translate(951,1038)" d="m0 0h1l1 8v14l10-1 27 1v1h-41l1-3h2l-1-10z" fill="#F7C698"/>
<path transform="translate(395,880)" d="m0 0h14l3 2-1 3-16-1z" fill="#AFB8E7"/>
<path transform="translate(285,824)" d="m0 0h11v4l-16 1v-4z" fill="#AFB8E7"/>
<path transform="translate(318,816)" d="m0 0h5v3l-8 4-7 2-2-1v-3z" fill="#AFB8E7"/>
<path transform="translate(228,810)" d="m0 0 6 2 9 5v3l-6-1-10-5z" fill="#AFB8E7"/>
<path transform="translate(309,799)" d="m0 0 5 1 11 4-1 4-5-1-10-4z" fill="#AFB8E7"/>
<path transform="translate(185,776)" d="m0 0 4 1 9 10-1 3-5-2-1-3-3-1-4-5z" fill="#AFB8E7"/>
<path transform="translate(154,731)" d="m0 0 4 2 6 11-1 3h-3l-7-12z" fill="#AFB8E7"/>
<path transform="translate(202,546)" d="m0 0 4 1-1 3-13 6-3-1 2-4z" fill="#AFB8E7"/>
<path transform="translate(1791,1321)" d="m0 0 4 1-2 4-9 7h-4l1-4 9-7z" fill="#AFB8E7"/>
<path transform="translate(1684,1321)" d="m0 0 3 1 7 8 2 5-3 1-8-8-2-3z" fill="#AFB8E7"/>
<path transform="translate(1673,1296)" d="m0 0 3 1 4 13-1 3-4-1-3-9v-6z" fill="#AFB8E7"/>
<path transform="translate(1796,1248)" d="m0 0 5 5 4 7v4l-4-1-7-11v-3z" fill="#AFB8E7"/>
<path transform="translate(1763,1204)" d="m0 0h3l7 11v4l-4-1-7-11z" fill="#AFB8E7"/>
<path transform="translate(1752,1179)" d="m0 0 4 1 4 12-1 4-3-1-4-11z" fill="#AFB8E7"/>
<path transform="translate(1253,985)" d="m0 0h17l1 4h-17z" fill="#AFB8E7"/>
<path transform="translate(369,906)" d="m0 0h3l4 8 4 4-1 3-4-1-5-6-1-2z" fill="#AFB8E8"/>
<path transform="translate(284,788)" d="m0 0 5 1 11 6-1 3-5-1-10-5-1-3z" fill="#AFB8E7"/>
<path transform="translate(263,771)" d="m0 0 4 1 9 9-1 3-4-1-9-9z" fill="#AFB8E7"/>
<path transform="translate(367,754)" d="m0 0h3v10l-2 7-4-1 1-8 1-7z" fill="#AFB8E7"/>
<path transform="translate(362,727)" d="m0 0h4l4 13-1 4-3-1-4-13z" fill="#AFB8E7"/>
<path transform="translate(804,714)" d="m0 0 5 1 2 5-2 3h-6l-2-3 1-5z" fill="#111837"/>
<path transform="translate(346,705)" d="m0 0 5 1 7 7 1 5-2 1-11-11z" fill="#AFB8E7"/>
<path transform="translate(135,680)" d="m0 0 4 1 3 12v4h-4l-3-11z" fill="#AFB8E7"/>
<path transform="translate(902,620)" d="m0 0 3 1 7 10 2 3 3-1 2 7v2h3l-1 6-4-4-7-12-8-11z" fill="#EEF2FC"/>
<path transform="translate(1599,369)" d="m0 0 6 3 2 5-2 4-4 2-1-5v-3l-4-2v-2z" fill="#EAEFFD"/>
<path transform="translate(1582,364)" d="m0 0 7 1 10 4-3 3-6-1-9-4z" fill="#E7ECFD"/>
<path transform="translate(714,1342)" d="m0 0h1v37h-1v-31l-9-2-5-2v-1h9l5 3z" fill="#9FACE6"/>
<path transform="translate(1724,1323)" d="m0 0h3v8l-3 9-4-1 3-15z" fill="#AFB8E7"/>
<path transform="translate(381,885)" d="m0 0h4l-1 4-8 6-2 2h-3l1-5 7-6z" fill="#AFB8E7"/>
<path transform="translate(205,795)" d="m0 0 4 1 10 8v3l-5-1-10-8z" fill="#AFB8E7"/>
<path transform="translate(359,780)" d="m0 0h4l-1 5-7 10h-3l-1-3 6-9z" fill="#AFB8E7"/>
<path transform="translate(143,706)" d="m0 0 3 1 5 12-1 4-3-1-5-12z" fill="#AFB8E7"/>
<path transform="translate(282,702)" d="m0 0 3 1v3l-11 7h-4l1-4z" fill="#AFB8E7"/>
<path transform="translate(158,576)" d="m0 0 3 2-2 4-7 9h-3l1-5 7-9z" fill="#AFB8E7"/>
<path transform="translate(1470,477)" d="m0 0h5l2 2v5l-2 2h-5l-2-2v-5z" fill="#0F1635"/>
<path transform="translate(1778,1227)" d="m0 0h4l8 11v3h-4l-8-11z" fill="#AFB8E7"/>
<path transform="translate(168,755)" d="m0 0 4 1 7 10-1 4h-2l-9-12z" fill="#AFB8E7"/>
<path transform="translate(253,746)" d="m0 0 4 1 2 11v5l-4-1-2-7z" fill="#AFB8E7"/>
<path transform="translate(862,714)" d="m0 0 5 1 1 1-1 7h-6l-2-2 1-6z" fill="#0F1635"/>
<path transform="translate(321,695)" d="m0 0h7l9 3v4l-15-3z" fill="#AFB8E7"/>
<path transform="translate(142,600)" d="m0 0h4l-3 10-3 6h-3l1-7z" fill="#AFB8E7"/>
<path transform="translate(1528,477)" d="m0 0h5l2 2-1 6-1 1h-5l-2-2v-5z" fill="#0F1635"/>
<path transform="translate(1503,1490)" d="m0 0 15 1-1 4h-15l-1-4z" fill="#AFB8E7"/>
<path transform="translate(1682,1357)" d="m0 0h8l-1 4-6 1h-10l1-4z" fill="#AFB8E7"/>
<path transform="translate(1769,1336)" d="m0 0 3 1v3l-12 5h-4l1-4z" fill="#AFB8E7"/>
<path transform="translate(1808,1300)" d="m0 0h3l-1 6-6 9-4-1 2-4z" fill="#AFB8E7"/>
<path transform="translate(1752,1152)" d="m0 0h3l-1 16h-4v-10z" fill="#AFB8E7"/>
<path transform="translate(253,821)" d="m0 0 8 1 8 2-1 4-15-3z" fill="#AFB8E7"/>
<path transform="translate(261,720)" d="m0 0h3l-1 6-5 10h-3l1-7z" fill="#AFB8E7"/>
<path transform="translate(302,695)" d="m0 0h9v3l-13 3-4-1v-3z" fill="#AFB8E7"/>
<path transform="translate(178,559)" d="m0 0h3l-1 4-10 8-3-1 1-4z" fill="#AFB8E7"/>
<path transform="translate(1646,1356)" d="m0 0 14 1 3 1v3h-13l-4-1z" fill="#AFB8E7"/>
<path transform="translate(1741,1345)" d="m0 0h5l-1 4-3 1h-13v-3l2-1z" fill="#AFB8E7"/>
<path transform="translate(1701,1277)" d="m0 0 6 1 5 3 4 6-3 2-7-6-5-2z" fill="#AFB8E7"/>
<path transform="translate(1808,1273)" d="m0 0h3l2 7v10h-3l-2-9-1-7z" fill="#AFB8E7"/>
<path transform="translate(1236,1072)" d="m0 0h2l1 4-2 8 4-1v-2l3-1-2 4-5 7h-3v-7z" fill="#F2F5FD"/>
<path transform="translate(132,653)" d="m0 0 4 1v16l-4-1z" fill="#AFB8E7"/>
<path transform="translate(134,626)" d="m0 0h3l-1 16-4 1v-9l1-7z" fill="#AFB8E7"/>
<path transform="translate(1918,379)" d="m0 0h3l4 5 5 4-1 3-5-1-7-7z" fill="#E4E8FC"/>
<path transform="translate(731,1042)" d="m0 0h1v11l-1 7h-7z" fill="#EC714F"/>
<path transform="translate(867,120)" d="m0 0 2 3 3 5 5 4-2 4-8-6-2-3 1-4z" fill="#EAEEFD"/>
<path transform="translate(1198,1108)" d="m0 0h2l4 6-1 4-7-2-8-1v-2h6z" fill="#E4E8FA"/>
<path transform="translate(1540,1487)" d="m0 0 3 1v3l-11 3-4-1v-3z" fill="#AFB8E7"/>
<path transform="translate(1033,1007)" d="m0 0 2 1 3 19 2 12 1 2v10h-1l-5-29-1-1z" fill="#F1F1F7"/>
<path transform="translate(1723,428)" d="m0 0h9l3 3-2 1h-15l-7-1v-1z" fill="#E4E7FC"/>
<path transform="translate(1645,420)" d="m0 0 9 2 6 2v2h-2v2l-9-2-4-2z" fill="#E6EAFC"/>
<path transform="translate(1596,398)" d="m0 0 10 1 4 1-1 4-11-1-5-4z" fill="#E4E7FC"/>
<path transform="translate(532,1466)" d="m0 0h2l6 10-1 2h-6l-1-1z" fill="#493C51"/>
<path transform="translate(294,1024)" d="m0 0 10 1v3l13 1v1h-17l-8-2z" fill="#EBF0FE"/>
<path transform="translate(203,1022)" d="m0 0h5l7 2-4 2-14 1 1-3h-7v-1z" fill="#EAEFFD"/>
<path transform="translate(1258,632)" d="m0 0 4 2 9 11-1 2-9-7-2-1v-2l-4-2 3-1z" fill="#AFB8E7"/>
<path transform="translate(394,961)" d="m0 0 5 2-4 4-5 4h-4l-2 1 2-4z" fill="#E8ECFD"/>
<path transform="translate(1594,344)" d="m0 0 3 1 1 3-14 4-2-2-1-2z" fill="#EBF0FE"/>
<path transform="translate(1477,1488)" d="m0 0 12 1 2 1v3l-3 1-11-2z" fill="#AFB8E7"/>
<path transform="translate(1375,1162)" d="m0 0h1v18l-1 15-2-3v-15z" fill="#F0F4FD"/>
<path transform="translate(335,1016)" d="m0 0 2 4-5 5-4 2h-3l-1-4 9-5z" fill="#EBF0FE"/>
<path transform="translate(1406,482)" d="m0 0h1l2 20 5 10 3 4-4-1-5-8-2-10-1-1v-8z" fill="#EFF3FD"/>
<path transform="translate(1910,348)" d="m0 0 16 3-4 1v2l2 1-8-1-7-1 2-1z" fill="#EBF0FE"/>
<path transform="translate(989,818)" d="m0 0h2l1 9 4 2v7l1 5-2 2-6-21z" fill="#EBDFDF"/>
<path transform="translate(577,1610)" d="m0 0h1v18l-2-3-4-8 2-4z" fill="#F3F6FD"/>
<path transform="translate(408,1282)" d="m0 0h1l2 20v14l-5-3 2-1z" fill="#F2F5FD"/>
<path transform="translate(1189,1075)" d="m0 0 2 1-7 7-1 4 2 2-3 2h-5l-1-2 7-8z" fill="#D6DDFA"/>
<path transform="translate(250,1014)" d="m0 0h9l9 1-3 1v3h-17v-1h8v-3h-6z" fill="#EBF0FE"/>
<path transform="translate(584,826)" d="m0 0 1 2-2 3-1 5-4 2-4 5-1 3-3 3-1 3h-3l2-5 9-11z" fill="#F0F4FD"/>
<path transform="translate(953,478)" d="m0 0h1l4 15 6 13-1 2-7-10-1-6-2-5z" fill="#EFF3FD"/>
<path transform="translate(577,1541)" d="m0 0h2v11l-6-2-1-4z" fill="#DAE0F7"/>
<path transform="translate(969,1340)" d="m0 0h5l-4 3-10 4-4 1h-8l1-3h7l10-2v-2z" fill="#ADB6E6"/>
<path transform="translate(1359,1010)" d="m0 0 6 1 5 3v6l-10-6z" fill="#AFB8E8"/>
<path transform="translate(1510,1214)" d="m0 0 2 2 3 16h-2l-3-8-2 7-1-4z" fill="#F0F3FD"/>
<path transform="translate(1930,389)" d="m0 0 5 5v6l-3 2v-3l-2-1-2-5v-3z" fill="#EBF0FE"/>
<path transform="translate(880,224)" d="m0 0h5l-1 4-9 3h-3l2-5z" fill="#E4E7FC"/>
<path transform="translate(1741,426)" d="m0 0h3v3l4 1-15 2 1-2-2-2z" fill="#EBF0FE"/>
<path transform="translate(557,716)" d="m0 0 14 1v2l-14 1-11 2 4-3 6-2z" fill="#F1F4FD"/>
<path transform="translate(1521,1264)" d="m0 0h1l5 27v5l-2-1-1-8-1-1-2-13z" fill="#F0F3FD"/>
<path transform="translate(1017,1148)" d="m0 0 2 1-5 2-2 4-9 4-2 2-3-1 10-7z" fill="#EFF3FD"/>
<path transform="translate(1578,349)" d="m0 0h7l-1 3-8 4-4-2 4-4z" fill="#E4E8FC"/>
<path transform="translate(756,253)" d="m0 0h14l2 2-1 1h-16z" fill="#E3E6FC"/>
<path transform="translate(850,234)" d="m0 0h5l-1 4-6 2h-5l-1-2 4-3z" fill="#E4E7FC"/>
<path transform="translate(922,198)" d="m0 0 3 1v7l-4 3h-3l1-4z" fill="#E3E7FC"/>
<path transform="translate(1375,1194)" d="m0 0h1v7l-4 2-5 1v-4l6-4h2z" fill="#AFB8E7"/>
<path transform="translate(70,966)" d="m0 0 5 5-2 5h-4l-1-3h2l-2-5z" fill="#EAEFFD"/>
<path transform="translate(1872,419)" d="m0 0 1 2-3 5-3 2-5-1v-2l5-4z" fill="#E4E8FC"/>
<path transform="translate(1640,412)" d="m0 0 4 5 3 3h-2l-1 3-6-5-1-4z" fill="#EBF0FE"/>
<path transform="translate(669,107)" d="m0 0 1 3h2l-2 5-5 5-1-6z" fill="#EBF0FE"/>
<path transform="translate(670,900)" d="m0 0h1v9l-3 18h-1v-14l1-1z" fill="#F0E0DB"/>
<path transform="translate(770,253)" d="m0 0h5v2h7l4 2h-26v-1l11-1z" fill="#EAEFFD"/>
<path transform="translate(1136,1076)" d="m0 0 2 3 1 3v7l-5-1-2-1 1-3 2-2z" fill="#DCE2FA"/>
<path transform="translate(1228,1068)" d="m0 0 7 1 1 3-15 1-2 1 1-3 6-2z" fill="#F1F4FD"/>
<path transform="translate(126,925)" d="m0 0 3 1-1 1 4 2-12 2v-3l-4-1z" fill="#EBF0FE"/>
<path transform="translate(1751,424)" d="m0 0 4 1 2 3-5 1h-8v-3z" fill="#E7ECFD"/>
<path transform="translate(684,1330)" d="m0 0 5 3 3 2v2l6 2 3 3-3 1-11-8-3-3z" fill="#AFB8E7"/>
<path transform="translate(1515,1235)" d="m0 0h1l5 26v2h-2l-1-7-2 1v-11l-2-6z" fill="#F0F3FD"/>
<path transform="translate(1110,485)" d="m0 0h1v6l-1 5v5l-4 1-3 5-1-2 5-10z" fill="#F1F4FD"/>
<path transform="translate(796,250)" d="m0 0h4v3l2 1-4 1h-8l-1-3z" fill="#EBF0FE"/>
<path transform="translate(816,245)" d="m0 0h5l1 3-4 2h-8l2-4z" fill="#E4E7FC"/>
<path transform="translate(760,1709)" d="m0 0 2 2h-2l-1 4-1 2h-2l-1 7-2 1v-8z" fill="#B1BDF6"/>
<path transform="translate(1229,1154)" d="m0 0h2l-1 4-9 10-2 3h-2l-2 4-2-1 3-4h2l2-4 9-10z" fill="#F4F7FD"/>
<path transform="translate(67,974)" d="m0 0 3 1v3l-6 3-6-2 4-3z" fill="#E6EAFC"/>
<path transform="translate(1291,870)" d="m0 0 1 2-7 17-1-3v-7h2l4-8z" fill="#F0F4FD"/>
<path transform="translate(1421,519)" d="m0 0 5 1 1 8-1 6-2-3z" fill="#283468"/>
<path transform="translate(624,208)" d="m0 0h8l4 1 1 5-7-2-6-3z" fill="#E7ECFD"/>
<path transform="translate(751,108)" d="m0 0h5l1 4-5 1h-8v-1h6l-6-2v-1z" fill="#E7EBFD"/>
<path transform="translate(1153,1204)" d="m0 0h1l1 17 4 12-1 2-3-4-2-9z" fill="#F3F6FD"/>
<path transform="translate(401,954)" d="m0 0h2l1 6-4 3-4-1 2-4h2z" fill="#E4E7FC"/>
<path transform="translate(62,939)" d="m0 0m-4 1 4 1-2 2-1 2-7 2-1-4z" fill="#EBF0FE"/>
<path transform="translate(1710,320)" d="m0 0h9l1 2-5 2h-7l-1-3z" fill="#E3E6FC"/>
<path transform="translate(1525,883)" d="m0 0h9l-1 4-8 1-2-1z" fill="#E36E53"/>
<path transform="translate(747,250)" d="m0 0 10 1 3 2-5 2-7-1z" fill="#E7EBFD"/>
<path transform="translate(219,1019)" d="m0 0 2 1-3 4h-9l-1-3z" fill="#E5E9FC"/>
<path transform="translate(386,945)" d="m0 0 8 1v5l-10-2z" fill="#EBF0FE"/>
<path transform="translate(1394,834)" d="m0 0h1l-1 11-1 6-3-1 1-7z" fill="#D0D7F7"/>
<path transform="translate(714,720)" d="m0 0 1 3-7 21h-1v-6l3-8 1-6h2z" fill="#F0F3FD"/>
<path transform="translate(1828,340)" d="m0 0 10 2-3 2 1 2-10-2z" fill="#EBF0FE"/>
<path transform="translate(1614,339)" d="m0 0h6l1 3-6 2h-4v-4z" fill="#E3E6FC"/>
<path transform="translate(893,219)" d="m0 0 2 1-4 1 1 4-5 2-3-1 1-2-2-1z" fill="#EBF0FE"/>
<path transform="translate(560,1590)" d="m0 0 2 1-1 7h-8l6-7z" fill="#2E334F"/>
<path transform="translate(1278,920)" d="m0 0 4 5 2 4-4-2h-2l-3 1-1-5 3-1z" fill="#EEF2FD"/>
<path transform="translate(1582,521)" d="m0 0h4l-1 7-2 7h-1z" fill="#2A3562"/>
<path transform="translate(1189,1152)" d="m0 0h1v23l-3 1 1-8z" fill="#F0F1FA"/>
<path transform="translate(325,941)" d="m0 0h14v1l-5 1v2h-12v-1l5-1z" fill="#EAEEFD"/>
<path transform="translate(728,684)" d="m0 0 1 3-7 17h-1v-5l3-8 1-3h2z" fill="#EEF2FD"/>
<path transform="translate(663,116)" d="m0 0h2v5l-4 4h-2l-1-4z" fill="#E4E8FC"/>
<path transform="translate(624,1075)" d="m0 0 3 1v9l-2 1-1 4h-5l4-5 1-2z" fill="#F1F4FC"/>
<path transform="translate(1884,410)" d="m0 0 3 1 1 3-5 2h-6l1-2h2v-2z" fill="#E8ECFD"/>
<path transform="translate(895,169)" d="m0 0 4 4-1 2 1 3-4 2-2-5z" fill="#EBF0FE"/>
<path transform="translate(785,98)" d="m0 0 6 1v3l-8 1-2-1v-2z" fill="#E3E7FC"/>
<path transform="translate(401,988)" d="m0 0 2 1-1 7-2 1v-2l-4-1h2v-5z" fill="#EBF0FE"/>
<path transform="translate(1364,894)" d="m0 0 2 1-1 4 5 1 3 2v2l-5-2-8-4v-2z" fill="#F1F4FD"/>
<path transform="translate(1693,550)" d="m0 0 2 1-15 15v-3l5-6z" fill="#FED78F"/>
<path transform="translate(1920,371)" d="m0 0 3 4-3 4h-2l-1 2-1-5z" fill="#EAEFFD"/>
<path transform="translate(816,1715)" d="m0 0h5l-4 10-3-4z" fill="#B2BBEA"/>
<path transform="translate(1193,1137)" d="m0 0 3 3v7l-4 1z" fill="#DCE0F9"/>
<path transform="translate(50,989)" d="m0 0h5l4 3-4 3-6-3z" fill="#EBF0FE"/>
<path transform="translate(880,596)" d="m0 0h3l6 7 4 1 1 6-7-6-7-7z" fill="#F1F5FD"/>
<path transform="translate(1819,428)" d="m0 0 8 1-1 4-7-1-1-2z" fill="#E4E8FC"/>
<path transform="translate(1623,337)" d="m0 0 5 1 1 3-8 1-3-4z" fill="#EBF0FE"/>
<path transform="translate(1704,321)" d="m0 0h3l1 2 3 2-10 1-3-4z" fill="#EBF0FE"/>
<path transform="translate(741,246)" d="m0 0 9 3-3 1v3l-6-2-2-2h2z" fill="#EBF0FE"/>
<path transform="translate(1240,1136)" d="m0 0 2 1-5 4h-2v2l-4 2-1 2-4-1 5-4z" fill="#F4F6FD"/>
<path transform="translate(1317,791)" d="m0 0 1 4-5 10h-1v-6z" fill="#D5DCF9"/>
<path transform="translate(995,537)" d="m0 0 9 3 10 3v1l-10-1-8-3z" fill="#EFF3FD"/>
<path transform="translate(1582,364)" d="m0 0 7 1 1 4-8-1-1-2z" fill="#E4E7FC"/>
<path transform="translate(863,114)" d="m0 0 3 1 1 2v6l-3 1-2-9z" fill="#E6E9FC"/>
<path transform="translate(1046,1125)" d="m0 0 3 2-5 5-5 3h-3z" fill="#F1F4FD"/>
<path transform="translate(1248,1112)" d="m0 0 4 1 1 7h-2l-1-3-5-1v-2z" fill="#F3F6FD"/>
<path transform="translate(1246,1080)" d="m0 0 5 3 1 1v8l-3 2v-8l-3-4z" fill="#F5F7FD"/>
<path transform="translate(1143,1037)" d="m0 0h1v12l-2 1-3-5v-2l3-1z" fill="#CCD4F6"/>
<path transform="translate(373 1e3)" d="m0 0 3 1-1 4h-6l-1-4z" fill="#EBF0FE"/>
<path transform="translate(746,709)" d="m0 0h1v5l-5 10-1-4 4-9z" fill="#EEB297"/>
<path transform="translate(1904,405)" d="m0 0h7l1 4-8 1z" fill="#EBF0FE"/>
<path transform="translate(1599,379)" d="m0 0h2l-1 5-7 1 2-4z" fill="#E4E7FC"/>
<path transform="translate(693,216)" d="m0 0 9 3-1 2-5 1-3-1-1-3z" fill="#EBF0FE"/>
<path transform="translate(362 1e3)" d="m0 0h6v4l-8 1z" fill="#E4E7FC"/>
<path transform="translate(1636,869)" d="m0 0h4v3h-2l-1 10h-1l-1-12z" fill="#D9DEF9"/>
<path transform="translate(526,736)" d="m0 0 2 1-5 8-2 4-1-3v-6h3z" fill="#EEF2FD"/>
<path transform="translate(843,236)" d="m0 0 2 1-2 2 2 2-8 2 1-2-2-2z" fill="#EBF0FE"/>
<path transform="translate(1688,429)" d="m0 0h8l2 2-1 1h-10z" fill="#E3E6FC"/>
<path transform="translate(614,149)" d="m0 0 1 2h2l2-2 3 7h-5l-3-4z" fill="#EAEFFD"/>
<path transform="translate(1384,1429)" d="m0 0h3l-1 5-5 1v-4z" fill="#AFB8E7"/>
<path transform="translate(1226,1146)" d="m0 0 5 2-1 3-7-1 1-3z" fill="#AFB8E7"/>
<path transform="translate(731,1053)" d="m0 0 2 3v2h2l1 3h-12v-1h7z" fill="#F3B495"/>
<path transform="translate(681,846)" d="m0 0h1l-1 9-1 6h-1v-13z" fill="#F0DED7"/>
<path transform="translate(1622,403)" d="m0 0 8 1-3 4-6-1z" fill="#EBF0FE"/>
<path transform="translate(1627,336)" d="m0 0 9 1-2 1v2h-6z" fill="#E4E7FC"/>
<path transform="translate(860,1536)" d="m0 0h1v11l-2-2h-3l2-5z" fill="#A4B0E9"/>
<path transform="translate(265,1016)" d="m0 0h7v4l-7-1z" fill="#E3E7FC"/>
<path transform="translate(400,949)" d="m0 0 4 2 1 1v6l-2-4-5-1z" fill="#EAEFFD"/>
<path transform="translate(1302,944)" d="m0 0 6 1 7 3v1h-7l-6-4z" fill="#F0F4FD"/>
<path transform="translate(964,508)" d="m0 0 4 4 6 8-1 2-3-1v-3l-6-8z" fill="#F0F3FD"/>
<path transform="translate(1578,361)" d="m0 0 6 2-2 1-1 3-6-2z" fill="#EBF0FE"/>
<path transform="translate(920,192)" d="m0 0 5 5-1 2h-4v-2l-3-1 3-1z" fill="#EBF0FE"/>
</svg>
