<?xml version="1.0" encoding="UTF-8"?>
<!DOCTYPE svg PUBLIC "-//W3C//DTD SVG 1.1//EN" "http://www.w3.org/Graphics/SVG/1.1/DTD/svg11.dtd">
<svg xmlns="http://www.w3.org/2000/svg" version="1.1" width="8334px" height="8334px" style="shape-rendering:geometricPrecision; text-rendering:geometricPrecision; image-rendering:optimizeQuality; fill-rule:evenodd; clip-rule:evenodd" xmlns:xlink="http://www.w3.org/1999/xlink">
<g><path style="opacity:0.318" fill="#ad98fe" d="M -0.5,-0.5 C 2777.17,-0.5 5554.83,-0.5 8332.5,-0.5C 8332.5,2777.17 8332.5,5554.83 8332.5,8332.5C 5554.83,8332.5 2777.17,8332.5 -0.5,8332.5C -0.5,5554.83 -0.5,2777.17 -0.5,-0.5 Z"/></g>
<g><path style="opacity:1" fill="#371a46" d="M 1605.5,1489.5 C 1636.82,1487.41 1667.48,1490.91 1697.5,1500C 1737.15,1512.16 1775.15,1528.16 1811.5,1548C 1902.5,1599.3 1984.67,1662.46 2058,1737.5C 2089.03,1769.61 2116.7,1804.28 2141,1841.5C 2157.34,1866.85 2169.34,1894.18 2177,1923.5C 2179.37,1936.4 2180.03,1949.4 2179,1962.5C 2175.28,1997.05 2167.61,2030.72 2156,2063.5C 2126.44,2141.79 2089.6,2216.29 2045.5,2287C 2048.6,2291.78 2052.1,2296.28 2056,2300.5C 2155.09,2409.25 2253.76,2518.25 2352,2627.5C 2358.95,2639.6 2359.28,2651.94 2353,2664.5C 2344.67,2675.74 2333.51,2680.58 2319.5,2679C 2286.88,2669.81 2253.88,2662.14 2220.5,2656C 2075.77,2632.6 1930.11,2619.6 1783.5,2617C 1759.02,2638.13 1732.35,2656.13 1703.5,2671C 1646.17,2695.27 1590.17,2692.6 1535.5,2663C 1452.19,2617.03 1376.19,2561.03 1307.5,2495C 1267.46,2455.31 1232.3,2411.81 1202,2364.5C 1170.18,2313.06 1149.85,2257.39 1141,2197.5C 1137.5,2168.79 1137.83,2140.13 1142,2111.5C 1155.88,2035.62 1178.88,1962.62 1211,1892.5C 1255.53,1794.03 1313.53,1704.69 1385,1624.5C 1422.31,1583.98 1464.48,1549.81 1511.5,1522C 1541.15,1505.84 1572.48,1495.01 1605.5,1489.5 Z"/></g>
<g><path style="opacity:1" fill="#fefefe" d="M 1617.5,1553.5 C 1645.28,1553.8 1672.28,1558.63 1698.5,1568C 1753.39,1589.11 1804.72,1616.44 1852.5,1650C 1927.42,1702.24 1994.92,1763.07 2055,1832.5C 2074.42,1856.28 2091.09,1881.95 2105,1909.5C 2113.16,1926.29 2116.16,1943.96 2114,1962.5C 2109.08,1997.25 2100.08,2030.91 2087,2063.5C 2056.6,2136.97 2019.94,2206.97 1977,2273.5C 1968.55,2289.2 1970.55,2303.54 1983,2316.5C 2066.17,2408.33 2149.33,2500.17 2232.5,2592C 2077.91,2567.27 1922.24,2553.93 1765.5,2552C 1760.78,2553.2 1756.44,2555.2 1752.5,2558C 1727.75,2581.21 1700.09,2600.21 1669.5,2615C 1634.64,2627.23 1600.97,2624.56 1568.5,2607C 1473.56,2554.9 1389.39,2488.73 1316,2408.5C 1280.62,2369.41 1251.95,2325.75 1230,2277.5C 1210.56,2233.54 1201.9,2187.54 1204,2139.5C 1211.67,2083.83 1225.67,2029.83 1246,1977.5C 1291.88,1858.75 1357.54,1752.75 1443,1659.5C 1470.26,1630.89 1500.42,1606.06 1533.5,1585C 1559.58,1569.03 1587.58,1558.53 1617.5,1553.5 Z"/></g>
<g><path style="opacity:1" fill="#371a46" d="M 5949.5,6739.5 C 5948.6,6740.21 5948.26,6741.21 5948.5,6742.5C 6166.83,6742.5 6385.17,6742.5 6603.5,6742.5C 6628.2,6746.03 6641.87,6760.2 6644.5,6785C 6643.2,6808.48 6631.2,6822.98 6608.5,6828.5C 6609.82,6825.59 6612.16,6824.09 6615.5,6824C 6612.62,6823.13 6609.95,6823.46 6607.5,6825C 6488.83,6825.17 6370.17,6825.33 6251.5,6825.5C 4969.02,6824.51 3686.35,6824.17 2403.5,6824.5C 2210.16,6824.43 2016.83,6824.93 1823.5,6826C 1824.33,6826.91 1825.33,6827.58 1826.5,6828C 1868.17,6828.5 1909.83,6828.67 1951.5,6828.5C 2252.83,6828.5 2554.17,6828.5 2855.5,6828.5C 3172.83,6828.67 3490.17,6828.5 3807.5,6828C 3543.5,6827.67 3279.5,6827.33 3015.5,6827C 3017.89,6826.71 3020.22,6826.21 3022.5,6825.5C 3551.24,6826.18 4080.08,6826.18 4609,6825.5C 4960.64,6826.17 5312.14,6826.83 5663.5,6827.5C 5045.17,6827.33 4426.83,6827.5 3808.5,6828C 4129,6828.17 4449.33,6828.67 4769.5,6829.5C 3785.83,6829.67 2802.17,6829.5 1818.5,6829C 1795.15,6823.66 1782.82,6808.99 1781.5,6785C 1783.25,6763.25 1794.58,6749.25 1815.5,6743C 1843.5,6742.5 1871.5,6742.33 1899.5,6742.5C 1898.99,6718.12 1899.66,6693.78 1901.5,6669.5C 1869.81,6667.57 1843.64,6654.57 1823,6630.5C 1803.96,6606.07 1792.29,6578.4 1788,6547.5C 1783.21,6506.08 1786.87,6465.42 1799,6425.5C 1848.66,6269.23 1942.99,6148.23 2082,6062.5C 2118.23,5965.4 2163.56,5873.06 2218,5785.5C 2289.19,5672.29 2368.86,5565.29 2457,5464.5C 2540.16,5369.84 2628.32,5279.84 2721.5,5194.5C 2721.83,5192.67 2722.17,5190.83 2722.5,5189C 2711.24,5056.53 2700.4,4924.03 2690,4791.5C 2684.96,4689.77 2722.46,4607.93 2802.5,4546C 2849.35,4512.36 2901.68,4494.86 2959.5,4493.5C 2990.17,4493.67 3020.84,4493.5 3051.5,4493C 3050.96,4492.28 3050.29,4491.78 3049.5,4491.5C 2891.6,4334.37 2769.1,4153.04 2682,3947.5C 2518.85,3923.86 2396.85,3840.86 2316,3698.5C 2262.46,3594.62 2240.79,3484.29 2251,3367.5C 2261.32,3244.82 2303.98,3135.15 2379,3038.5C 2438.7,2965.7 2512.53,2912.03 2600.5,2877.5C 2690.97,2533.54 2869.3,2245.04 3135.5,2012C 3416.11,1772.26 3741.44,1636.6 4111.5,1605C 4477.24,1579.64 4816.24,1661.97 5128.5,1852C 5415.31,2031.8 5631.14,2274.64 5776,2580.5C 5820.02,2674.89 5854.68,2772.55 5880,2873.5C 6030,2930.5 6135.67,3033.17 6197,3181.5C 6205.26,3201.79 6212.43,3222.46 6218.5,3243.5C 6318.8,3193.23 6424.47,3176.73 6535.5,3194C 6607.68,3205.63 6676.68,3227.29 6742.5,3259C 6831.14,3302.36 6912.81,3356.02 6987.5,3420C 7027.05,3458.24 7053.88,3504.07 7068,3557.5C 7085.4,3623.98 7089.4,3691.32 7080,3759.5C 7070.76,3835.19 7047.09,3905.85 7009,3971.5C 6986.89,4007.94 6958.23,4038.28 6923,4062.5C 6897.38,4144.4 6852.21,4213.23 6787.5,4269C 6749.16,4299.92 6705.99,4321.75 6658,4334.5C 6593.08,4602.03 6472.08,4839.69 6295,5047.5C 6219.46,5134.22 6135.3,5211.22 6042.5,5278.5C 6042.17,5282.83 6041.83,5287.17 6041.5,5291.5C 6056.19,5583.59 6054.69,5875.59 6037,6167.5C 6027.34,6318.08 6008.34,6467.41 5980,6615.5C 5970.77,6657.09 5960.6,6698.42 5949.5,6739.5 Z"/></g>
<g><path style="opacity:1" fill="#fefefe" d="M 4813.5,1793.5 C 4930.48,1881.31 5034.98,1982.31 5127,2096.5C 5136.62,2108.91 5146.12,2121.41 5155.5,2134C 5155.27,2134.4 5154.94,2134.57 5154.5,2134.5C 4745.82,1970.75 4323.15,1918.92 3886.5,1979C 3611.39,2019.94 3350.72,2104.94 3104.5,2234C 3061.56,2257.02 3019.23,2280.69 2977.5,2305C 3183.2,2045.11 3444.2,1863.78 3760.5,1761C 4029.18,1678.64 4301.18,1665.97 4576.5,1723C 4657.2,1740.73 4736.2,1764.23 4813.5,1793.5 Z"/></g>
<g><path style="opacity:1" fill="#371a46" d="M 1733.5,1783.5 C 1758.81,1782.52 1771.64,1794.52 1772,1819.5C 1767.97,1832.89 1762.31,1845.55 1755,1857.5C 1685.16,1971.54 1583,2031.87 1448.5,2038.5C 1432.52,2038.09 1421.69,2030.43 1416,2015.5C 1412.02,1994.97 1419.85,1981.13 1439.5,1974C 1567.33,1968.74 1659.17,1908.91 1715,1794.5C 1720.37,1789.25 1726.54,1785.59 1733.5,1783.5 Z"/></g>
<g><path style="opacity:1" fill="#c3b8c6" d="M 4813.5,1793.5 C 5091.35,1901.99 5322.51,2073.32 5507,2307.5C 5507.69,2308.33 5507.52,2309 5506.5,2309.5C 5393.72,2242.43 5276.38,2184.1 5154.5,2134.5C 5154.94,2134.57 5155.27,2134.4 5155.5,2134C 5146.12,2121.41 5136.62,2108.91 5127,2096.5C 5034.98,1982.31 4930.48,1881.31 4813.5,1793.5 Z"/></g>
<g><path style="opacity:1" fill="#371a46" d="M 1740.5,2071.5 C 1742.42,2067.97 1743.09,2063.97 1742.5,2059.5C 1749.84,1999.52 1772,1945.85 1809,1898.5C 1814.86,1892.3 1821.03,1886.47 1827.5,1881C 1846.18,1872.63 1861.35,1876.79 1873,1893.5C 1878.12,1905.17 1877.45,1916.5 1871,1927.5C 1843.31,1955.85 1824.65,1989.52 1815,2028.5C 1804.27,2071.85 1799.93,2115.85 1802,2160.5C 1804.12,2200.38 1809.79,2239.71 1819,2278.5C 1821.96,2302.95 1811.29,2316.62 1787,2319.5C 1772.36,2319.18 1762.36,2312.18 1757,2298.5C 1738.68,2223.76 1733.18,2148.09 1740.5,2071.5 Z"/></g>
<g><path style="opacity:1" fill="#fefefe" d="M 4462.5,2040.5 C 4467.29,2041.72 4472.29,2042.39 4477.5,2042.5C 4741.64,2071.03 4994.31,2140.7 5235.5,2251.5C 5272.44,2311.05 5305.44,2372.71 5334.5,2436.5C 5083.68,2304.28 4817.02,2223.45 4534.5,2194C 4084.32,2150.42 3653.99,2222.75 3243.5,2411C 3086.38,2484.51 2939.72,2574.18 2803.5,2680C 2781.37,2697.79 2759.54,2715.96 2738,2734.5C 2738.69,2729.75 2740.02,2725.08 2742,2720.5C 2775.11,2633.95 2815.44,2550.95 2863,2471.5C 3134.77,2277.42 3434.93,2145.92 3763.5,2077C 3994.6,2030.17 4227.6,2018.01 4462.5,2040.5 Z"/></g>
<g><path style="opacity:1" fill="#604c6b" d="M 4462.5,2040.5 C 4467.77,2040.19 4472.77,2040.86 4477.5,2042.5C 4472.29,2042.39 4467.29,2041.72 4462.5,2040.5 Z"/></g>
<g><path style="opacity:1" fill="#5d4864" d="M 1742.5,2059.5 C 1743.09,2063.97 1742.42,2067.97 1740.5,2071.5C 1740.72,2067.29 1741.38,2063.29 1742.5,2059.5 Z"/></g>
<g><path style="opacity:1" fill="#371a46" d="M 1426.5,2102.5 C 1542.49,2109.88 1626.66,2165.22 1679,2268.5C 1685.85,2283.04 1691.52,2298.04 1696,2313.5C 1696.3,2340.87 1682.8,2353.37 1655.5,2351C 1647.02,2348.86 1640.52,2344.03 1636,2336.5C 1618.65,2279.92 1585.81,2234.75 1537.5,2201C 1503.22,2180.02 1465.89,2168.69 1425.5,2167C 1406.09,2161.04 1397.59,2147.87 1400,2127.5C 1403.95,2113.81 1412.78,2105.48 1426.5,2102.5 Z"/></g>
<g><path style="opacity:1" fill="#c3b8c6" d="M 5235.5,2251.5 C 5368.89,2313.51 5495.89,2386.01 5616.5,2469C 5666.88,2550.92 5708.88,2637.09 5742.5,2727.5C 5692.5,2681.15 5640.17,2637.82 5585.5,2597.5C 5505.84,2537.89 5422.17,2484.22 5334.5,2436.5C 5305.44,2372.71 5272.44,2311.05 5235.5,2251.5 Z"/></g>
<g><path style="opacity:1" fill="#9b8ca1" d="M 3455.5,2573.5 C 3468.01,2571.5 3476.84,2576.17 3482,2587.5C 3483.33,2594.25 3482.33,2600.58 3479,2606.5C 3358.6,2747.58 3254.26,2899.91 3166,3063.5C 3088.23,3209.45 3030.57,3363.11 2993,3524.5C 2971.81,3618.64 2959.15,3713.98 2955,3810.5C 2952.63,3821.87 2945.63,3827.87 2934,3828.5C 2924.93,3828.09 2918.6,3823.76 2915,3815.5C 2880.38,3695.09 2854.72,3572.76 2838,3448.5C 2826.59,3365.13 2823.59,3281.46 2829,3197.5C 2831.28,3159.21 2838.28,3121.87 2850,3085.5C 2865.82,3042.17 2889.49,3003.84 2921,2970.5C 3076.34,2807.12 3254.51,2674.78 3455.5,2573.5 Z"/></g>
<g><path style="opacity:1" fill="#2a1a3b" d="M 5585.5,2597.5 C 5640.17,2637.82 5692.5,2681.15 5742.5,2727.5C 5743.47,2729.95 5743.81,2732.61 5743.5,2735.5C 5744.5,2735.5 5745.5,2735.5 5746.5,2735.5C 5755.75,2763.92 5765.25,2792.25 5775,2820.5C 5775.41,2826.28 5776.41,2831.94 5778,2837.5C 5781.04,2843.76 5783.7,2850.09 5786,2856.5C 5786.74,2862.21 5787.74,2867.88 5789,2873.5C 5789.42,2874.67 5790.09,2875.67 5791,2876.5C 5795.24,2895.33 5799.91,2913.99 5805,2932.5C 5807.86,2952.32 5811.36,2971.98 5815.5,2991.5C 5816.5,2991.5 5817.5,2991.5 5818.5,2991.5C 5818.48,2996.24 5819.48,3000.74 5821.5,3005C 5821.04,3007.15 5820.71,3009.31 5820.5,3011.5C 5825.14,3039.41 5829.14,3067.41 5832.5,3095.5C 5833.5,3103.47 5833.83,3111.47 5833.5,3119.5C 5834.5,3119.5 5835.5,3119.5 5836.5,3119.5C 5842.16,3194.08 5844.49,3268.74 5843.5,3343.5C 5841.92,3368.81 5840.58,3394.15 5839.5,3419.5C 5837.16,3450.22 5834.49,3480.89 5831.5,3511.5C 5830.5,3511.5 5829.5,3511.5 5828.5,3511.5C 5828.5,3516.83 5828.5,3522.17 5828.5,3527.5C 5827.5,3527.5 5826.5,3527.5 5825.5,3527.5C 5824.49,3543.57 5822.82,3559.57 5820.5,3575.5C 5819.5,3575.5 5818.5,3575.5 5817.5,3575.5C 5815.96,3593.97 5813.46,3612.3 5810,3630.5C 5808.43,3631.71 5807.6,3633.38 5807.5,3635.5C 5803.7,3655.35 5799.2,3675.02 5794,3694.5C 5786.5,3721.48 5778.84,3748.48 5771,3775.5C 5767.53,3784.9 5763.87,3794.23 5760,3803.5C 5759.67,3805.83 5759.33,3808.17 5759,3810.5C 5754.53,3822.78 5750.36,3835.11 5746.5,3847.5C 5745.5,3847.5 5744.5,3847.5 5743.5,3847.5C 5743.81,3850.25 5743.48,3852.91 5742.5,3855.5C 5740.55,3860.18 5738.88,3865.01 5737.5,3870C 5736.33,3871.5 5735.16,3873 5734,3874.5C 5730.62,3888.64 5725.29,3901.98 5718,3914.5C 5717.13,3918.94 5715.96,3923.28 5714.5,3927.5C 5713.5,3927.5 5712.5,3927.5 5711.5,3927.5C 5711.5,3930.17 5711.5,3932.83 5711.5,3935.5C 5710.5,3935.5 5709.5,3935.5 5708.5,3935.5C 5703.81,3946.72 5699.31,3958.05 5695,3969.5C 5690.45,3974.26 5687.79,3979.93 5687,3986.5C 5683.67,3993.83 5679.84,4000.83 5675.5,4007.5C 5674.09,4011.98 5672.42,4016.31 5670.5,4020.5C 5668.88,4021.12 5667.55,4022.12 5666.5,4023.5C 5664.28,4026.78 5663.11,4030.45 5663,4034.5C 5659.7,4037.44 5657.7,4041.11 5657,4045.5C 5652.16,4052.01 5648.16,4059.01 5645,4066.5C 5640.62,4069.63 5638.79,4073.96 5639.5,4079.5C 5638.32,4079.28 5637.32,4079.61 5636.5,4080.5C 5632.54,4086.68 5629.04,4093.01 5626,4099.5C 5620.4,4106.41 5616.06,4114.07 5613,4122.5C 5608.96,4125.91 5606.46,4130.24 5605.5,4135.5C 5604.32,4135.28 5603.32,4135.61 5602.5,4136.5C 5600.64,4138.86 5599.47,4141.53 5599,4144.5C 5596.92,4146.08 5595.42,4148.08 5594.5,4150.5C 5593.68,4151.39 5592.68,4151.72 5591.5,4151.5C 5591.66,4153.53 5591.5,4155.53 5591,4157.5C 5587.5,4161.2 5585,4165.53 5583.5,4170.5C 5581.41,4170.56 5579.91,4171.56 5579,4173.5C 5577,4177.5 5575,4181.5 5573,4185.5C 5570.46,4189.25 5567.46,4192.59 5564,4195.5C 5560.02,4204.49 5554.35,4212.16 5547,4218.5C 5545.76,4221.41 5544.09,4224.08 5542,4226.5C 5541.51,4228.13 5541.34,4229.8 5541.5,4231.5C 5540.5,4231.5 5539.5,4231.5 5538.5,4231.5C 5537.22,4234.01 5536.22,4236.68 5535.5,4239.5C 5531.83,4240.85 5529.49,4243.51 5528.5,4247.5C 5525.24,4249.4 5523.24,4252.06 5522.5,4255.5C 5521.5,4255.5 5520.5,4255.5 5519.5,4255.5C 5519.5,4256.83 5519.5,4258.17 5519.5,4259.5C 5518.18,4259.33 5517.01,4259.66 5516,4260.5C 5512.34,4269.66 5507,4277.66 5500,4284.5C 5499.52,4285.45 5499.35,4286.45 5499.5,4287.5C 5498.17,4287.5 5496.83,4287.5 5495.5,4287.5C 5495.76,4288.98 5495.43,4290.31 5494.5,4291.5C 5492.26,4293.65 5490.26,4295.98 5488.5,4298.5C 5487.55,4300.05 5487.21,4301.71 5487.5,4303.5C 5486.45,4303.35 5485.45,4303.52 5484.5,4304C 5483.67,4306.17 5482.17,4307.67 5480,4308.5C 5479.52,4309.45 5479.35,4310.45 5479.5,4311.5C 5478.5,4311.5 5477.5,4311.5 5476.5,4311.5C 5476.59,4314.54 5475.09,4316.21 5472,4316.5C 5471.52,4317.45 5471.35,4318.45 5471.5,4319.5C 5470.5,4319.5 5469.5,4319.5 5468.5,4319.5C 5468.66,4320.87 5468.49,4322.21 5468,4323.5C 5465.84,4325.48 5464.34,4327.81 5463.5,4330.5C 5462.13,4330.34 5460.79,4330.51 5459.5,4331C 5456.69,4336.13 5453.53,4340.96 5450,4345.5C 5448.09,4346.69 5446.09,4347.69 5444,4348.5C 5443.09,4352.52 5441.59,4356.19 5439.5,4359.5C 5436.64,4360.41 5434.14,4362.08 5432,4364.5C 5431.52,4365.45 5431.35,4366.45 5431.5,4367.5C 5430.32,4367.28 5429.32,4367.61 5428.5,4368.5C 5426.43,4370.66 5424.76,4372.99 5423.5,4375.5C 5422.5,4375.5 5421.5,4375.5 5420.5,4375.5C 5420.07,4378.29 5418.73,4380.62 5416.5,4382.5C 5413.27,4386.29 5409.6,4389.62 5405.5,4392.5C 5401.88,4397.49 5397.54,4401.82 5392.5,4405.5C 5385.75,4414.01 5378.25,4422.01 5370,4429.5C 5368.56,4430.9 5367.73,4432.57 5367.5,4434.5C 5364.5,4434.33 5362.5,4435.67 5361.5,4438.5C 5356.68,4440.98 5353.35,4444.64 5351.5,4449.5C 5347.31,4450.59 5344.31,4453.09 5342.5,4457C 5335.61,4464.06 5328.28,4470.56 5320.5,4476.5C 5319.61,4477.32 5319.28,4478.32 5319.5,4479.5C 5317.09,4480.69 5314.76,4482.19 5312.5,4484C 5311.66,4485.01 5311.33,4486.18 5311.5,4487.5C 5309.83,4487.5 5308.17,4487.5 5306.5,4487.5C 5306.5,4488.5 5306.5,4489.5 5306.5,4490.5C 5304.82,4490.29 5303.82,4490.95 5303.5,4492.5C 4596.17,4492.67 3888.83,4492.5 3181.5,4492C 3179.84,4490.34 3177.84,4489.5 3175.5,4489.5C 3173.94,4488.02 3172.27,4486.52 3170.5,4485C 3169.55,4484.52 3168.55,4484.35 3167.5,4484.5C 3167.5,4482.83 3167.5,4481.17 3167.5,4479.5C 3166.5,4479.5 3165.5,4479.5 3164.5,4479.5C 3164.5,4476.17 3162.83,4474.5 3159.5,4474.5C 3159.5,4473.5 3159.5,4472.5 3159.5,4471.5C 3158.17,4471.5 3156.83,4471.5 3155.5,4471.5C 3155.67,4470.18 3155.34,4469.01 3154.5,4468C 3151.39,4467.95 3149.06,4466.61 3147.5,4464C 3146.21,4463.51 3144.87,4463.34 3143.5,4463.5C 3143.5,4461.83 3143.5,4460.17 3143.5,4458.5C 3142.5,4458.5 3141.5,4458.5 3140.5,4458.5C 3140.5,4457.5 3140.5,4456.5 3140.5,4455.5C 3138.83,4455.5 3137.17,4455.5 3135.5,4455.5C 3135.5,4453.83 3135.5,4452.17 3135.5,4450.5C 3134.5,4450.5 3133.5,4450.5 3132.5,4450.5C 3132.5,4449.5 3132.5,4448.5 3132.5,4447.5C 3130.83,4447.5 3129.17,4447.5 3127.5,4447.5C 3126.59,4444.64 3124.92,4442.14 3122.5,4440C 3121.55,4439.52 3120.55,4439.35 3119.5,4439.5C 3118.59,4436.64 3116.92,4434.14 3114.5,4432C 3113.55,4431.52 3112.55,4431.35 3111.5,4431.5C 3111.65,4430.45 3111.48,4429.45 3111,4428.5C 3108.83,4427.67 3107.33,4426.17 3106.5,4424C 3105.55,4423.52 3104.55,4423.35 3103.5,4423.5C 3103.65,4422.45 3103.48,4421.45 3103,4420.5C 3100.83,4419.67 3099.33,4418.17 3098.5,4416C 3097.55,4415.52 3096.55,4415.35 3095.5,4415.5C 3095.65,4414.45 3095.48,4413.45 3095,4412.5C 3092.83,4411.67 3091.33,4410.17 3090.5,4408C 3089.55,4407.52 3088.55,4407.35 3087.5,4407.5C 3087.5,4406.5 3087.5,4405.5 3087.5,4404.5C 3084.58,4404.15 3082.25,4405.15 3080.5,4407.5C 3079.52,4405.88 3080.02,4404.54 3082,4403.5C 3082.49,4402.21 3082.66,4400.87 3082.5,4399.5C 3081.5,4399.5 3080.5,4399.5 3079.5,4399.5C 3079.5,4398.5 3079.5,4397.5 3079.5,4396.5C 3077.74,4396.36 3076.07,4396.69 3074.5,4397.5C 3074.08,4395.67 3074.08,4393.67 3074.5,4391.5C 3073.5,4391.5 3072.5,4391.5 3071.5,4391.5C 3071.5,4390.5 3071.5,4389.5 3071.5,4388.5C 3069.74,4388.36 3068.07,4388.69 3066.5,4389.5C 3065.41,4388.13 3065.74,4386.97 3067.5,4386C 3066.69,4384.29 3065.36,4383.46 3063.5,4383.5C 3062.5,4379.13 3060.17,4375.46 3056.5,4372.5C 3055.55,4370.95 3055.21,4369.29 3055.5,4367.5C 3052.59,4367.74 3050.26,4366.74 3048.5,4364.5C 3047.55,4362.95 3047.21,4361.29 3047.5,4359.5C 3045.71,4359.79 3044.05,4359.45 3042.5,4358.5C 3038.8,4351.93 3034.47,4345.77 3029.5,4340C 3028.23,4339.69 3027.07,4339.19 3026,4338.5C 3024.02,4334.7 3021.52,4331.37 3018.5,4328.5C 3017.68,4327.61 3016.68,4327.28 3015.5,4327.5C 3013.09,4324.41 3011.59,4320.74 3011,4316.5C 3008.91,4315.69 3006.91,4314.69 3005,4313.5C 3004.22,4310.92 3002.72,4308.92 3000.5,4307.5C 2999.57,4306.31 2999.24,4304.98 2999.5,4303.5C 2998.17,4303.5 2996.83,4303.5 2995.5,4303.5C 2993.2,4299.66 2991.03,4295.66 2989,4291.5C 2987.74,4289.25 2985.91,4287.92 2983.5,4287.5C 2983.5,4285.83 2983.5,4284.17 2983.5,4282.5C 2980.68,4281.78 2978.01,4280.78 2975.5,4279.5C 2972.82,4271.81 2968.49,4265.14 2962.5,4259.5C 2961.57,4258.31 2961.24,4256.98 2961.5,4255.5C 2953.99,4255.66 2950.66,4251.99 2951.5,4244.5C 2949.86,4244.71 2948.36,4244.38 2947,4243.5C 2946,4239.28 2944.5,4235.28 2942.5,4231.5C 2938.47,4228.05 2936.13,4223.72 2935.5,4218.5C 2934.5,4218.5 2933.5,4218.5 2932.5,4218.5C 2932.31,4216.44 2931.81,4214.44 2931,4212.5C 2929.99,4211.66 2928.82,4211.33 2927.5,4211.5C 2926.29,4208.59 2925.12,4205.59 2924,4202.5C 2919.28,4198.81 2915.28,4194.48 2912,4189.5C 2911.5,4187.53 2911.34,4185.53 2911.5,4183.5C 2910.17,4183.5 2908.83,4183.5 2907.5,4183.5C 2905.61,4180.42 2904.11,4177.09 2903,4173.5C 2898.45,4169.82 2895.95,4165.15 2895.5,4159.5C 2894.17,4159.5 2892.83,4159.5 2891.5,4159.5C 2888.8,4154.81 2886.47,4149.81 2884.5,4144.5C 2883.68,4143.61 2882.68,4143.28 2881.5,4143.5C 2881,4138.13 2878.5,4133.8 2874,4130.5C 2872.09,4125.6 2869.75,4120.93 2867,4116.5C 2866,4115.83 2865,4115.17 2864,4114.5C 2863.35,4111.19 2861.68,4108.53 2859,4106.5C 2857.46,4100.3 2854.46,4094.97 2850,4090.5C 2843.99,4079.81 2837.99,4069.14 2832,4058.5C 2829.42,4053.76 2827.42,4048.76 2826,4043.5C 2823.42,4040.67 2821.09,4037.67 2819,4034.5C 2818.73,4028.77 2816.39,4024.1 2812,4020.5C 2811.03,4014.25 2808.37,4008.92 2804,4004.5C 2802.4,4001.35 2801.4,3998.02 2801,3994.5C 2796.21,3990.26 2793.55,3984.92 2793,3978.5C 2791.84,3977 2790.67,3975.5 2789.5,3974C 2786.9,3966.33 2784.23,3958.83 2781.5,3951.5C 2780.5,3951.5 2779.5,3951.5 2778.5,3951.5C 2776.47,3943.45 2773.8,3935.45 2770.5,3927.5C 2769.5,3927.5 2768.5,3927.5 2767.5,3927.5C 2767.81,3924.75 2767.48,3922.09 2766.5,3919.5C 2760.5,3908.17 2755,3896.5 2750,3884.5C 2748.33,3878.49 2746.66,3872.49 2745,3866.5C 2743.84,3865 2742.67,3863.5 2741.5,3862C 2740.12,3857.01 2738.45,3852.18 2736.5,3847.5C 2735.52,3844.91 2735.19,3842.25 2735.5,3839.5C 2734.5,3839.5 2733.5,3839.5 2732.5,3839.5C 2731.66,3836.31 2730.66,3833.15 2729.5,3830C 2729.61,3828.72 2730.28,3827.89 2731.5,3827.5C 2733.28,3829.67 2734.95,3832 2736.5,3834.5C 2738.66,3836.57 2740.99,3838.24 2743.5,3839.5C 2743.5,3841.17 2743.5,3842.83 2743.5,3844.5C 2744.5,3844.5 2745.5,3844.5 2746.5,3844.5C 2746.5,3845.5 2746.5,3846.5 2746.5,3847.5C 2748.17,3847.5 2749.83,3847.5 2751.5,3847.5C 2751.5,3849.17 2751.5,3850.83 2751.5,3852.5C 2752.5,3852.5 2753.5,3852.5 2754.5,3852.5C 2754.5,3853.5 2754.5,3854.5 2754.5,3855.5C 2756.17,3855.5 2757.83,3855.5 2759.5,3855.5C 2760.5,3859.83 2763.17,3862.5 2767.5,3863.5C 2768.5,3867.83 2771.17,3870.5 2775.5,3871.5C 2776.5,3875.83 2779.17,3878.5 2783.5,3879.5C 2784.5,3883.83 2787.17,3886.5 2791.5,3887.5C 2791.35,3888.55 2791.52,3889.55 2792,3890.5C 2794.17,3891.33 2795.67,3892.83 2796.5,3895C 2797.45,3895.48 2798.45,3895.65 2799.5,3895.5C 2799.5,3897.17 2799.5,3898.83 2799.5,3900.5C 2800.5,3900.5 2801.5,3900.5 2802.5,3900.5C 2802.5,3901.5 2802.5,3902.5 2802.5,3903.5C 2804.17,3903.5 2805.83,3903.5 2807.5,3903.5C 2807.28,3904.68 2807.61,3905.68 2808.5,3906.5C 2810.66,3908.57 2812.99,3910.24 2815.5,3911.5C 2815.28,3912.68 2815.61,3913.68 2816.5,3914.5C 2821.43,3918.25 2826.26,3922.25 2831,3926.5C 2831.48,3927.45 2831.65,3928.45 2831.5,3929.5C 2832.55,3929.35 2833.55,3929.52 2834.5,3930C 2838.64,3933.59 2842.81,3937.09 2847,3940.5C 2847.48,3941.45 2847.65,3942.45 2847.5,3943.5C 2848.5,3943.5 2849.5,3943.5 2850.5,3943.5C 2850.18,3947.17 2851.85,3948.84 2855.5,3948.5C 2855.5,3949.5 2855.5,3950.5 2855.5,3951.5C 2857.17,3951.5 2858.83,3951.5 2860.5,3951.5C 2860.35,3952.55 2860.52,3953.55 2861,3954.5C 2865.23,3955.8 2867.73,3958.63 2868.5,3963C 2872.52,3963.91 2876.19,3965.41 2879.5,3967.5C 2879.56,3970.05 2880.89,3971.55 2883.5,3972C 2885.15,3974.16 2886.81,3976.33 2888.5,3978.5C 2892.99,3980.58 2896.99,3983.42 2900.5,3987C 2901.45,3987.48 2902.45,3987.65 2903.5,3987.5C 2903.5,3988.83 2903.5,3990.17 2903.5,3991.5C 2904.98,3991.24 2906.31,3991.57 2907.5,3992.5C 2910.32,3995.07 2913.32,3997.41 2916.5,3999.5C 2917.44,3999.39 2918.28,3999.06 2919,3998.5C 2919.72,4001.77 2921.22,4004.6 2923.5,4007C 2930.14,4009.8 2935.81,4013.97 2940.5,4019.5C 2941.32,4020.39 2942.32,4020.72 2943.5,4020.5C 2943.56,4022.59 2944.56,4024.09 2946.5,4025C 2951.35,4026.54 2955.69,4028.71 2959.5,4031.5C 2959.92,4033.91 2961.25,4035.74 2963.5,4037C 2968.17,4038.73 2972.17,4041.23 2975.5,4044.5C 2975.5,4045.5 2975.5,4046.5 2975.5,4047.5C 2976.83,4047.5 2978.17,4047.5 2979.5,4047.5C 2979.5,4048.5 2979.5,4049.5 2979.5,4050.5C 2981.93,4050.52 2984.26,4051.02 2986.5,4052C 2992.45,4056.28 2998.12,4060.95 3003.5,4066C 3011.51,4070 3019.18,4074.5 3026.5,4079.5C 3026.5,4080.5 3026.5,4081.5 3026.5,4082.5C 3032.07,4084.48 3037.41,4086.98 3042.5,4090C 3049.67,4097.24 3058,4102.41 3067.5,4105.5C 3067.33,4106.82 3067.66,4107.99 3068.5,4109C 3071.91,4110.93 3075.57,4111.77 3079.5,4111.5C 3079.5,4112.5 3079.5,4113.5 3079.5,4114.5C 3080.55,4114.35 3081.55,4114.52 3082.5,4115C 3090.07,4121.36 3098.4,4126.53 3107.5,4130.5C 3109.76,4134.1 3113.1,4135.94 3117.5,4136C 3120.93,4140.05 3125.26,4142.55 3130.5,4143.5C 3130.5,4144.5 3130.5,4145.5 3130.5,4146.5C 3139.34,4149.62 3147.68,4153.78 3155.5,4159C 3156.79,4159.49 3158.13,4159.66 3159.5,4159.5C 3159.5,4160.5 3159.5,4161.5 3159.5,4162.5C 3164.04,4162.88 3168.37,4164.05 3172.5,4166C 3176.59,4168.4 3180.26,4171.23 3183.5,4174.5C 3186.09,4175.48 3188.75,4175.81 3191.5,4175.5C 3191.28,4176.68 3191.61,4177.68 3192.5,4178.5C 3196.83,4182.16 3201.83,4183.83 3207.5,4183.5C 3207.5,4184.5 3207.5,4185.5 3207.5,4186.5C 3210.49,4187.1 3213.16,4188.43 3215.5,4190.5C 3218.09,4191.48 3220.75,4191.81 3223.5,4191.5C 3223.5,4192.5 3223.5,4193.5 3223.5,4194.5C 3228.88,4196.18 3234.22,4197.85 3239.5,4199.5C 3239.5,4200.5 3239.5,4201.5 3239.5,4202.5C 3247.53,4205.5 3255.53,4208.5 3263.5,4211.5C 3270.12,4216.55 3277.62,4219.89 3286,4221.5C 3292.04,4224.23 3297.87,4227.23 3303.5,4230.5C 3308.9,4231.96 3314.23,4233.3 3319.5,4234.5C 3319.5,4235.5 3319.5,4236.5 3319.5,4237.5C 3327.31,4240.07 3335.31,4242.41 3343.5,4244.5C 3343.5,4245.5 3343.5,4246.5 3343.5,4247.5C 3354.13,4250.15 3364.8,4252.82 3375.5,4255.5C 3375.5,4256.5 3375.5,4257.5 3375.5,4258.5C 3378.17,4258.5 3380.83,4258.5 3383.5,4258.5C 3383.5,4259.5 3383.5,4260.5 3383.5,4261.5C 3406.21,4267.68 3428.54,4275.18 3450.5,4284C 3463.51,4285.88 3475.84,4289.38 3487.5,4294.5C 3523.86,4303.27 3560.19,4312.1 3596.5,4321C 3601.83,4321.33 3607.17,4321.67 3612.5,4322C 3615.91,4323.93 3619.57,4324.77 3623.5,4324.5C 3623.5,4325.5 3623.5,4326.5 3623.5,4327.5C 3628.83,4327.5 3634.17,4327.5 3639.5,4327.5C 3639.5,4328.5 3639.5,4329.5 3639.5,4330.5C 3681.92,4337.76 3724.58,4343.76 3767.5,4348.5C 3859.37,4356.98 3951.37,4358.65 4043.5,4353.5C 4074.21,4351.49 4104.87,4349.16 4135.5,4346.5C 4135.5,4345.5 4135.5,4344.5 4135.5,4343.5C 4148.91,4343.6 4162.24,4342.6 4175.5,4340.5C 4206.81,4335.23 4238.14,4330.06 4269.5,4325C 4292.33,4318.16 4315.67,4312.83 4339.5,4309C 4349.64,4304.47 4360.3,4301.8 4371.5,4301C 4378.99,4297.95 4386.65,4295.28 4394.5,4293C 4398.82,4292.1 4403.15,4291.27 4407.5,4290.5C 4432.5,4280.98 4458.17,4272.82 4484.5,4266C 4495.53,4260.16 4507.19,4255.99 4519.5,4253.5C 4519.5,4252.5 4519.5,4251.5 4519.5,4250.5C 4522.17,4250.5 4524.83,4250.5 4527.5,4250.5C 4527.5,4249.5 4527.5,4248.5 4527.5,4247.5C 4532.27,4247.31 4536.94,4246.48 4541.5,4245C 4543.31,4242.62 4545.64,4240.95 4548.5,4240C 4558.71,4236.07 4569.04,4232.4 4579.5,4229C 4583.87,4225.65 4588.87,4223.65 4594.5,4223C 4605.66,4215.73 4617.66,4210.39 4630.5,4207C 4633.33,4204.68 4636.33,4202.51 4639.5,4200.5C 4645.39,4199.54 4650.72,4197.54 4655.5,4194.5C 4655.5,4193.5 4655.5,4192.5 4655.5,4191.5C 4658.25,4191.81 4660.91,4191.48 4663.5,4190.5C 4664.78,4188.85 4666.45,4187.69 4668.5,4187C 4672.22,4185.7 4675.88,4184.54 4679.5,4183.5C 4679.5,4182.5 4679.5,4181.5 4679.5,4180.5C 4682.17,4179.83 4684.83,4179.17 4687.5,4178.5C 4687.5,4177.5 4687.5,4176.5 4687.5,4175.5C 4690.25,4175.81 4692.91,4175.48 4695.5,4174.5C 4698.46,4173.49 4701.12,4172.16 4703.5,4170.5C 4703.5,4169.5 4703.5,4168.5 4703.5,4167.5C 4708.37,4168.12 4712.37,4166.62 4715.5,4163C 4716.79,4162.51 4718.13,4162.34 4719.5,4162.5C 4719.5,4161.5 4719.5,4160.5 4719.5,4159.5C 4725.04,4160.21 4729.37,4158.38 4732.5,4154C 4746.87,4147.73 4760.2,4139.9 4772.5,4130.5C 4777.93,4128.63 4783.26,4126.47 4788.5,4124C 4792.44,4118.53 4797.78,4115.36 4804.5,4114.5C 4804.5,4113.5 4804.5,4112.5 4804.5,4111.5C 4805.5,4111.5 4806.5,4111.5 4807.5,4111.5C 4807.3,4109.61 4807.96,4108.11 4809.5,4107C 4816.51,4102.99 4823.85,4099.82 4831.5,4097.5C 4832.47,4094.96 4834.13,4092.79 4836.5,4091C 4838.62,4090.74 4840.28,4089.74 4841.5,4088C 4843.47,4087.5 4845.47,4087.34 4847.5,4087.5C 4847.5,4086.5 4847.5,4085.5 4847.5,4084.5C 4849.97,4084.26 4851.64,4082.93 4852.5,4080.5C 4855.73,4080.25 4858.07,4078.75 4859.5,4076C 4862.77,4074.39 4865.77,4072.39 4868.5,4070C 4872.11,4068.86 4875.45,4067.19 4878.5,4065C 4879.34,4063.99 4879.67,4062.82 4879.5,4061.5C 4882.01,4061.25 4884.35,4060.41 4886.5,4059C 4887.34,4057.99 4887.67,4056.82 4887.5,4055.5C 4888.87,4055.66 4890.21,4055.49 4891.5,4055C 4901.77,4047.74 4911.77,4040.07 4921.5,4032C 4924.22,4030.09 4927.22,4028.76 4930.5,4028C 4932.04,4026.89 4932.7,4025.39 4932.5,4023.5C 4940.87,4018.64 4948.54,4012.81 4955.5,4006C 4958.31,4004.26 4961.31,4003.09 4964.5,4002.5C 4964.5,4001.5 4964.5,4000.5 4964.5,3999.5C 4965.5,3999.5 4966.5,3999.5 4967.5,3999.5C 4967.17,3993.97 4969.84,3990.97 4975.5,3990.5C 4982.94,3984.45 4990.27,3978.28 4997.5,3972C 4999.17,3971.67 5000.83,3971.33 5002.5,3971C 5003.34,3969.99 5003.67,3968.82 5003.5,3967.5C 5004.83,3967.5 5006.17,3967.5 5007.5,3967.5C 5007.5,3966.5 5007.5,3965.5 5007.5,3964.5C 5010.83,3964.5 5012.5,3962.83 5012.5,3959.5C 5013.5,3959.5 5014.5,3959.5 5015.5,3959.5C 5015.5,3958.17 5015.5,3956.83 5015.5,3955.5C 5020.2,3953.08 5024.53,3949.91 5028.5,3946C 5029.45,3945.52 5030.45,3945.35 5031.5,3945.5C 5031.5,3944.17 5031.5,3942.83 5031.5,3941.5C 5036.85,3940.56 5040.68,3937.56 5043,3932.5C 5045.67,3931.78 5047.17,3930.11 5047.5,3927.5C 5049.91,3926.31 5052.24,3924.81 5054.5,3923C 5055.34,3921.99 5055.67,3920.82 5055.5,3919.5C 5056.98,3919.76 5058.31,3919.43 5059.5,3918.5C 5060.17,3917.17 5061.17,3916.17 5062.5,3915.5C 5063.43,3914.31 5063.76,3912.98 5063.5,3911.5C 5064.98,3911.76 5066.31,3911.43 5067.5,3910.5C 5068.17,3909.17 5069.17,3908.17 5070.5,3907.5C 5071.43,3906.31 5071.76,3904.98 5071.5,3903.5C 5073.17,3903.5 5074.83,3903.5 5076.5,3903.5C 5076.5,3902.5 5076.5,3901.5 5076.5,3900.5C 5081.57,3900.87 5084.41,3898.53 5085,3893.5C 5086.65,3892.28 5088.48,3891.45 5090.5,3891C 5091.33,3889.18 5092.16,3887.35 5093,3885.5C 5098.5,3880 5104,3874.5 5109.5,3869C 5111.09,3868.14 5112.75,3867.47 5114.5,3867C 5115.34,3865.99 5115.67,3864.82 5115.5,3863.5C 5116.83,3863.5 5118.17,3863.5 5119.5,3863.5C 5119.5,3862.17 5119.5,3860.83 5119.5,3859.5C 5120.55,3859.65 5121.55,3859.48 5122.5,3859C 5123.33,3854.17 5126.17,3851.33 5131,3850.5C 5131.81,3848.56 5132.31,3846.56 5132.5,3844.5C 5133.5,3844.5 5134.5,3844.5 5135.5,3844.5C 5135.5,3842.83 5135.5,3841.17 5135.5,3839.5C 5136.98,3839.76 5138.31,3839.43 5139.5,3838.5C 5140.17,3837.17 5141.17,3836.17 5142.5,3835.5C 5143.43,3834.31 5143.76,3832.98 5143.5,3831.5C 5144.98,3831.76 5146.31,3831.43 5147.5,3830.5C 5148.17,3829.17 5149.17,3828.17 5150.5,3827.5C 5151.43,3826.31 5151.76,3824.98 5151.5,3823.5C 5152.55,3823.65 5153.55,3823.48 5154.5,3823C 5155.33,3820.83 5156.83,3819.33 5159,3818.5C 5159.48,3817.55 5159.65,3816.55 5159.5,3815.5C 5162.05,3815.44 5163.55,3814.11 5164,3811.5C 5166.16,3809.85 5168.33,3808.19 5170.5,3806.5C 5175.3,3799.22 5180.8,3792.55 5187,3786.5C 5187.48,3785.55 5187.65,3784.55 5187.5,3783.5C 5188.83,3783.5 5190.17,3783.5 5191.5,3783.5C 5191.5,3782.5 5191.5,3781.5 5191.5,3780.5C 5193.39,3780.7 5194.89,3780.04 5196,3778.5C 5196.25,3776.57 5196.75,3774.73 5197.5,3773C 5199.35,3772.16 5201.18,3771.33 5203,3770.5C 5203.91,3766.48 5205.41,3762.81 5207.5,3759.5C 5208.68,3759.72 5209.68,3759.39 5210.5,3758.5C 5215.38,3751.44 5220.88,3744.77 5227,3738.5C 5227.48,3737.55 5227.65,3736.55 5227.5,3735.5C 5228.83,3735.5 5230.17,3735.5 5231.5,3735.5C 5231.52,3732.48 5232.52,3729.81 5234.5,3727.5C 5246.92,3713.89 5258.09,3699.23 5268,3683.5C 5273.84,3679.15 5278.01,3673.48 5280.5,3666.5C 5283.09,3664.56 5285.26,3662.22 5287,3659.5C 5287.49,3658.21 5287.66,3656.87 5287.5,3655.5C 5289.91,3655.08 5291.74,3653.75 5293,3651.5C 5297.8,3643.96 5302.47,3636.3 5307,3628.5C 5313.77,3621.96 5318.77,3614.29 5322,3605.5C 5324.76,3601.67 5327.76,3598 5331,3594.5C 5333.91,3587.65 5337.75,3581.32 5342.5,3575.5C 5343.57,3572.8 5344.57,3570.13 5345.5,3567.5C 5346.5,3567.5 5347.5,3567.5 5348.5,3567.5C 5348.34,3566.13 5348.51,3564.79 5349,3563.5C 5355.98,3550.89 5363.48,3538.55 5371.5,3526.5C 5374.57,3520.27 5377.24,3513.93 5379.5,3507.5C 5380.83,3506.5 5382.17,3505.5 5383.5,3504.5C 5386.18,3499.14 5388.85,3493.8 5391.5,3488.5C 5392.32,3487.61 5393.32,3487.28 5394.5,3487.5C 5395.17,3484.83 5395.83,3482.17 5396.5,3479.5C 5397.5,3479.5 5398.5,3479.5 5399.5,3479.5C 5399.5,3476.83 5399.5,3474.17 5399.5,3471.5C 5400.5,3471.5 5401.5,3471.5 5402.5,3471.5C 5405.43,3466.7 5407.43,3461.37 5408.5,3455.5C 5410.13,3452.54 5412.13,3449.87 5414.5,3447.5C 5415.41,3441.26 5418.08,3435.93 5422.5,3431.5C 5423.62,3425.76 5425.62,3420.42 5428.5,3415.5C 5429.5,3415.5 5430.5,3415.5 5431.5,3415.5C 5431.5,3412.83 5431.5,3410.17 5431.5,3407.5C 5432.5,3407.5 5433.5,3407.5 5434.5,3407.5C 5435.22,3400.71 5437.72,3394.71 5442,3389.5C 5442.5,3387.53 5442.66,3385.53 5442.5,3383.5C 5443.5,3383.5 5444.5,3383.5 5445.5,3383.5C 5446.4,3379.55 5447.4,3375.55 5448.5,3371.5C 5452.53,3364.45 5455.7,3357.12 5458,3349.5C 5459.86,3347.62 5461.36,3345.46 5462.5,3343C 5462.17,3342.67 5461.83,3342.33 5461.5,3342C 5463.11,3340.95 5463.77,3339.45 5463.5,3337.5C 5464.17,3337.5 5464.83,3337.5 5465.5,3337.5C 5505.34,3341.6 5543.34,3335.1 5579.5,3318C 5627.26,3291.19 5653.76,3250.36 5659,3195.5C 5661.27,3162.47 5656.61,3130.47 5645,3099.5C 5627.3,3054.34 5601.46,3014.68 5567.5,2980.5C 5567.17,2979.83 5566.83,2979.17 5566.5,2978.5C 5567.71,2977.05 5567.38,2975.71 5565.5,2974.5C 5566.87,2972.36 5567.87,2970.03 5568.5,2967.5C 5569.5,2959.52 5570.17,2951.52 5570.5,2943.5C 5571.5,2943.5 5572.5,2943.5 5573.5,2943.5C 5573.17,2935.47 5573.5,2927.47 5574.5,2919.5C 5577.01,2895.45 5579.84,2871.45 5583,2847.5C 5582.9,2826.07 5584.07,2804.74 5586.5,2783.5C 5587.92,2721.48 5587.58,2659.48 5585.5,2597.5 Z"/></g>
<g><path style="opacity:1" fill="#9b8ca1" d="M 5566.5,2978.5 C 5566.83,2979.17 5567.17,2979.83 5567.5,2980.5C 5566.18,2981.95 5565.34,2981.62 5565,2979.5C 5564.82,2982.15 5564.99,2984.81 5565.5,2987.5C 5563.51,2996.73 5562.51,3006.06 5562.5,3015.5C 5561.5,3015.5 5560.5,3015.5 5559.5,3015.5C 5558.33,3026.2 5556.83,3036.87 5555,3047.5C 5551.54,3057.85 5549.7,3068.51 5549.5,3079.5C 5548.17,3079.5 5546.83,3079.5 5545.5,3079.5C 5545.5,3082.17 5545.5,3084.83 5545.5,3087.5C 5547.5,3087.5 5549.5,3087.5 5551.5,3087.5C 5551.5,3090.17 5551.5,3092.83 5551.5,3095.5C 5548.5,3095.5 5545.5,3095.5 5542.5,3095.5C 5541.17,3103.5 5539.83,3111.5 5538.5,3119.5C 5540.17,3119.5 5541.83,3119.5 5543.5,3119.5C 5543.5,3122.17 5543.5,3124.83 5543.5,3127.5C 5540.83,3127.5 5538.17,3127.5 5535.5,3127.5C 5535.12,3132.95 5534.12,3138.29 5532.5,3143.5C 5531.5,3143.5 5530.5,3143.5 5529.5,3143.5C 5527.88,3154.36 5525.88,3165.03 5523.5,3175.5C 5524.83,3175.5 5526.17,3175.5 5527.5,3175.5C 5527.5,3178.17 5527.5,3180.83 5527.5,3183.5C 5524.83,3183.5 5522.17,3183.5 5519.5,3183.5C 5519.66,3185.53 5519.5,3187.53 5519,3189.5C 5509.67,3216.83 5500.33,3244.17 5491,3271.5C 5490.5,3273.47 5490.34,3275.47 5490.5,3277.5C 5489.5,3277.5 5488.5,3277.5 5487.5,3277.5C 5488.15,3281.83 5487.15,3285.66 5484.5,3289C 5483.71,3291.1 5483.38,3293.27 5483.5,3295.5C 5484.5,3295.5 5485.5,3295.5 5486.5,3295.5C 5487.72,3295.88 5488.06,3298.55 5487.5,3303.5C 5484.17,3303.5 5480.83,3303.5 5477.5,3303.5C 5475.64,3310.9 5473.47,3318.23 5471,3325.5C 5470.29,3326.97 5469.12,3327.64 5467.5,3327.5C 5467.77,3331.08 5467.1,3334.42 5465.5,3337.5C 5464.83,3337.5 5464.17,3337.5 5463.5,3337.5C 5418.03,3332.93 5375.36,3319.43 5335.5,3297C 5266.3,3258.13 5213.8,3203.3 5178,3132.5C 5159.25,3093.98 5151.25,3053.31 5154,3010.5C 5159.1,2961.78 5181.94,2923.95 5222.5,2897C 5262.48,2873.93 5305.48,2865.26 5351.5,2871C 5422.87,2880.87 5485.87,2908.87 5540.5,2955C 5549.04,2963.04 5557.7,2970.87 5566.5,2978.5 Z"/></g>
<g><path style="opacity:1" fill="#fefefe" d="M 6127.5,3247.5 C 6120.55,3276.02 6111.22,3303.68 6099.5,3330.5C 6062.87,3370.38 6033.21,3415.05 6010.5,3464.5C 5996.17,3477.5 5981.5,3490.16 5966.5,3502.5C 5950.44,3514.62 5933.6,3525.62 5916,3535.5C 5915.54,3534.91 5915.37,3534.24 5915.5,3533.5C 5941.37,3349.73 5937.71,3166.56 5904.5,2984C 5904.83,2982.83 5905.17,2981.67 5905.5,2980.5C 5986.37,3022.87 6048.54,3084.2 6092,3164.5C 6106.28,3191.18 6118.11,3218.84 6127.5,3247.5 Z"/></g>
<g><path style="opacity:1" fill="#948b9c" d="M 5567.5,2980.5 C 5601.46,3014.68 5627.3,3054.34 5645,3099.5C 5656.61,3130.47 5661.27,3162.47 5659,3195.5C 5653.76,3250.36 5627.26,3291.19 5579.5,3318C 5543.34,3335.1 5505.34,3341.6 5465.5,3337.5C 5467.1,3334.42 5467.77,3331.08 5467.5,3327.5C 5469.12,3327.64 5470.29,3326.97 5471,3325.5C 5473.47,3318.23 5475.64,3310.9 5477.5,3303.5C 5480.83,3303.5 5484.17,3303.5 5487.5,3303.5C 5488.06,3298.55 5487.72,3295.88 5486.5,3295.5C 5485.5,3295.5 5484.5,3295.5 5483.5,3295.5C 5483.38,3293.27 5483.71,3291.1 5484.5,3289C 5487.15,3285.66 5488.15,3281.83 5487.5,3277.5C 5488.5,3277.5 5489.5,3277.5 5490.5,3277.5C 5490.34,3275.47 5490.5,3273.47 5491,3271.5C 5500.33,3244.17 5509.67,3216.83 5519,3189.5C 5519.5,3187.53 5519.66,3185.53 5519.5,3183.5C 5522.17,3183.5 5524.83,3183.5 5527.5,3183.5C 5527.5,3180.83 5527.5,3178.17 5527.5,3175.5C 5526.17,3175.5 5524.83,3175.5 5523.5,3175.5C 5525.88,3165.03 5527.88,3154.36 5529.5,3143.5C 5530.5,3143.5 5531.5,3143.5 5532.5,3143.5C 5534.12,3138.29 5535.12,3132.95 5535.5,3127.5C 5538.17,3127.5 5540.83,3127.5 5543.5,3127.5C 5543.5,3124.83 5543.5,3122.17 5543.5,3119.5C 5541.83,3119.5 5540.17,3119.5 5538.5,3119.5C 5539.83,3111.5 5541.17,3103.5 5542.5,3095.5C 5545.5,3095.5 5548.5,3095.5 5551.5,3095.5C 5551.5,3092.83 5551.5,3090.17 5551.5,3087.5C 5549.5,3087.5 5547.5,3087.5 5545.5,3087.5C 5545.5,3084.83 5545.5,3082.17 5545.5,3079.5C 5546.83,3079.5 5548.17,3079.5 5549.5,3079.5C 5549.7,3068.51 5551.54,3057.85 5555,3047.5C 5556.83,3036.87 5558.33,3026.2 5559.5,3015.5C 5560.5,3015.5 5561.5,3015.5 5562.5,3015.5C 5562.51,3006.06 5563.51,2996.73 5565.5,2987.5C 5564.99,2984.81 5564.82,2982.15 5565,2979.5C 5565.34,2981.62 5566.18,2981.95 5567.5,2980.5 Z"/></g>
<g><path style="opacity:1" fill="#fefefe" d="M 2564.5,3519.5 C 2554.86,3536.77 2544.7,3553.77 2534,3570.5C 2521.13,3589.04 2505.63,3604.87 2487.5,3618C 2455.1,3637.11 2423.43,3635.77 2392.5,3614C 2383,3606 2373.67,3597.83 2364.5,3589.5C 2345.83,3535.32 2336.5,3479.49 2336.5,3422C 2336.39,3312.9 2366.22,3213.06 2426,3122.5C 2465.29,3065.36 2515.13,3020.03 2575.5,2986.5C 2575.83,2987.67 2576.17,2988.83 2576.5,2990C 2544.9,3165.85 2540.9,3342.35 2564.5,3519.5 Z"/></g>
<g><path style="opacity:1" fill="#c2b8c6" d="M 6127.5,3247.5 C 6131.13,3257.22 6134.29,3267.22 6137,3277.5C 6138.66,3282.77 6139.66,3288.11 6140,3293.5C 6126.33,3305.67 6112.83,3318 6099.5,3330.5C 6111.22,3303.68 6120.55,3276.02 6127.5,3247.5 Z"/></g>
<g><path style="opacity:1" fill="#fefefe" d="M 6867.5,3437.5 C 6868.98,3487.17 6868.81,3536.84 6867,3586.5C 6864.38,3637.46 6857.38,3687.79 6846,3737.5C 6838.97,3764.88 6828.64,3790.88 6815,3815.5C 6787.2,3860.23 6747.37,3876.73 6695.5,3865C 6662.76,3857.7 6639.92,3838.54 6627,3807.5C 6616.86,3780.08 6612.7,3751.74 6614.5,3722.5C 6634.98,3704.85 6651.15,3683.85 6663,3659.5C 6684.54,3604.79 6676.54,3554.79 6639,3509.5C 6617.39,3485.55 6592.55,3465.71 6564.5,3450C 6484.6,3408.62 6399.6,3389.28 6309.5,3392C 6232.55,3399.82 6164.22,3427.99 6104.5,3476.5C 6103.96,3474.48 6104.46,3472.48 6106,3470.5C 6156.74,3379.47 6232.57,3319.97 6333.5,3292C 6390.6,3275.95 6448.6,3271.62 6507.5,3279C 6575.43,3288.42 6640.43,3307.76 6702.5,3337C 6761.23,3365 6816.23,3398.5 6867.5,3437.5 Z"/></g>
<g><path style="opacity:1" fill="#c3b8c6" d="M 6867.5,3437.5 C 6893.56,3455.37 6918.06,3475.37 6941,3497.5C 6962.31,3523.78 6976.97,3553.44 6985,3586.5C 7007.06,3689.73 6997.06,3789.73 6955,3886.5C 6951.35,3893.8 6947.68,3901.14 6944,3908.5C 6892.81,3938.01 6837.97,3957.18 6779.5,3966C 6697.42,3975.53 6632.25,3947.03 6584,3880.5C 6560.9,3847.89 6544.73,3812.05 6535.5,3773C 6535.59,3771.89 6535.92,3770.89 6536.5,3770C 6564.66,3757.43 6590.66,3741.6 6614.5,3722.5C 6612.7,3751.74 6616.86,3780.08 6627,3807.5C 6639.92,3838.54 6662.76,3857.7 6695.5,3865C 6747.37,3876.73 6787.2,3860.23 6815,3815.5C 6828.64,3790.88 6838.97,3764.88 6846,3737.5C 6857.38,3687.79 6864.38,3637.46 6867,3586.5C 6868.81,3536.84 6868.98,3487.17 6867.5,3437.5 Z"/></g>
<g><path style="opacity:1" fill="#fefefe" d="M 6394.5,3484.5 C 6415.06,3499.56 6433.23,3517.23 6449,3537.5C 6469.34,3569.67 6465.17,3598.17 6436.5,3623C 6417.97,3636.86 6402.14,3653.36 6389,3672.5C 6382.13,3683.91 6377.8,3696.25 6376,3709.5C 6375.3,3728.87 6375.8,3748.2 6377.5,3767.5C 6377.35,3798.11 6371.18,3827.44 6359,3855.5C 6340.86,3906.26 6312.36,3950.1 6273.5,3987C 6251.01,4006.76 6226.01,4022.76 6198.5,4035C 6185.51,4040.27 6172.51,4045.44 6159.5,4050.5C 6210.04,4080.3 6264.71,4094.14 6323.5,4092C 6338.75,4089.97 6353.75,4086.8 6368.5,4082.5C 6380.62,4102.16 6397.96,4108.99 6420.5,4103C 6427.11,4100.7 6433.11,4097.36 6438.5,4093C 6483.65,4057.34 6515.31,4012.18 6533.5,3957.5C 6568.89,3998.2 6612.23,4026.86 6663.5,4043.5C 6657.68,4075.81 6643.85,4104.14 6622,4128.5C 6586.35,4165.76 6543.18,4189.93 6492.5,4201C 6461.21,4207.56 6429.55,4210.4 6397.5,4209.5C 6342.74,4323.75 6278.41,4431.75 6204.5,4533.5C 6123.03,4425.81 6022.69,4340.65 5903.5,4278C 5883.71,4267.77 5863.71,4258.11 5843.5,4249C 5913.54,4162.79 5976.04,4071.29 6031,3974.5C 6032.94,3968.84 6033.77,3963 6033.5,3957C 6025.84,3879.18 6025.68,3801.35 6033,3723.5C 6034.67,3712.16 6036.33,3700.82 6038,3689.5C 6065.02,3640.8 6099.19,3597.63 6140.5,3560C 6182.11,3522.36 6230.45,3497.02 6285.5,3484C 6314.69,3478.43 6344.02,3477.43 6373.5,3481C 6380.49,3482.25 6387.49,3483.42 6394.5,3484.5 Z"/></g>
<g><path style="opacity:1" fill="#c3b8c6" d="M 6010.5,3464.5 C 5978.96,3534.31 5958.46,3607.31 5949,3683.5C 5943.41,3728.23 5939.91,3773.06 5938.5,3818C 5906.16,3834.67 5872.16,3846.33 5836.5,3853C 5873.58,3749.07 5899.92,3642.57 5915.5,3533.5C 5915.37,3534.24 5915.54,3534.91 5916,3535.5C 5933.6,3525.62 5950.44,3514.62 5966.5,3502.5C 5981.5,3490.16 5996.17,3477.5 6010.5,3464.5 Z"/></g>
<g><path style="opacity:1" fill="#c3b8c6" d="M 6394.5,3484.5 C 6442.68,3491.76 6488.01,3507.26 6530.5,3531C 6547.37,3541.37 6562.21,3554.21 6575,3569.5C 6592.69,3594.51 6591.35,3618.51 6571,3641.5C 6554.76,3658.41 6536.26,3672.25 6515.5,3683C 6495.74,3692.55 6475.74,3701.55 6455.5,3710C 6441.05,3720.48 6434.88,3734.65 6437,3752.5C 6448.26,3783.22 6455.6,3814.89 6459,3847.5C 6462.33,3892.89 6452.66,3935.22 6430,3974.5C 6416.59,3995.25 6399.75,4012.75 6379.5,4027C 6362.4,4042.78 6358.73,4061.28 6368.5,4082.5C 6353.75,4086.8 6338.75,4089.97 6323.5,4092C 6264.71,4094.14 6210.04,4080.3 6159.5,4050.5C 6172.51,4045.44 6185.51,4040.27 6198.5,4035C 6226.01,4022.76 6251.01,4006.76 6273.5,3987C 6312.36,3950.1 6340.86,3906.26 6359,3855.5C 6371.18,3827.44 6377.35,3798.11 6377.5,3767.5C 6375.8,3748.2 6375.3,3728.87 6376,3709.5C 6377.8,3696.25 6382.13,3683.91 6389,3672.5C 6402.14,3653.36 6417.97,3636.86 6436.5,3623C 6465.17,3598.17 6469.34,3569.67 6449,3537.5C 6433.23,3517.23 6415.06,3499.56 6394.5,3484.5 Z"/></g>
<g><path style="opacity:1" fill="#c3b8c6" d="M 2564.5,3519.5 C 2580.22,3632.21 2606.88,3742.38 2644.5,3850C 2644.17,3850.5 2643.83,3851 2643.5,3851.5C 2523.54,3819.8 2436.71,3748.13 2383,3636.5C 2375.75,3621.23 2369.58,3605.57 2364.5,3589.5C 2373.67,3597.83 2383,3606 2392.5,3614C 2423.43,3635.77 2455.1,3637.11 2487.5,3618C 2505.63,3604.87 2521.13,3589.04 2534,3570.5C 2544.7,3553.77 2554.86,3536.77 2564.5,3519.5 Z"/></g>
<g><path style="opacity:1" fill="#948b9c" d="M 5442.5,3555.5 C 5479.74,3551.98 5513.08,3561.48 5542.5,3584C 5578.97,3620.1 5587.14,3661.93 5567,3709.5C 5543,3757.12 5504.84,3786.96 5452.5,3799C 5413.73,3807.63 5377.73,3801.3 5344.5,3780C 5310.31,3753.48 5296.48,3718.64 5303,3675.5C 5312.75,3636.43 5334.25,3605.59 5367.5,3583C 5390.54,3568.17 5415.54,3559 5442.5,3555.5 Z"/></g>
<g><path style="opacity:1" fill="#ad98fd" d="M 5939.5,3912.5 C 5941.12,3913.59 5941.95,3915.26 5942,3917.5C 5943.45,3928.47 5944.12,3939.47 5944,3950.5C 5877.91,4063.97 5800.58,4169.3 5712,4266.5C 5632.14,4352.65 5541.64,4425.31 5440.5,4484.5C 5531.17,4391.96 5611,4290.63 5680,4180.5C 5725.98,4106.1 5765.82,4028.43 5799.5,3947.5C 5848.03,3942.88 5894.7,3931.21 5939.5,3912.5 Z"/></g>
<g><path style="opacity:1" fill="#c3b8c6" d="M 6663.5,4043.5 C 6720.89,4059.09 6778.39,4059.43 6836,4044.5C 6814,4111.5 6775.17,4166.67 6719.5,4210C 6685.37,4233.72 6647.7,4249.05 6606.5,4256C 6593.36,4261.14 6584.19,4270.31 6579,4283.5C 6534.91,4484.93 6455.91,4670.93 6342,4841.5C 6318.05,4728.64 6272.22,4625.97 6204.5,4533.5C 6278.41,4431.75 6342.74,4323.75 6397.5,4209.5C 6429.55,4210.4 6461.21,4207.56 6492.5,4201C 6543.18,4189.93 6586.35,4165.76 6622,4128.5C 6643.85,4104.14 6657.68,4075.81 6663.5,4043.5 Z"/></g>
<g><path style="opacity:1" fill="#fefefe" d="M 6156.5,4598.5 C 6156.65,4599.55 6156.48,4600.55 6156,4601.5C 6076.87,4705.3 5988.04,4800.13 5889.5,4886C 5872,4900.17 5854.5,4914.33 5837,4928.5C 5836.51,4927.21 5836.34,4925.87 5836.5,4924.5C 5839.22,4878.81 5842.38,4833.14 5846,4787.5C 5849.77,4692.76 5815.61,4614.92 5743.5,4554C 5698.23,4518.71 5646.9,4498.38 5589.5,4493C 5662.85,4438.67 5730.35,4377.51 5792,4309.5C 5924.44,4365.26 6036.44,4448.6 6128,4559.5C 6137.72,4572.38 6147.22,4585.38 6156.5,4598.5 Z"/></g>
<g><path style="opacity:1" fill="#70599f" d="M 3049.5,4491.5 C 3050.29,4491.78 3050.96,4492.28 3051.5,4493C 3020.84,4493.5 2990.17,4493.67 2959.5,4493.5C 2989.5,4492.83 3019.5,4492.17 3049.5,4491.5 Z"/></g>
<g><path style="opacity:1" fill="#301940" d="M 3175.5,4489.5 C 3177.84,4489.5 3179.84,4490.34 3181.5,4492C 3888.83,4492.5 4596.17,4492.67 5303.5,4492.5C 4596.31,4493.17 3888.98,4493.83 3181.5,4494.5C 3178.25,4494.22 3176.25,4492.56 3175.5,4489.5 Z"/></g>
<g><path style="opacity:1" fill="#341b42" d="M 5599.5,4582.5 C 5594.78,4582.49 5590.12,4581.99 5585.5,4581C 5146.17,4580.83 4706.83,4580.67 4267.5,4580.5C 3828.17,4580.67 3388.83,4580.83 2949.5,4581C 2944.83,4581.54 2940.16,4582.04 2935.5,4582.5C 2937.39,4581.68 2939.39,4580.84 2941.5,4580C 2939.62,4578.98 2937.62,4578.15 2935.5,4577.5C 2939.18,4576.24 2942.85,4576.24 2946.5,4577.5C 2947.5,4577 2948.5,4576.5 2949.5,4576C 3388.5,4575.83 3827.5,4575.67 4266.5,4575.5C 4705.5,4575.67 5144.5,4575.83 5583.5,4576C 5585.61,4576.36 5587.61,4577.03 5589.5,4578C 5588.67,4578.91 5587.67,4579.58 5586.5,4580C 5591.1,4580.15 5595.43,4580.98 5599.5,4582.5 Z"/></g>
<g><path style="opacity:1" fill="#381a45" d="M 2951.5,4576.5 C 3828.5,4576.33 4705.5,4576.5 5582.5,4577C 5582.96,4577.41 5583.29,4577.91 5583.5,4578.5C 4706.17,4579.5 3828.83,4579.83 2951.5,4579.5C 2951.5,4578.5 2951.5,4577.5 2951.5,4576.5 Z"/></g>
<g><path style="opacity:1" fill="#dee2e9" d="M 5599.5,4582.5 C 5629.12,4587.6 5656.12,4598.93 5680.5,4616.5C 4784.33,4617.33 3888,4617.83 2991.5,4618C 2928.75,4624.19 2880.25,4653.36 2846,4705.5C 2824.41,4741.89 2815.74,4781.22 2820,4823.5C 2857.61,5279.52 2895.11,5735.52 2932.5,6191.5C 2932.36,6193.03 2931.69,6194.03 2930.5,6194.5C 2902.44,6152.83 2885.94,6106.83 2881,6056.5C 2845.61,5627.21 2810.78,5197.88 2776.5,4768.5C 2779.67,4694.31 2813.33,4638.81 2877.5,4602C 2896.05,4592.76 2915.38,4586.26 2935.5,4582.5C 2940.16,4582.04 2944.83,4581.54 2949.5,4581C 3388.83,4580.83 3828.17,4580.67 4267.5,4580.5C 4706.83,4580.67 5146.17,4580.83 5585.5,4581C 5590.12,4581.99 5594.78,4582.49 5599.5,4582.5 Z"/></g>
<g><path style="opacity:1" fill="#c3b8c6" d="M 6156.5,4598.5 C 6221.86,4692.69 6262.03,4797.02 6277,4911.5C 6278.7,4915.73 6280.53,4919.89 6282.5,4924C 6154.14,5093.07 5995.64,5225.57 5807,5321.5C 5808.06,5298.18 5809.4,5274.84 5811,5251.5C 5819.18,5142.32 5827.68,5033.32 5836.5,4924.5C 5836.34,4925.87 5836.51,4927.21 5837,4928.5C 5854.5,4914.33 5872,4900.17 5889.5,4886C 5988.04,4800.13 6076.87,4705.3 6156,4601.5C 6156.48,4600.55 6156.65,4599.55 6156.5,4598.5 Z"/></g>
<g><path style="opacity:1" fill="#b7c3ce" d="M 5680.5,4616.5 C 5699.25,4629.92 5714.92,4646.25 5727.5,4665.5C 5676.83,4864.76 5600.33,5053.1 5498,5230.5C 5338.63,5499.54 5125.13,5715.38 4857.5,5878C 4756.4,5939.05 4651.07,5991.88 4541.5,6036.5C 4536.51,5975.34 4531.67,5914 4527,5852.5C 4512.99,5756.2 4462.49,5686.7 4375.5,5644C 4282.47,5605.26 4194.8,5614.6 4112.5,5672C 4054.76,5716.49 4020.26,5774.99 4009,5847.5C 4000.12,5965.01 3990.95,6082.35 3981.5,6199.5C 3752.89,6242.07 3522.23,6265.91 3289.5,6271C 3195.84,6273.6 3102.18,6274.1 3008.5,6272.5C 2977.5,6251.5 2951.5,6225.5 2930.5,6194.5C 2931.69,6194.03 2932.36,6193.03 2932.5,6191.5C 2895.11,5735.52 2857.61,5279.52 2820,4823.5C 2815.74,4781.22 2824.41,4741.89 2846,4705.5C 2880.25,4653.36 2928.75,4624.19 2991.5,4618C 3888,4617.83 4784.33,4617.33 5680.5,4616.5 Z"/></g>
<g><path style="opacity:1" fill="#b8c2cc" d="M 2991.5,4620.5 C 2994.06,4620.98 2996.56,4621.65 2999,4622.5C 3892.43,4621.17 4785.93,4621.17 5679.5,4622.5C 4783.83,4623.67 3888.17,4623.83 2992.5,4623C 2991.75,4622.33 2991.41,4621.5 2991.5,4620.5 Z"/></g>
<g><path style="opacity:1" fill="#918fa5" d="M 5727.5,4665.5 C 5751.23,4700.74 5761.73,4739.74 5759,4782.5C 5726.76,5204.12 5695.09,5625.79 5664,6047.5C 5653.55,6159.33 5599.05,6241.5 5500.5,6294C 5472.18,6307.44 5442.51,6316.44 5411.5,6321C 5404.83,6321.67 5398.17,6322.33 5391.5,6323C 5115.17,6323.5 4838.83,6323.67 4562.5,6323.5C 4555.46,6227.84 4548.46,6132.17 4541.5,6036.5C 4651.07,5991.88 4756.4,5939.05 4857.5,5878C 5125.13,5715.38 5338.63,5499.54 5498,5230.5C 5600.33,5053.1 5676.83,4864.76 5727.5,4665.5 Z"/></g>
<g><path style="opacity:1" fill="#d0d7df" d="M 3031.5,4891.5 C 3038.51,4891.33 3045.51,4891.5 3052.5,4892C 3099.99,4899.35 3147.32,4907.35 3194.5,4916C 3276.37,4944.54 3323.54,5001.7 3336,5087.5C 3352.17,5372.84 3368.33,5658.17 3384.5,5943.5C 3381.36,5994 3355.7,6026.5 3307.5,6041C 3278.24,6044 3248.91,6044.33 3219.5,6042C 3175.07,6036.12 3137.74,6017.12 3107.5,5985C 3080.73,5957.8 3063.57,5925.3 3056,5887.5C 3027.33,5579.43 2999.83,5271.27 2973.5,4963C 2972.82,4930.35 2987.49,4907.69 3017.5,4895C 3022.28,4893.75 3026.94,4892.58 3031.5,4891.5 Z"/></g>
<g><path style="opacity:1" fill="#371a46" d="M 4379.5,5021.5 C 4426.24,5067.45 4441.74,5122.45 4426,5186.5C 4407.87,5244.63 4369.7,5282.8 4311.5,5301C 4271.52,5311.26 4232.86,5307.76 4195.5,5290.5C 4127.69,5252.56 4097.52,5194.56 4105,5116.5C 4119.45,5046.71 4160.95,5001.88 4229.5,4982C 4286.14,4970.82 4336.14,4983.99 4379.5,5021.5 Z"/></g>
<g><path style="opacity:1" fill="#dee2e8" d="M 4379.5,5021.5 C 4380.25,5020.43 4381.25,5020.26 4382.5,5021C 4439.61,5062.07 4463.11,5117.57 4453,5187.5C 4439.38,5249.65 4402.88,5291.82 4343.5,5314C 4289.97,5330.24 4240.31,5322.58 4194.5,5291C 4194.73,5290.6 4195.06,5290.43 4195.5,5290.5C 4232.86,5307.76 4271.52,5311.26 4311.5,5301C 4369.7,5282.8 4407.87,5244.63 4426,5186.5C 4441.74,5122.45 4426.24,5067.45 4379.5,5021.5 Z"/></g>
<g><path style="opacity:1" fill="#fdfdfd" d="M 2730.5,5306.5 C 2731.8,5308.22 2732.47,5310.39 2732.5,5313C 2737.64,5376.41 2742.98,5439.75 2748.5,5503C 2714.92,5490.03 2680.58,5479.03 2645.5,5470C 2624.57,5465.61 2603.57,5461.61 2582.5,5458C 2631.02,5406.64 2680.36,5356.14 2730.5,5306.5 Z"/></g>
<g><path style="opacity:1" fill="#c3b8c6" d="M 5960.5,5492.5 C 5912.23,5500.88 5871.07,5522.55 5837,5557.5C 5814.58,5581.35 5796.42,5608.02 5782.5,5637.5C 5786.71,5584.21 5790.55,5530.87 5794,5477.5C 5795.48,5458.91 5797.31,5440.41 5799.5,5422C 5853.02,5396.91 5904.69,5368.74 5954.5,5337.5C 5957.27,5389.13 5959.27,5440.8 5960.5,5492.5 Z"/></g>
<g><path style="opacity:1" fill="#fefefe" d="M 5960.5,5492.5 C 5963.76,5656.85 5962.93,5821.19 5958,5985.5C 5954.03,6088.69 5947.36,6191.69 5938,6294.5C 5935.35,6324.62 5931.85,6354.62 5927.5,6384.5C 5914.8,6405 5899.8,6423.83 5882.5,6441C 5868.62,6454.11 5852.29,6462.78 5833.5,6467C 5824.83,6467.67 5816.17,6467.67 5807.5,6467C 5787.99,6461.74 5770.99,6452.08 5756.5,6438C 5736.44,6417.67 5719.44,6395.17 5705.5,6370.5C 5705.33,6317.5 5705.5,6264.5 5706,6211.5C 5708.1,6208.3 5709.93,6204.97 5711.5,6201.5C 5720.59,6182.73 5728.43,6163.4 5735,6143.5C 5769.98,6135.92 5801.15,6120.76 5828.5,6098C 5872.15,6057.05 5886.65,6007.55 5872,5949.5C 5853.2,5900.87 5818.37,5870.54 5767.5,5858.5C 5766.63,5856.28 5766.3,5853.95 5766.5,5851.5C 5771.72,5780.16 5777.05,5708.82 5782.5,5637.5C 5796.42,5608.02 5814.58,5581.35 5837,5557.5C 5871.07,5522.55 5912.23,5500.88 5960.5,5492.5 Z"/></g>
<g><path style="opacity:1" fill="#fefefe" d="M 2519.5,5527.5 C 2602.28,5532.15 2680.78,5552.82 2755,5589.5C 2767.78,5746.19 2780.45,5902.85 2793,6059.5C 2735.08,6013.14 2669.24,5983.97 2595.5,5972C 2473.77,5955.49 2353.77,5963.82 2235.5,5997C 2223.1,6000.58 2210.94,6004.74 2199,6009.5C 2222.84,5955.82 2249.84,5903.82 2280,5853.5C 2332.83,5767.49 2390.83,5685.15 2454,5606.5C 2475.69,5579.98 2497.52,5553.65 2519.5,5527.5 Z"/></g>
<g><path style="opacity:1" fill="#b7c2ce" d="M 4277.5,5708.5 C 4305.95,5710.52 4332.28,5718.86 4356.5,5733.5C 4384.31,5853.98 4395.14,5975.98 4389,6099.5C 4384.94,6161.82 4372.94,6222.49 4353,6281.5C 4336.34,6326.18 4313,6366.85 4283,6403.5C 4226.94,6464.62 4157.44,6500.62 4074.5,6511.5C 4090.12,6304.87 4105.95,6098.21 4122,5891.5C 4134.24,5812.47 4176.07,5755.3 4247.5,5720C 4257.7,5716.39 4267.7,5712.56 4277.5,5708.5 Z"/></g>
<g><path style="opacity:1" fill="#dee2e8" d="M 4277.5,5708.5 C 4267.7,5712.56 4257.7,5716.39 4247.5,5720C 4176.07,5755.3 4134.24,5812.47 4122,5891.5C 4105.95,6098.21 4090.12,6304.87 4074.5,6511.5C 4074.5,6511.83 4074.5,6512.17 4074.5,6512.5C 4065.26,6513.21 4056.09,6514.21 4047,6515.5C 4046.51,6513.87 4046.34,6512.2 4046.5,6510.5C 4062.49,6295.85 4078.65,6081.18 4095,5866.5C 4105.46,5790.39 4146.96,5739.89 4219.5,5715C 4238.42,5709.23 4257.75,5707.06 4277.5,5708.5 Z"/></g>
<g><path style="opacity:1" fill="#918fa5" d="M 4356.5,5733.5 C 4400.16,5760.45 4427.32,5799.12 4438,5849.5C 4440.16,5865.79 4441.83,5882.12 4443,5898.5C 4459.13,6113.86 4475.63,6329.19 4492.5,6544.5C 4352.17,6539.59 4211.84,6539.26 4071.5,6543.5C 4072.8,6533.24 4073.8,6522.91 4074.5,6512.5C 4074.5,6512.17 4074.5,6511.83 4074.5,6511.5C 4157.44,6500.62 4226.94,6464.62 4283,6403.5C 4313,6366.85 4336.34,6326.18 4353,6281.5C 4372.94,6222.49 4384.94,6161.82 4389,6099.5C 4395.14,5975.98 4384.31,5853.98 4356.5,5733.5 Z"/></g>
<g><path style="opacity:1" fill="#8a7991" d="M 5766.5,5851.5 C 5766.3,5853.95 5766.63,5856.28 5767.5,5858.5C 5766.27,5857.85 5765.61,5856.68 5765.5,5855C 5765.51,5853.62 5765.85,5852.45 5766.5,5851.5 Z"/></g>
<g><path style="opacity:1" fill="#fcfcfc" d="M 5759.5,5948.5 C 5786.11,5959.72 5795.61,5979.39 5788,6007.5C 5780.47,6023.53 5768.97,6035.87 5753.5,6044.5C 5753.17,6042.33 5752.83,6040.17 5752.5,6038C 5754.66,6008.14 5756.99,5978.3 5759.5,5948.5 Z"/></g>
<g><path style="opacity:1" fill="#fefefe" d="M 2799.5,6196.5 C 2817.16,6230.49 2832.66,6265.49 2846,6301.5C 2848.64,6310.08 2850.98,6318.75 2853,6327.5C 2854.41,6337.13 2854.74,6346.8 2854,6356.5C 2850.8,6371.19 2841.64,6378.19 2826.5,6377.5C 2819.43,6376.97 2812.43,6375.81 2805.5,6374C 2793.72,6369.61 2782.05,6364.94 2770.5,6360C 2728.29,6340.06 2685.95,6320.39 2643.5,6301C 2627.42,6293.99 2610.75,6291.99 2593.5,6295C 2587.39,6297.22 2581.72,6300.22 2576.5,6304C 2564.54,6315.73 2554.37,6328.9 2546,6343.5C 2532.89,6371.07 2518.22,6397.73 2502,6423.5C 2489.08,6441.08 2473.58,6455.92 2455.5,6468C 2439.98,6477.4 2423.32,6480.57 2405.5,6477.5C 2394.89,6458.22 2391.06,6437.55 2394,6415.5C 2397.82,6394.94 2401.15,6374.27 2404,6353.5C 2411.18,6312.81 2424.85,6274.48 2445,6238.5C 2457.38,6218.28 2472.54,6200.28 2490.5,6184.5C 2492.56,6178.96 2490.73,6175.63 2485,6174.5C 2460.49,6184.16 2438.32,6197.49 2418.5,6214.5C 2386.8,6224.46 2354.8,6233.29 2322.5,6241C 2279.97,6249.64 2237.3,6257.64 2194.5,6265C 2138.99,6280.08 2090.33,6307.08 2048.5,6346C 2011.92,6381.42 1978.75,6419.58 1949,6460.5C 1942.29,6469.09 1934.79,6476.92 1926.5,6484C 1914.29,6491.85 1902.62,6491.18 1891.5,6482C 1888.33,6478.83 1885.17,6475.67 1882,6472.5C 1880.44,6470.78 1879.61,6468.78 1879.5,6466.5C 1890.09,6423.56 1906.25,6382.9 1928,6344.5C 2002.68,6214.52 2111.85,6127.35 2255.5,6083C 2363.78,6051.44 2473.78,6043.44 2585.5,6059C 2662.48,6072.39 2726.64,6108.23 2778,6166.5C 2785.92,6176.03 2793.09,6186.03 2799.5,6196.5 Z"/></g>
<g><path style="opacity:1" fill="#9190a5" d="M 3981.5,6199.5 C 3978.67,6240.85 3975.67,6282.18 3972.5,6323.5C 3697.17,6323.67 3421.83,6323.5 3146.5,6323C 3095.93,6318.05 3049.93,6301.21 3008.5,6272.5C 3102.18,6274.1 3195.84,6273.6 3289.5,6271C 3522.23,6265.91 3752.89,6242.07 3981.5,6199.5 Z"/></g>
<g><path style="opacity:1" fill="#c3b8c6" d="M 2418.5,6214.5 C 2384.29,6244.91 2356.29,6280.25 2334.5,6320.5C 2209.66,6322.17 2108.49,6371.51 2031,6468.5C 2015.49,6490.85 1999.49,6512.85 1983,6534.5C 1969.27,6550.57 1953.44,6564.07 1935.5,6575C 1925.18,6580.66 1914.18,6583 1902.5,6582C 1893.75,6578.25 1887.25,6572.08 1883,6563.5C 1873.64,6540.29 1870.98,6516.29 1875,6491.5C 1875.87,6482.91 1877.37,6474.58 1879.5,6466.5C 1879.61,6468.78 1880.44,6470.78 1882,6472.5C 1885.17,6475.67 1888.33,6478.83 1891.5,6482C 1902.62,6491.18 1914.29,6491.85 1926.5,6484C 1934.79,6476.92 1942.29,6469.09 1949,6460.5C 1978.75,6419.58 2011.92,6381.42 2048.5,6346C 2090.33,6307.08 2138.99,6280.08 2194.5,6265C 2237.3,6257.64 2279.97,6249.64 2322.5,6241C 2354.8,6233.29 2386.8,6224.46 2418.5,6214.5 Z"/></g>
<g><path style="opacity:1" fill="#c3b8c6" d="M 2799.5,6196.5 C 2817.33,6222.82 2831.49,6251.15 2842,6281.5C 2865.59,6350.92 2876.59,6422.25 2875,6495.5C 2869.82,6534.07 2855.16,6568.4 2831,6598.5C 2818.1,6613.75 2802.27,6624.58 2783.5,6631C 2778.5,6631.67 2773.5,6631.67 2768.5,6631C 2765.4,6626.97 2763.24,6622.47 2762,6617.5C 2760.1,6609.94 2758.76,6602.27 2758,6594.5C 2757.33,6578.17 2757.33,6561.83 2758,6545.5C 2759.32,6530.26 2761.15,6515.09 2763.5,6500C 2763.36,6489.25 2759.86,6479.75 2753,6471.5C 2727,6438.83 2701,6406.17 2675,6373.5C 2657.84,6353.96 2637.67,6350.13 2614.5,6362C 2608.95,6365.88 2604.45,6370.71 2601,6376.5C 2582.85,6416.97 2557.68,6452.47 2525.5,6483C 2502.8,6502.93 2476.47,6510.59 2446.5,6506C 2428.92,6501.9 2415.26,6492.4 2405.5,6477.5C 2423.32,6480.57 2439.98,6477.4 2455.5,6468C 2473.58,6455.92 2489.08,6441.08 2502,6423.5C 2518.22,6397.73 2532.89,6371.07 2546,6343.5C 2554.37,6328.9 2564.54,6315.73 2576.5,6304C 2581.72,6300.22 2587.39,6297.22 2593.5,6295C 2610.75,6291.99 2627.42,6293.99 2643.5,6301C 2685.95,6320.39 2728.29,6340.06 2770.5,6360C 2782.05,6364.94 2793.72,6369.61 2805.5,6374C 2812.43,6375.81 2819.43,6376.97 2826.5,6377.5C 2841.64,6378.19 2850.8,6371.19 2854,6356.5C 2854.74,6346.8 2854.41,6337.13 2853,6327.5C 2850.98,6318.75 2848.64,6310.08 2846,6301.5C 2832.66,6265.49 2817.16,6230.49 2799.5,6196.5 Z"/></g>
<g><path style="opacity:1" fill="#584362" d="M 5616.5,6321.5 C 5616.56,6320.96 5616.89,6320.62 5617.5,6320.5C 5618.83,6461 5618.83,6601.33 5617.5,6741.5C 5617.83,6601.33 5617.5,6461.33 5616.5,6321.5 Z"/></g>
<g><path style="opacity:1" fill="#c3b8c6" d="M 5616.5,6321.5 C 5617.5,6461.33 5617.83,6601.33 5617.5,6741.5C 5348.17,6741.5 5078.83,6741.5 4809.5,6741.5C 4808.93,6734.23 4807.27,6727.23 4804.5,6720.5C 4870.83,6719.67 4937.16,6719.17 5003.5,6719C 5129.19,6709.91 5230.69,6656.08 5308,6557.5C 5340.76,6513.64 5363.59,6464.97 5376.5,6411.5C 5467.31,6409.24 5547.31,6379.24 5616.5,6321.5 Z"/></g>
<g><path style="opacity:1" fill="#ad98fd" d="M 2948.5,6338.5 C 2957.19,6344.27 2966.03,6349.94 2975,6355.5C 2975.5,6484.5 2975.67,6613.5 2975.5,6742.5C 2949.17,6742.5 2922.83,6742.5 2896.5,6742.5C 2895.77,6715.71 2893.93,6689.05 2891,6662.5C 2943.36,6601.72 2967.36,6531.05 2963,6450.5C 2960.47,6412.85 2955.64,6375.52 2948.5,6338.5 Z"/></g>
<g><path style="opacity:1" fill="#351c3f" d="M 5711.5,6201.5 C 5709.93,6204.97 5708.1,6208.3 5706,6211.5C 5705.5,6264.5 5705.33,6317.5 5705.5,6370.5C 5705.5,6479.5 5705.5,6588.5 5705.5,6697.5C 5705.5,6697.83 5705.5,6698.17 5705.5,6698.5C 5704.78,6698.92 5704.28,6699.58 5704,6700.5C 5704.33,6537.22 5704.66,6373.89 5705,6210.5C 5706.97,6207.8 5708.14,6204.8 5708.5,6201.5C 5709.5,6201.5 5710.5,6201.5 5711.5,6201.5 Z"/></g>
<g><path style="opacity:1" fill="#c3b8c6" d="M 5705.5,6370.5 C 5719.44,6395.17 5736.44,6417.67 5756.5,6438C 5770.99,6452.08 5787.99,6461.74 5807.5,6467C 5816.17,6467.67 5824.83,6467.67 5833.5,6467C 5852.29,6462.78 5868.62,6454.11 5882.5,6441C 5899.8,6423.83 5914.8,6405 5927.5,6384.5C 5914.7,6505.96 5891.37,6625.29 5857.5,6742.5C 5837.5,6742.5 5817.5,6742.5 5797.5,6742.5C 5767.26,6726.38 5736.59,6711.38 5705.5,6697.5C 5705.5,6588.5 5705.5,6479.5 5705.5,6370.5 Z"/></g>
<g><path style="opacity:1" fill="#fefefe" d="M 3063.5,6395.5 C 3090.63,6403.48 3118.29,6408.65 3146.5,6411C 3179.16,6411.5 3211.83,6411.67 3244.5,6411.5C 3281.8,6546.96 3365.47,6641.13 3495.5,6694C 3533.63,6707.91 3572.96,6716.24 3613.5,6719C 3652.5,6719.5 3691.5,6719.67 3730.5,6719.5C 3728.97,6726.5 3727.3,6733.5 3725.5,6740.5C 3504.83,6741.5 3284.17,6741.83 3063.5,6741.5C 3063.5,6626.17 3063.5,6510.83 3063.5,6395.5 Z"/></g>
<g><path style="opacity:1" fill="#321c41" d="M 3965.5,6423.5 C 3965.5,6419.5 3965.5,6415.5 3965.5,6411.5C 3755.83,6411.5 3546.17,6411.5 3336.5,6411.5C 3545.33,6410.5 3754.33,6410.17 3963.5,6410.5C 3963.5,6409.5 3963.5,6408.5 3963.5,6407.5C 3964.5,6407.5 3965.5,6407.5 3966.5,6407.5C 3966.82,6413.03 3966.49,6418.36 3965.5,6423.5 Z"/></g>
<g><path style="opacity:1" fill="#fefefe" d="M 3336.5,6411.5 C 3546.17,6411.5 3755.83,6411.5 3965.5,6411.5C 3965.5,6415.5 3965.5,6419.5 3965.5,6423.5C 3961.16,6464.94 3957.82,6506.61 3955.5,6548.5C 3883.96,6550.77 3824.63,6578.61 3777.5,6632C 3726.17,6632.67 3674.83,6632.67 3623.5,6632C 3514.32,6623.34 3429.48,6573.84 3369,6483.5C 3354.52,6460.8 3343.69,6436.8 3336.5,6411.5 Z"/></g>
<g><path style="opacity:1" fill="#fefefe" d="M 5081.5,6411.5 C 5056.07,6444.1 5027.07,6473.27 4994.5,6499C 4920.68,6554.41 4839.35,6595.91 4750.5,6623.5C 4703.94,6575.82 4647.11,6550.48 4580,6547.5C 4576.6,6502.18 4573.44,6456.84 4570.5,6411.5C 4740.83,6411.5 4911.17,6411.5 5081.5,6411.5 Z"/></g>
<g><path style="opacity:1" fill="#c3b8c6" d="M 5081.5,6411.5 C 5149.5,6411.5 5217.5,6411.5 5285.5,6411.5C 5264.08,6477.42 5225.42,6530.92 5169.5,6572C 5118.34,6608.06 5061.34,6628.06 4998.5,6632C 4918.17,6632.67 4837.83,6632.67 4757.5,6632C 4755.33,6629 4753,6626.17 4750.5,6623.5C 4839.35,6595.91 4920.68,6554.41 4994.5,6499C 5027.07,6473.27 5056.07,6444.1 5081.5,6411.5 Z"/></g>
<g><path style="opacity:1" fill="#b6c2ce" d="M 2238.5,6584.5 C 2237.52,6587.96 2237.19,6591.63 2237.5,6595.5C 2173.66,6595.83 2110,6595.5 2046.5,6594.5C 2054.47,6585.02 2062.3,6575.36 2070,6565.5C 2096.2,6521.97 2130.03,6485.47 2171.5,6456C 2202.14,6435.85 2235.47,6422.02 2271.5,6414.5C 2251.04,6469.25 2240.04,6525.92 2238.5,6584.5 Z"/></g>
<g><path style="opacity:1" fill="#918fa5" d="M 2669.5,6596.5 C 2629.5,6596.5 2589.5,6596.5 2549.5,6596.5C 2549.5,6596.17 2549.5,6595.83 2549.5,6595.5C 2552.74,6587.64 2555.9,6579.64 2559,6571.5C 2559.76,6569.93 2559.6,6568.6 2558.5,6567.5C 2575.94,6555.58 2592.11,6541.91 2607,6526.5C 2620.81,6511.02 2633.48,6494.69 2645,6477.5C 2655.28,6489.1 2664.78,6501.27 2673.5,6514C 2672.07,6523.12 2670.91,6532.29 2670,6541.5C 2669.5,6559.83 2669.33,6578.16 2669.5,6596.5 Z"/></g>
<g><path style="opacity:1" fill="#cccbd5" d="M 4046.5,6510.5 C 4046.34,6512.2 4046.51,6513.87 4047,6515.5C 4056.09,6514.21 4065.26,6513.21 4074.5,6512.5C 4073.8,6522.91 4072.8,6533.24 4071.5,6543.5C 4066.5,6543.5 4061.5,6543.5 4056.5,6543.5C 4052.5,6543.5 4048.5,6543.5 4044.5,6543.5C 4044.5,6540.17 4044.5,6536.83 4044.5,6533.5C 4044.36,6525.62 4045.03,6517.95 4046.5,6510.5 Z"/></g>
<g><path style="opacity:1" fill="#b6c1ce" d="M 2450.5,6594.5 C 2405,6595.5 2359.34,6595.83 2313.5,6595.5C 2313.59,6566.46 2316.75,6537.79 2323,6509.5C 2349.86,6560.88 2392.36,6589.21 2450.5,6594.5 Z"/></g>
<g><path style="opacity:1" fill="#8c7b96" d="M 4044.5,6533.5 C 4044.5,6536.83 4044.5,6540.17 4044.5,6543.5C 4048.5,6543.5 4052.5,6543.5 4056.5,6543.5C 4052.37,6544.48 4048.03,6544.82 4043.5,6544.5C 4043.19,6540.63 4043.52,6536.96 4044.5,6533.5 Z"/></g>
<g><path style="opacity:1" fill="#b5c0cd" d="M 2558.5,6567.5 C 2559.6,6568.6 2559.76,6569.93 2559,6571.5C 2555.9,6579.64 2552.74,6587.64 2549.5,6595.5C 2525.99,6595.83 2502.66,6595.5 2479.5,6594.5C 2508.07,6591.65 2534.4,6582.65 2558.5,6567.5 Z"/></g>
<g><path style="opacity:1" fill="#9997ad" d="M 2238.5,6584.5 C 2238.5,6588.5 2238.5,6592.5 2238.5,6596.5C 2174.16,6596.83 2109.83,6596.5 2045.5,6595.5C 2045.62,6594.89 2045.96,6594.56 2046.5,6594.5C 2110,6595.5 2173.66,6595.83 2237.5,6595.5C 2237.19,6591.63 2237.52,6587.96 2238.5,6584.5 Z"/></g>
<g><path style="opacity:1" fill="#9996ad" d="M 2450.5,6594.5 C 2460.16,6595.77 2469.83,6595.77 2479.5,6594.5C 2502.66,6595.5 2525.99,6595.83 2549.5,6595.5C 2549.5,6595.83 2549.5,6596.17 2549.5,6596.5C 2470.83,6596.5 2392.17,6596.5 2313.5,6596.5C 2313.5,6596.17 2313.5,6595.83 2313.5,6595.5C 2359.34,6595.83 2405,6595.5 2450.5,6594.5 Z"/></g>
<g><path style="opacity:1" fill="#361b41" d="M 2313.5,6596.5 C 2392.17,6596.5 2470.83,6596.5 2549.5,6596.5C 2589.5,6596.5 2629.5,6596.5 2669.5,6596.5C 2669.65,6597.55 2669.48,6598.55 2669,6599.5C 2667.42,6600.01 2666.09,6599.35 2665,6597.5C 2607.71,6598.49 2550.54,6598.49 2493.5,6597.5C 2491.68,6597.65 2490.18,6598.32 2489,6599.5C 2488.5,6599 2488,6598.5 2487.5,6598C 2479.33,6597.83 2471.17,6597.67 2463,6597.5C 2454.34,6597.53 2445.84,6598.2 2437.5,6599.5C 2436.3,6599.15 2436.3,6598.65 2437.5,6598C 2396,6597.83 2354.66,6597.33 2313.5,6596.5 Z"/></g>
<g><path style="opacity:1" fill="#dde2e8" d="M 4559.5,6635.5 C 4554.77,6638.89 4549.77,6641.89 4544.5,6644.5C 4355.77,6637.97 4167.1,6639.47 3978.5,6649C 3915.4,6657.37 3866.73,6688.2 3832.5,6741.5C 3826.97,6741.82 3821.64,6741.49 3816.5,6740.5C 3831.99,6693.5 3862.99,6661.34 3909.5,6644C 3923.11,6639.28 3937.11,6636.61 3951.5,6636C 4108.76,6628.42 4266.09,6626.42 4423.5,6630C 4469.04,6630.69 4514.37,6632.53 4559.5,6635.5 Z"/></g>
<g><path style="opacity:1" fill="#aaa5b6" d="M 4559.5,6635.5 C 4586.23,6633.98 4611.89,6638.32 4636.5,6648.5C 4635.9,6649.14 4635.07,6649.47 4634,6649.5C 4604.05,6647.32 4574.22,6645.99 4544.5,6645.5C 4544.5,6645.17 4544.5,6644.83 4544.5,6644.5C 4549.77,6641.89 4554.77,6638.89 4559.5,6635.5 Z"/></g>
<g><path style="opacity:1" fill="#b7c3ce" d="M 4544.5,6644.5 C 4544.5,6644.83 4544.5,6645.17 4544.5,6645.5C 4485.51,6676.67 4423.84,6701.5 4359.5,6720C 4332.81,6727.5 4306.15,6734.67 4279.5,6741.5C 4130.5,6741.5 3981.5,6741.5 3832.5,6741.5C 3866.73,6688.2 3915.4,6657.37 3978.5,6649C 4167.1,6639.47 4355.77,6637.97 4544.5,6644.5 Z"/></g>
<g><path style="opacity:1" fill="#9190a5" d="M 4636.5,6648.5 C 4677.94,6667.27 4705.6,6698.27 4719.5,6741.5C 4682.17,6741.5 4644.83,6741.5 4607.5,6741.5C 4498.17,6741.5 4388.83,6741.5 4279.5,6741.5C 4306.15,6734.67 4332.81,6727.5 4359.5,6720C 4423.84,6701.5 4485.51,6676.67 4544.5,6645.5C 4574.22,6645.99 4604.05,6647.32 4634,6649.5C 4635.07,6649.47 4635.9,6649.14 4636.5,6648.5 Z"/></g>
<g><path style="opacity:1" fill="#b6c2ce" d="M 2501.5,6671.5 C 2496.41,6678.1 2490.74,6684.26 2484.5,6690C 2469.33,6702.83 2453.33,6714.5 2436.5,6725C 2425.55,6730.8 2414.55,6736.3 2403.5,6741.5C 2402.83,6741.5 2402.17,6741.5 2401.5,6741.5C 2263.29,6742.16 2125.29,6741.5 1987.5,6739.5C 1985.69,6717.06 1986.35,6694.73 1989.5,6672.5C 2160.17,6671.5 2330.83,6671.17 2501.5,6671.5 Z"/></g>
<g><path style="opacity:1" fill="#918fa5" d="M 2501.5,6671.5 C 2564.5,6671.33 2627.5,6671.5 2690.5,6672C 2709.03,6703.19 2736.53,6719.02 2773,6719.5C 2784.65,6719.36 2796.15,6718.02 2807.5,6715.5C 2807.72,6722.84 2808.06,6730.17 2808.5,6737.5C 2808.5,6738.83 2808.5,6740.17 2808.5,6741.5C 2673.5,6741.5 2538.5,6741.5 2403.5,6741.5C 2414.55,6736.3 2425.55,6730.8 2436.5,6725C 2453.33,6714.5 2469.33,6702.83 2484.5,6690C 2490.74,6684.26 2496.41,6678.1 2501.5,6671.5 Z"/></g>
<g><path style="opacity:1" fill="#8771c4" d="M 5705.5,6697.5 C 5736.59,6711.38 5767.26,6726.38 5797.5,6742.5C 5766.83,6742.5 5736.17,6742.5 5705.5,6742.5C 5705.5,6727.83 5705.5,6713.17 5705.5,6698.5C 5705.5,6698.17 5705.5,6697.83 5705.5,6697.5 Z"/></g>
<g><path style="opacity:1" fill="#776d8a" d="M 1987.5,6739.5 C 2125.29,6741.5 2263.29,6742.16 2401.5,6741.5C 2401.5,6741.83 2401.5,6742.17 2401.5,6742.5C 2263.5,6742.5 2125.5,6742.5 1987.5,6742.5C 1987.5,6741.5 1987.5,6740.5 1987.5,6739.5 Z"/></g>
<g><path style="opacity:1" fill="#635475" d="M 2808.5,6737.5 C 2809.45,6738.92 2809.78,6740.59 2809.5,6742.5C 2673.5,6742.5 2537.5,6742.5 2401.5,6742.5C 2401.5,6742.17 2401.5,6741.83 2401.5,6741.5C 2402.17,6741.5 2402.83,6741.5 2403.5,6741.5C 2538.5,6741.5 2673.5,6741.5 2808.5,6741.5C 2808.5,6740.17 2808.5,6738.83 2808.5,6737.5 Z"/></g>
<g><path style="opacity:1" fill="#726685" d="M 3816.5,6740.5 C 3821.64,6741.49 3826.97,6741.82 3832.5,6741.5C 3981.5,6741.5 4130.5,6741.5 4279.5,6741.5C 4388.83,6741.5 4498.17,6741.5 4607.5,6741.5C 4475.67,6742.17 4343.67,6742.5 4211.5,6742.5C 4079.5,6742.17 3947.5,6741.83 3815.5,6741.5C 3815.62,6740.89 3815.96,6740.56 3816.5,6740.5 Z"/></g>
<g><path style="opacity:1" fill="#7258a2" d="M 5949.5,6739.5 C 6167.33,6741.17 6385.33,6742.17 6603.5,6742.5C 6385.17,6742.5 6166.83,6742.5 5948.5,6742.5C 5948.26,6741.21 5948.6,6740.21 5949.5,6739.5 Z"/></g>
<g><path style="opacity:1" fill="#351a42" d="M 6608.5,6828.5 C 6608.17,6828.5 6607.83,6828.5 6607.5,6828.5C 6292.67,6828.83 5978,6828.5 5663.5,6827.5C 5312.14,6826.83 4960.64,6826.17 4609,6825.5C 4080.08,6826.18 3551.24,6826.18 3022.5,6825.5C 3020.22,6826.21 3017.89,6826.71 3015.5,6827C 3279.5,6827.33 3543.5,6827.67 3807.5,6828C 3490.17,6828.5 3172.83,6828.67 2855.5,6828.5C 2705.17,6827.17 2554.5,6826.5 2403.5,6826.5C 2252.5,6826.5 2101.83,6827.17 1951.5,6828.5C 1909.83,6828.67 1868.17,6828.5 1826.5,6828C 1825.33,6827.58 1824.33,6826.91 1823.5,6826C 2016.83,6824.93 2210.16,6824.43 2403.5,6824.5C 3686.35,6824.17 4969.02,6824.51 6251.5,6825.5C 6370.17,6825.33 6488.83,6825.17 6607.5,6825C 6609.95,6823.46 6612.62,6823.13 6615.5,6824C 6612.16,6824.09 6609.82,6825.59 6608.5,6828.5 Z"/></g>
<g><path style="opacity:1" fill="#381945" d="M 2855.5,6828.5 C 2554.17,6828.5 2252.83,6828.5 1951.5,6828.5C 2101.83,6827.17 2252.5,6826.5 2403.5,6826.5C 2554.5,6826.5 2705.17,6827.17 2855.5,6828.5 Z"/></g>
<g><path style="opacity:1" fill="#381945" d="M 5663.5,6827.5 C 5978,6828.5 6292.67,6828.83 6607.5,6828.5C 5995,6829.5 5382.33,6829.83 4769.5,6829.5C 4449.33,6828.67 4129,6828.17 3808.5,6828C 4426.83,6827.5 5045.17,6827.33 5663.5,6827.5 Z"/></g>
<g><path style="opacity:1" fill="#c8b9fa" d="M 8332.5,-0.5 C 8332.83,-0.5 8333.17,-0.5 8333.5,-0.5C 8333.5,2777.5 8333.5,5555.5 8333.5,8333.5C 5555.5,8333.5 2777.5,8333.5 -0.5,8333.5C -0.5,8333.17 -0.5,8332.83 -0.5,8332.5C 2777.17,8332.5 5554.83,8332.5 8332.5,8332.5C 8332.5,5554.83 8332.5,2777.17 8332.5,-0.5 Z"/></g>
</svg>
